<svg width="584" height="587" viewBox="0 0 584 587" fill="none" xmlns="http://www.w3.org/2000/svg">
<g opacity="0.399994">
<path d="M583.055 306.473C582.76 309.294 582.047 311.932 581.264 314.496C580.496 317.066 579.573 319.546 578.677 322.017C576.869 326.954 574.983 331.804 573.319 336.713C571.624 341.608 570.112 346.542 568.816 351.51C567.521 356.48 566.536 361.509 565.711 366.525C564.157 376.589 563.621 386.705 564.08 396.685C564.168 399.177 564.359 401.665 564.549 404.138C564.784 406.669 565.049 408.91 565.277 411.85C565.739 417.441 565.949 423.118 565.78 428.857C565.484 440.33 563.748 452.102 560.029 463.622C556.331 475.12 550.616 486.325 543.017 496.213C535.427 506.105 526.145 514.701 515.995 521.71C505.825 528.729 494.795 534.161 483.404 538.128C477.705 540.124 471.908 541.745 466.007 543.016C463.059 543.666 460.075 544.197 457.044 544.646L449.699 545.717C440.552 547.182 431.717 549.141 423.112 552.058C414.452 554.85 405.993 558.658 396.847 563.073C387.735 567.466 377.845 572.533 367.056 576.736C361.679 578.833 356.131 580.736 350.491 582.278C347.673 583.056 344.835 583.74 341.993 584.373L337.721 585.246C336.105 585.533 334.485 585.797 332.844 586C326.291 586.829 319.483 586.876 312.684 585.789C305.892 584.749 299.119 582.558 292.883 579.15C286.66 575.73 281.023 571.038 276.62 565.4C272.188 559.788 269.033 553.256 267.395 546.561C265.709 539.868 265.504 533.076 266.331 526.708C267.131 520.322 268.952 514.332 271.372 508.825C276.327 497.826 283.267 488.656 291.004 480.636C294.868 476.585 299.075 472.901 303.407 469.453C307.784 466.054 312.333 462.937 317.013 460.109C335.779 448.77 356.34 442.285 375.201 434.076C384.596 430.026 393.652 425.438 400.763 419.77C404.287 416.912 407.257 413.813 409.488 410.537C410.045 409.717 410.557 408.885 411.033 408.046C411.497 407.218 411.937 406.377 412.387 405.456C413.276 403.616 414.123 401.581 414.924 399.458C416.527 395.202 417.931 390.566 419.236 385.832C420.605 381.108 421.804 376.234 423.08 371.326L426.845 356.441C428.105 351.433 429.401 346.398 430.793 341.356C436.376 321.194 442.856 300.728 452.803 280.757C457.844 270.804 463.727 260.928 471.525 251.724C473.508 249.442 475.564 247.196 477.813 245.033C480.028 242.862 482.408 240.765 485.007 238.838C487.568 236.892 490.333 235.084 493.288 233.501C494.735 232.684 496.303 231.993 497.847 231.314L500.228 230.382C500.995 230.1 501.663 229.905 502.383 229.664C508.064 227.856 513.964 226.524 520.015 225.962C526.053 225.389 532.233 225.598 538.233 226.777C544.237 227.91 550.012 230.15 555.161 233.194C557.733 234.728 560.148 236.476 562.351 238.418C564.577 240.328 566.609 242.414 568.436 244.629C575.752 253.541 579.844 264.078 581.929 274.618C584.004 285.208 584.117 295.937 583.055 306.473ZM579.051 306.042C580.18 295.902 579.663 285.516 576.871 275.834C574.107 266.204 568.987 257.226 561.707 251.174C559.904 249.66 557.997 248.318 556.013 247.168C554.012 246.041 551.921 245.138 549.799 244.428C545.556 242.982 541.12 242.477 536.757 242.685C527.999 243.157 519.564 246.47 511.895 251.238C511.432 251.538 510.9 251.848 510.497 252.134L509.391 252.957C508.669 253.556 507.952 254.117 507.253 254.776C505.848 256.033 504.504 257.448 503.225 259.014C500.665 262.098 498.256 265.65 496.101 269.513C491.716 277.214 487.984 285.936 484.477 294.941C477.504 313.048 471.372 332.362 464.484 351.9C462.767 356.792 460.975 361.696 459.105 366.616C457.28 371.553 455.304 376.482 453.256 381.44C449.112 391.361 444.621 401.296 438.513 411.357C436.964 413.877 435.3 416.408 433.381 418.952C432.423 420.22 431.373 421.512 430.267 422.76C429.152 423.981 428 425.15 426.811 426.26C422.04 430.7 416.761 434.106 411.484 436.788C400.915 442.198 390.381 445.109 380.232 448.121C370.055 451.014 360.12 453.808 350.583 457.377C341.057 460.929 331.935 465.25 323.679 470.697C315.401 476.1 308.115 482.764 302.22 490.406C296.348 498.085 291.708 506.654 289.632 515.297C288.595 519.601 288.144 523.876 288.385 527.89C288.653 531.905 289.589 535.641 291.157 538.845C294.255 545.301 299.607 549.602 305.96 551.67C309.128 552.741 312.569 553.228 316.12 553.281C319.677 553.289 323.361 552.838 327.067 551.934C327.992 551.708 328.92 551.437 329.845 551.164L333.152 550.17C335.344 549.476 337.517 548.752 339.659 547.954C343.948 546.365 348.153 544.598 352.335 542.577C360.696 538.58 369.04 533.525 378.3 528.148C387.511 522.766 397.757 517.313 408.659 512.937C419.587 508.64 430.983 505.345 442.347 503.264C443.768 502.965 445.185 502.774 446.608 502.533L450.427 501.918C452.536 501.564 454.673 501.146 456.809 500.685C461.077 499.74 465.327 498.574 469.483 497.216C486.133 491.733 501.131 483.048 512.545 470.796C518.303 464.709 523.367 457.826 527.665 450.11C529.833 446.265 531.82 442.217 533.553 437.972C535.352 433.745 536.873 429.324 538.272 424.773C539.631 420.216 540.816 415.517 541.781 410.712C542.255 408.453 542.745 405.494 543.253 402.828C543.809 400.109 544.369 397.406 545.019 394.724C547.604 383.996 550.9 373.576 554.859 363.565C558.739 353.525 563.256 343.9 567.78 334.438C570.055 329.712 572.325 325.017 574.411 320.301C576.457 315.6 578.416 310.78 579.051 306.042" fill="#ECECEC"/>
<path d="M181.883 51.7028C169.915 53.4401 158.025 55.6175 146.311 58.4148L141.921 59.4721L137.563 60.6308C134.648 61.3681 131.777 62.2588 128.904 63.1201C123.148 64.8041 117.488 66.7681 111.903 68.8548C100.743 73.0388 89.9735 78.0828 80.0388 84.0375C75.0281 86.9441 70.3615 90.2548 65.8801 93.6188C61.5388 97.1335 57.3361 100.712 53.8175 104.673C51.9175 106.543 50.4281 108.673 48.7761 110.636L46.6281 113.755C46.2761 114.271 45.9028 114.773 45.5668 115.293L44.6681 116.904C42.1215 121.105 40.4295 125.509 39.2068 129.915C38.9495 131.037 38.6895 132.145 38.3841 133.229L37.8828 136.615C37.8055 137.177 37.6828 137.723 37.6335 138.292L37.5655 140.024C37.5295 141.179 37.4108 142.299 37.4068 143.455L37.5295 146.961C37.5575 147.547 37.5255 148.112 37.5935 148.708L37.8161 150.501L38.2001 154.064L38.9135 157.707C39.7961 162.549 41.3175 167.523 43.0201 172.509C43.3841 173.736 43.9135 175.04 44.4161 176.332C44.9255 177.615 45.4028 178.932 45.9281 180.185C47.0295 182.628 48.0428 185.159 49.2228 187.419C51.5095 192.059 53.9815 196.276 56.7361 199.833C59.5015 203.416 62.4748 206.483 65.9868 209.323C72.9428 214.977 82.5135 219.928 93.3028 225.012C98.6561 227.565 104.232 230.105 109.913 232.728C115.58 235.316 121.293 238.133 127.012 240.929C149.949 252.26 172.369 265.439 193.552 279.963L197.541 282.668L201.476 285.445C204.091 287.308 206.737 289.125 209.321 291.023L224.396 302.156C229.209 305.683 234.081 309.095 238.979 312.463L246.395 317.376C248.888 318.96 251.38 320.563 253.893 322.116C258.949 325.144 263.999 328.219 269.181 330.956L273.051 333.064L276.96 335.057C279.559 336.435 282.212 337.597 284.851 338.869C295.46 343.643 306.351 347.741 317.488 350.335C323.059 351.689 328.671 352.507 334.301 353.067C339.941 353.661 345.565 353.592 351.139 353.123C362.308 352.232 373.108 348.828 382.8 343.271C387.603 340.423 392.121 337.045 396.243 333.175C397.245 332.188 398.319 331.221 399.269 330.221L401.961 327.176C403.563 325.032 405.115 322.851 406.259 320.493C408.664 315.833 409.872 310.695 409.784 305.363C409.715 300.032 408.419 294.541 406.344 289.189C404.292 283.817 401.431 278.607 398.341 273.472C395.167 268.377 391.672 263.376 387.949 258.459C380.539 248.603 372.429 238.985 364.487 228.743C360.531 223.593 356.632 218.253 352.941 212.547C349.255 206.843 345.748 200.76 342.844 193.967C336.985 180.075 334.725 166.035 333.747 152.52C331.987 125.559 335.431 100.744 334.931 78.5028C334.7 67.4068 333.483 57.1708 330.255 48.1041C328.66 43.5508 326.453 39.2868 323.731 35.1895C321.179 31.4308 318.387 28.3895 314.897 26.1841C311.431 23.9641 307.123 22.4308 302.139 21.8241C297.172 21.1948 291.677 21.4215 286.088 22.1775C280.485 22.9281 274.761 24.1681 269.023 25.6295C263.309 27.1868 257.552 28.9055 251.841 30.8215C240.371 34.5615 228.981 38.8361 217.409 42.6428C205.856 46.4801 194.075 49.8628 181.883 51.7028ZM181.217 47.7508C193.023 46.0708 204.46 42.3335 215.44 37.6095C226.455 32.9175 237.052 27.2601 247.74 21.4948C253.111 18.6575 258.471 15.7028 264.024 12.9481C269.565 10.1441 275.281 7.48146 281.384 5.22813C287.489 2.9988 294.001 1.11878 301.207 0.364117C308.36 -0.379883 316.408 0.106797 324.257 2.96946C326.205 3.66813 328.083 4.60547 330.001 5.47081C331.825 6.47481 333.624 7.56278 335.416 8.67344C337.08 9.88811 338.747 11.1508 340.365 12.4561C341.856 13.8268 343.341 15.2241 344.819 16.6441C350.211 22.1241 354.791 28.5855 358.409 35.4601C362.047 42.3375 364.576 49.6228 366.331 56.7961C368.055 63.9908 369.017 71.0948 369.503 77.9961C370.453 91.8068 369.7 104.845 368.783 117.248L367.312 135.469C367.067 138.445 366.908 141.379 366.712 144.299L366.453 148.641L366.287 152.935C366.161 158.627 366.093 164.2 366.527 169.619C366.852 175.043 367.649 180.36 368.813 185.253C370.036 190.321 371.996 195.609 374.339 200.923C376.68 206.243 379.372 211.615 382.269 216.995C388.081 227.787 394.675 238.553 401.1 249.679L405.876 258.1C407.425 260.968 408.952 263.84 410.409 266.795C413.389 272.655 416.041 278.789 418.153 285.261C420.225 291.728 421.679 298.649 421.62 305.773C421.597 312.88 419.897 320.048 416.804 326.275C415.299 329.433 413.368 332.253 411.363 334.976L408.168 338.849C407.081 340.081 405.949 341.185 404.839 342.359C400.28 346.888 395.353 351.093 390.003 354.751C384.599 358.313 378.892 361.477 372.864 363.952C371.347 364.536 369.861 365.233 368.317 365.752L363.681 367.327C360.545 368.211 357.393 369.109 354.191 369.757C341.391 372.488 328.139 373.075 315.085 371.929C308.556 371.388 302.041 370.5 295.624 369.204C289.171 368.003 282.843 366.325 276.552 364.497C273.444 363.508 270.28 362.604 267.212 361.493L262.575 359.885L257.993 358.145C251.897 355.775 245.909 353.175 240.009 350.377C237.071 348.963 234.161 347.495 231.24 346.037C228.367 344.512 225.485 342.976 222.643 341.391C219.828 339.764 216.96 338.203 214.184 336.512C211.425 334.796 208.609 333.148 205.895 331.367L190.22 321.227C187.679 319.58 185.093 318.024 182.533 316.419L178.687 314.028L174.803 311.717C154.127 299.255 132.875 288.547 110.997 278.756C99.9855 273.872 88.8735 269.188 77.1095 263.871C71.2361 261.245 65.2135 258.28 58.9841 254.793C52.8081 251.259 46.3801 247.137 40.2988 241.939C34.2041 236.788 28.5548 230.62 23.9561 224.027C19.2708 217.449 15.7441 210.533 12.8135 203.761C11.2681 200.356 10.0922 196.996 8.84682 193.617C8.25882 191.936 7.75614 190.272 7.20947 188.6C6.67347 186.931 6.12681 185.284 5.67881 183.483L4.28815 178.191L3.61615 175.543L3.09882 172.801C2.43082 169.136 1.71214 165.531 1.45347 161.709C1.27614 159.824 1.0988 157.947 0.970805 156.063L0.950806 150.291L0.972148 147.417C0.997481 146.457 1.12947 145.477 1.20681 144.512L1.79081 138.719C2.08148 136.795 2.53081 134.872 2.91347 132.964L3.52415 130.108C3.76148 129.164 4.08148 128.232 4.36015 127.297C4.94681 125.432 5.52014 123.571 6.14947 121.737C6.89214 119.941 7.68281 118.168 8.47481 116.411C11.8295 109.491 15.9521 103.031 20.9575 97.7335L22.7761 95.6961C23.4081 95.0535 24.0681 94.4481 24.7121 93.8268C26.0135 92.6001 27.2935 91.3508 28.6241 90.1881C31.3881 88.0348 34.0495 85.7401 36.9335 83.9201C42.5468 79.9668 48.5108 76.9881 54.4095 74.1695C60.3908 71.5615 66.3721 69.1881 72.4388 67.3255C84.5388 63.4788 96.6801 60.7255 108.8 58.4761C111.837 57.9455 114.848 57.3241 117.889 56.8735C120.92 56.3828 123.925 55.8028 126.957 55.3695C129.979 54.8841 133.008 54.4548 136.025 54.0055L145.079 52.6908L181.217 47.7508Z" fill="#ECECEC"/>
<path d="M236.599 501.273C232.489 502.329 228.621 502.961 224.849 503.399C222.961 503.648 221.132 503.788 219.283 503.949C217.468 504.055 215.624 504.157 213.841 504.192C210.244 504.333 206.743 504.236 203.249 504.121C189.369 503.571 176.108 501.447 163.029 499.424L158.393 498.727L156.336 498.421L154.235 498.263C152.831 498.125 151.367 498.168 149.916 498.135C148.444 498.195 146.972 498.255 145.464 498.372C143.961 498.501 142.464 498.644 140.932 498.885C139.42 499.104 137.888 499.345 136.351 499.647C133.297 500.269 130.173 500.933 127.097 501.795C114.643 505.083 102.335 509.952 88.604 513.096C81.6987 514.545 74.288 515.615 66.42 514.775C62.476 514.459 58.54 513.451 54.664 512.188C52.768 511.477 50.8294 510.767 49.0254 509.848C48.1054 509.396 47.164 508.965 46.276 508.485L43.6587 506.944C40.168 504.844 37.0254 502.381 34.0347 499.789C32.512 498.476 31.064 496.873 29.584 495.371C28.1427 493.823 26.944 492.155 25.6227 490.505C24.3427 488.852 23.32 487.117 22.1894 485.365C21.6107 484.495 21.156 483.605 20.688 482.72L19.2694 480.029L18.576 478.671L17.9934 477.297L16.848 474.531C16.016 472.693 15.4494 470.84 14.844 468.959C12.4734 461.487 11.2054 453.895 10.7907 446.392C10.436 438.895 10.8707 431.469 12.0067 424.221C13.1587 416.981 15.148 409.939 17.7107 403.151C18.3707 401.46 19.0667 399.785 19.7667 398.123C20.4974 396.464 21.3267 394.839 22.1134 393.215C22.884 391.583 23.7534 389.985 24.6494 388.421C25.54 386.844 26.4054 385.276 27.4014 383.745C31.1774 377.613 35.5854 371.859 40.2534 366.477C44.9547 361.113 49.9654 356.105 55.3627 351.653C60.724 347.185 66.3387 343.153 72.312 339.832C78.2894 336.523 84.6454 333.975 91.2947 332.536C98.0054 331.103 105.143 331.275 111.933 333.016C118.725 334.727 125.168 337.737 131.261 341.227C143.431 348.311 154.605 357.113 164.891 366.372C170.049 371.023 174.893 375.867 179.496 380.832C180.141 381.577 180.507 381.781 180.928 382.167L182.133 383.215C183.061 383.837 183.773 384.571 184.743 385.148L186.063 386.08C186.547 386.369 187.039 386.64 187.489 386.957C188.376 387.58 189.491 388.088 190.425 388.693C194.545 390.968 199.232 393.185 204.624 395.332L213.12 398.677L217.669 400.457L222.416 402.42C225.631 403.72 229.012 405.344 232.452 407.045C235.915 408.881 239.495 410.875 243.089 413.393C246.708 415.976 250.343 418.824 253.728 422.488C257.091 426.088 260.229 430.233 262.607 434.828L263.531 436.529L264.317 438.284C264.824 439.456 265.36 440.631 265.816 441.821C266.591 444.184 267.463 446.611 267.905 448.971L268.653 452.536L269.101 456.001C269.444 458.357 269.463 460.548 269.544 462.788C269.571 463.383 269.587 463.836 269.591 464.524C269.58 465.435 269.533 466.328 269.476 467.228C269.417 468.989 269.077 470.916 268.663 472.8C268.563 473.255 268.456 473.727 268.332 474.191L267.885 475.613C267.569 476.553 267.232 477.473 266.881 478.397C266.084 480.183 265.155 481.961 264.129 483.563C263.593 484.341 263.053 485.109 262.492 485.856C262.207 486.239 261.921 486.62 261.635 486.96L260.748 487.947C260.16 488.588 259.549 489.211 258.927 489.837C258.317 490.459 257.717 490.919 257.091 491.46C256.48 491.967 255.844 492.483 255.219 492.952L253.395 494.197C252.784 494.589 252.148 495.033 251.555 495.361L249.788 496.34C245.044 498.816 240.703 500.205 236.599 501.273Z" fill="#ECECEC"/>
<path d="M425.733 159.011C424.951 154.47 424.696 150.154 424.816 145.989C424.936 137.643 426.816 130.003 428.876 122.559C430.967 115.101 433.508 107.853 436.68 100.861C439.913 93.8981 443.853 87.2208 448.756 81.1008C453.673 74.9955 459.328 69.2661 466.08 64.3635C472.861 59.5515 481.283 56.0181 490.516 54.6341C495.117 53.9581 499.915 53.8221 504.591 54.3488C509.253 54.9048 513.764 56.0928 517.704 57.8821C521.675 59.6421 525.057 61.8821 527.991 64.2581C530.937 66.6488 533.479 69.1755 535.945 71.7168C537.239 73.1301 538.396 74.6501 539.419 76.2888C540.381 77.9581 541.179 79.7168 541.869 81.5515C543.148 85.2208 543.96 89.1315 544.487 93.1155C545.539 101.086 545.765 109.613 544.757 117.778C543.749 125.943 541.223 133.553 537.253 140.049C533.284 146.545 528.08 152.063 521.945 156.47C515.84 160.921 508.667 164.109 501.644 167.011C494.516 169.838 487.613 172.501 481.057 175.598C474.38 178.59 468.155 182.139 460.169 184.621C458.155 185.222 456.019 185.779 453.628 186.034C451.268 186.335 448.665 186.395 445.839 185.914C442.801 185.402 439.163 183.703 436.485 181.358C435.839 180.771 435.147 180.139 434.591 179.507C434.033 178.877 433.477 178.23 432.951 177.553C432.033 176.275 431.117 174.891 430.471 173.613C429.719 172.259 429.221 171.057 428.665 169.733C428.215 168.53 427.703 167.207 427.388 166.049L426.861 164.23L426.425 162.47C426.139 161.282 425.944 160.17 425.733 159.011Z" fill="#ECECEC"/>
</g>
<path d="M133.612 547.671C143.856 557.915 160.465 557.915 170.708 547.671C180.952 537.427 180.952 520.819 170.708 510.575C160.465 500.331 143.856 500.331 133.612 510.575C123.368 520.819 123.368 537.427 133.612 547.671Z" fill="#ECECEC"/>
<path d="M161.703 513.561C161.796 514.786 161.418 516.05 160.734 517.122C160.052 518.205 159.028 519.07 157.882 519.641C156.708 520.201 155.276 520.4 154.03 519.969C152.787 519.574 151.746 518.748 151.095 517.713C152.087 518.414 153.158 518.918 154.243 519.101C154.784 519.189 155.327 519.201 155.852 519.102C156.383 519.041 156.89 518.836 157.38 518.612C157.626 518.489 157.875 518.356 158.114 518.216C158.342 518.057 158.583 517.916 158.796 517.738C159.255 517.421 159.634 517.009 160.015 516.594C160.746 515.737 161.323 514.716 161.703 513.561Z" fill="#C8C8C8"/>
<path d="M152.274 515.07C152.135 514.224 152.362 513.326 152.819 512.562C153.278 511.794 153.985 511.159 154.794 510.767C155.621 510.359 156.659 510.247 157.53 510.57C158.402 510.871 159.105 511.486 159.494 512.243C158.765 511.82 158.031 511.528 157.318 511.438C156.603 511.336 155.933 511.502 155.297 511.796C153.977 512.432 152.939 513.52 152.274 515.07Z" fill="#C8C8C8"/>
<path d="M152.156 541.451C152.492 542.214 152.489 543.121 152.224 543.95C151.953 544.782 151.416 545.546 150.708 546.074C149.993 546.635 149.012 546.913 148.124 546.77C147.24 546.639 146.454 546.202 145.925 545.563C146.712 545.799 147.468 545.923 148.166 545.878C148.868 545.831 149.473 545.569 150.012 545.163C150.572 544.743 151.041 544.215 151.405 543.598C151.761 542.974 152.017 542.261 152.156 541.451Z" fill="#C8C8C8"/>
<path d="M146.726 544.428C146.419 543.915 146.386 543.269 146.546 542.669C146.716 542.068 147.096 541.515 147.6 541.136C148.115 540.731 148.842 540.533 149.476 540.661C150.108 540.785 150.647 541.129 150.967 541.629C150.391 541.533 149.88 541.495 149.434 541.561C148.988 541.624 148.634 541.795 148.295 542.047C147.582 542.592 147.067 543.315 146.726 544.428Z" fill="#C8C8C8"/>
<path d="M142.705 517.855C143.165 518.261 143.43 518.876 143.453 519.539C143.47 520.208 143.203 520.896 142.71 521.392C142.209 521.929 141.425 522.133 140.79 522.051C140.143 521.973 139.569 521.699 139.141 521.261C139.746 521.255 140.291 521.252 140.77 521.149C141.251 521.055 141.621 520.877 141.895 520.587C142.195 520.284 142.43 519.896 142.559 519.447C142.699 518.989 142.729 518.459 142.705 517.855Z" fill="#C8C8C8"/>
<path d="M139.455 520.402C139.072 520.155 138.844 519.726 138.803 519.24C138.768 518.75 138.953 518.234 139.321 517.866C139.699 517.46 140.299 517.318 140.755 517.402C141.223 517.483 141.617 517.714 141.881 518.083C141.441 518.159 141.075 518.204 140.775 518.303C140.472 518.396 140.287 518.512 140.135 518.671C139.963 518.846 139.808 519.062 139.696 519.332C139.576 519.611 139.508 519.959 139.455 520.402Z" fill="#C8C8C8"/>
<path d="M160.931 545.502C160.648 546.048 160.118 546.456 159.48 546.638C158.835 546.82 158.103 546.729 157.502 546.372C156.858 546.017 156.468 545.305 156.395 544.67C156.312 544.024 156.438 543.401 156.758 542.877C156.911 543.464 157.047 543.992 157.263 544.432C157.474 544.874 157.735 545.189 158.084 545.385C158.451 545.602 158.883 545.734 159.352 545.75C159.828 545.774 160.351 545.673 160.931 545.502Z" fill="#C8C8C8"/>
<path d="M157.667 542.973C157.812 542.542 158.174 542.215 158.634 542.057C159.1 541.903 159.647 541.958 160.094 542.223C160.579 542.49 160.864 543.038 160.894 543.501C160.928 543.974 160.802 544.413 160.508 544.759C160.327 544.351 160.192 544.006 160.024 543.739C159.86 543.47 159.702 543.318 159.512 543.21C159.3 543.085 159.052 542.989 158.763 542.946C158.463 542.897 158.108 542.915 157.667 542.973Z" fill="#C8C8C8"/>
<path d="M169.917 527.046C169.99 527.655 169.781 528.291 169.357 528.802C168.926 529.314 168.269 529.651 167.57 529.693C166.839 529.762 166.117 529.393 165.698 528.909C165.266 528.422 165.019 527.835 164.99 527.223C165.446 527.621 165.855 527.981 166.282 528.223C166.705 528.471 167.098 528.585 167.497 528.55C167.922 528.523 168.355 528.39 168.751 528.139C169.158 527.89 169.534 527.514 169.917 527.046Z" fill="#C8C8C8"/>
<path d="M165.795 526.791C165.673 526.353 165.789 525.879 166.079 525.491C166.379 525.1 166.862 524.837 167.381 524.807C167.931 524.753 168.475 525.045 168.761 525.413C169.055 525.784 169.197 526.219 169.149 526.669C168.77 526.433 168.466 526.225 168.177 526.099C167.889 525.968 167.673 525.932 167.454 525.949C167.209 525.965 166.95 526.024 166.686 526.152C166.411 526.28 166.129 526.495 165.795 526.791Z" fill="#C8C8C8"/>
<path d="M135.173 532.987C135.246 533.597 135.037 534.232 134.613 534.743C134.182 535.255 133.525 535.592 132.826 535.633C132.096 535.703 131.373 535.333 130.954 534.849C130.522 534.363 130.276 533.776 130.246 533.164C130.702 533.561 131.112 533.921 131.538 534.164C131.961 534.412 132.354 534.525 132.753 534.491C133.178 534.464 133.61 534.331 134.006 534.08C134.414 533.831 134.79 533.455 135.173 532.987Z" fill="#C8C8C8"/>
<path d="M131.052 532.731C130.929 532.292 131.045 531.819 131.336 531.43C131.636 531.039 132.117 530.778 132.637 530.747C133.188 530.694 133.732 530.986 134.017 531.354C134.312 531.724 134.453 532.159 134.405 532.61C134.026 532.374 133.721 532.164 133.433 532.039C133.144 531.908 132.929 531.871 132.71 531.89C132.465 531.904 132.206 531.964 131.942 532.092C131.668 532.22 131.385 532.435 131.052 532.731Z" fill="#C8C8C8"/>
<path d="M526.422 62.7533L526.544 53.7226L532.532 60.4213L538.999 58.408L535.836 64.156L538.878 67.3506L534.176 67.8226L534.092 73.9253L528.919 69.6293L524.714 73.1266L525.186 67.968L519.054 65.1346L526.422 62.7533Z" fill="#696CFF"/>
<path d="M520.745 521.727L529.026 525.333L520.533 528.265L519.89 535.007L515.812 529.867L511.69 531.438L513.072 526.919L507.476 524.483L513.438 521.373L511.838 516.142L516.413 518.571L521.397 514.011L520.745 521.727Z" fill="#696CFF"/>
<path d="M108.537 539.637L100.381 550.884L98.7876 537.154L88.8729 533.957L97.9436 529.533L96.9476 522.822L103.278 526.393L108.79 518.794L111.489 528.78L119.876 528.108L114.712 534.176L119.912 543.17L108.537 539.637Z" fill="#696CFF"/>
<path d="M478.798 437.86L483.632 447.492L488.421 438.285L497.56 439.858L492.698 430.173L499.486 423.709L489.882 424.052L487.96 414.646L482.89 424.389L470.106 423.418L477.644 431.201L470.662 436.542L478.798 437.86Z" fill="#696CFF"/>
<path d="M255.584 62.5201L257.904 58.6214L253.552 59.0108L252.038 55.4121L249.706 59.3334L245.874 58.3921L248.174 61.7201L245.274 64.5361L249.879 64.1241L252.434 68.8774L253.484 64.4401L256.962 65.7041L255.584 62.5201Z" fill="#696CFF"/>
<path d="M509.32 267.983L508.515 265.431L506.977 267.499L504.799 266.754L505.609 269.321L503.689 270.637L506.059 270.933L506.159 273.314L507.785 271.125L510.881 271.867L509.341 269.662L511.263 268.627L509.32 267.983Z" fill="#696CFF"/>
<path d="M543.941 417.372L545.935 415.587L543.417 415.038L543.199 412.746L541.194 414.54L539.203 413.334L539.91 415.614L537.781 416.686L540.446 417.267L541.045 420.395L542.419 418.082L544.154 419.408L543.941 417.372Z" fill="#696CFF"/>
<path d="M486.879 106.87L488.874 105.085L486.355 104.535L486.138 102.243L484.133 104.038L482.142 102.831L482.849 105.111L480.719 106.185L483.385 106.766L483.983 109.893L485.359 107.579L487.093 108.906L486.879 106.87Z" fill="#696CFF"/>
<path d="M133.581 474.267L133.684 471.593L131.539 473.022L129.739 471.585L129.637 474.275L127.385 474.867L129.516 475.943L128.808 478.221L131.077 476.707L133.743 478.45L133.035 475.854L135.193 475.529L133.581 474.267Z" fill="#696CFF"/>
<path d="M184.067 38.0868L182.703 35.7841L181.675 38.1481L179.384 37.9161L180.756 40.2308L179.185 41.9494L181.56 41.6988L182.199 43.9961L183.285 41.4948L186.469 41.5148L184.468 39.7161L186.105 38.2721L184.067 38.0868Z" fill="#696CFF"/>
<path d="M57.6132 399.314L61.4839 391.837L53.4639 393.036L50.2639 386.536L46.3732 394.056L39.1692 392.732L43.7945 398.648L38.7319 404.18L47.2185 402.912L52.4732 411.44L53.9332 403.101L60.5159 405.062L57.6132 399.314Z" fill="#696CFF"/>
<path d="M96.3507 252.785L101.967 253.935L99.696 248.903L103.363 245.602L97.7147 244.445L97.248 239.479L94.228 243.606L89.6654 241.314L92.068 246.639L87.4534 251.663L93.188 251.075L93.1214 255.751L96.3507 252.785Z" fill="#696CFF"/>
<path d="M111.627 89.5793C111.181 89.0553 85.5841 77.1793 62.4028 94.8713C41.0895 111.138 33.6895 141.707 36.5201 142.438C39.9841 143.333 49.4801 128.745 67.7068 120.73C74.1708 117.889 84.4601 120.727 84.4601 120.727L111.627 89.5793Z" fill="#696CFF"/>
<g opacity="0.100006">
<path d="M84.4629 120.727C84.4629 120.727 80.0003 119.494 75.1083 119.468C79.1243 111.056 86.6309 95.3604 91.5029 85.1977C102.972 85.3017 111.372 89.2804 111.626 89.5777L84.4629 120.727Z" fill="black"/>
</g>
<path d="M153.795 139.316C154.24 139.84 161.768 167.036 140.523 187.01C120.988 205.376 89.6217 207.676 89.3631 204.764C89.0457 201.2 104.992 194.218 115.88 177.548C119.74 171.637 118.622 161.021 118.622 161.021L153.795 139.316Z" fill="#696CFF"/>
<g opacity="0.100006">
<path d="M154.806 160.025C143.894 163.204 127.155 168.073 118.307 170.644C119.121 165.745 118.626 161.021 118.626 161.021L153.797 139.316C154.049 139.613 156.622 148.629 154.806 160.025Z" fill="black"/>
</g>
<path d="M94.1967 172.563L69.1967 143.075C69.1967 143.075 82.234 108.114 113.225 84.6272C128.701 72.9139 146.855 64.1446 163.109 58.3432C185.537 50.3032 204.307 47.9726 207.214 51.4006C210.133 54.8446 204.751 72.9646 193.163 93.7912C184.767 108.862 173.147 125.337 159.059 138.689C130.821 165.421 94.1967 172.563 94.1967 172.563Z" fill="#C8C8C8"/>
<path d="M154.931 126.062C145.541 134.025 131.473 132.866 123.51 123.474C115.547 114.084 116.706 100.016 126.097 92.053C135.489 84.0904 149.557 85.249 157.519 94.6397C165.481 104.032 164.323 118.1 154.931 126.062Z" fill="#A8A8A8"/>
<path d="M156.15 123.99C146.758 131.952 132.69 130.794 124.728 121.403C116.766 112.011 117.924 97.9431 127.316 89.9804C136.708 82.0177 150.776 83.1764 158.738 92.5684C166.7 101.959 165.542 116.027 156.15 123.99Z" fill="#696CFF"/>
<path d="M151.741 118.772C145.232 124.298 135.474 123.502 129.946 116.993C124.42 110.484 125.216 100.726 131.725 95.1985C138.234 89.6718 147.993 90.4678 153.52 96.9771C159.046 103.486 158.25 113.245 151.741 118.772Z" fill="white"/>
<path d="M151.744 118.772C150.24 120.05 148.557 120.995 146.796 121.6L134.376 120.587C132.737 119.703 131.231 118.499 129.953 116.994C129.024 115.9 128.279 114.715 127.708 113.472L154.529 115.662C153.765 116.795 152.839 117.843 151.744 118.772Z" fill="#ECECEC"/>
<path d="M154.86 98.8179L130.104 96.7979C130.595 96.2352 131.138 95.6979 131.723 95.2005C138.236 89.6699 147.991 90.4659 153.522 96.9792C154.019 97.5645 154.467 98.1832 154.86 98.8179Z" fill="#ECECEC"/>
<path d="M156.199 112.453L126.582 110.036C126.484 109.582 126.415 109.13 126.368 108.661L156.632 111.13C156.511 111.573 156.362 112.014 156.199 112.453Z" fill="#ECECEC"/>
<path d="M193.163 93.7917L163.108 58.3437C185.538 50.3037 204.307 47.9731 207.214 51.4011C210.132 54.8437 204.751 72.9651 193.163 93.7917Z" fill="#696CFF"/>
<path d="M171.944 61.3406C171.396 61.8059 170.574 61.7379 170.109 61.1899C169.645 60.6419 169.712 59.8206 170.261 59.3552C170.809 58.8899 171.629 58.9579 172.094 59.5059C172.56 60.0552 172.492 60.8752 171.944 61.3406Z" fill="white"/>
<path d="M177.29 67.6467C176.742 68.1121 175.921 68.0441 175.456 67.4961C174.992 66.9481 175.058 66.1267 175.608 65.6614C176.156 65.1974 176.977 65.2641 177.441 65.8121C177.906 66.3601 177.838 67.1827 177.29 67.6467Z" fill="white"/>
<path d="M182.637 73.9527C182.089 74.4167 181.268 74.35 180.802 73.802C180.338 73.254 180.405 72.4327 180.954 71.9674C181.502 71.5034 182.322 71.57 182.788 72.118C183.253 72.666 183.185 73.4874 182.637 73.9527Z" fill="white"/>
<path d="M187.983 80.2588C187.435 80.7241 186.614 80.6561 186.149 80.1081C185.685 79.5588 185.753 78.7388 186.301 78.2735C186.849 77.8095 187.67 77.8761 188.134 78.4241C188.599 78.9735 188.531 79.7935 187.983 80.2588Z" fill="white"/>
<path d="M193.33 86.5649C192.782 87.0303 191.961 86.9623 191.495 86.4143C191.031 85.8663 191.099 85.0449 191.647 84.5796C192.195 84.1143 193.017 84.1823 193.481 84.7303C193.946 85.2783 193.878 86.0996 193.33 86.5649Z" fill="white"/>
<path d="M76.4091 142.386C75.8611 142.851 75.0397 142.783 74.5744 142.235C74.1104 141.687 74.1771 140.866 74.7264 140.401C75.2744 139.937 76.0957 140.003 76.5597 140.551C77.0251 141.099 76.9571 141.921 76.4091 142.386Z" fill="#A8A8A8"/>
<path d="M81.7555 148.692C81.2075 149.157 80.3862 149.089 79.9222 148.541C79.4568 147.993 79.5248 147.172 80.0728 146.707C80.6208 146.241 81.4422 146.309 81.9062 146.857C82.3715 147.405 82.3035 148.227 81.7555 148.692Z" fill="#A8A8A8"/>
<path d="M87.1024 154.998C86.5544 155.463 85.7331 155.395 85.2678 154.847C84.8038 154.299 84.8704 153.478 85.4198 153.013C85.9678 152.549 86.7878 152.615 87.2531 153.163C87.7184 153.713 87.6504 154.533 87.1024 154.998Z" fill="#A8A8A8"/>
<path d="M92.4488 161.304C91.9008 161.77 91.0795 161.702 90.6141 161.154C90.1501 160.606 90.2181 159.784 90.7661 159.319C91.3141 158.855 92.1355 158.922 92.5995 159.47C93.0648 160.018 92.9968 160.839 92.4488 161.304Z" fill="#A8A8A8"/>
<path d="M97.7954 167.611C97.2474 168.076 96.426 168.008 95.962 167.46C95.4967 166.912 95.5647 166.091 96.1127 165.625C96.6607 165.16 97.482 165.228 97.946 165.776C98.4114 166.324 98.3434 167.145 97.7954 167.611Z" fill="#A8A8A8"/>
<g opacity="0.199997">
<path d="M205.806 50.5242C188.495 51.7562 158.528 62.2469 126.975 86.9869C103.667 105.262 86.6604 137.244 78.7337 154.324L69.1951 143.075C69.1951 143.075 82.2311 108.112 113.224 84.6282C128.699 72.9122 146.855 64.1455 163.108 58.3455C183.212 51.1335 200.367 48.5202 205.806 50.5242Z" fill="white"/>
</g>
<path d="M83.0291 177.366L62.6998 153.384L70.6064 144.744L92.8478 170.978L83.0291 177.366Z" fill="#696CFF"/>
<g opacity="0.100006">
<path d="M92.8457 170.977L88.0617 174.085L67.5817 148.049L70.6057 144.748L92.8457 170.977Z" fill="black"/>
</g>
<g opacity="0.600006">
<path d="M78.558 172.013C69.1354 178.367 60.814 186.478 54.738 196.161C48.6607 205.807 44.8887 217.047 44.5407 228.673C44.3914 234.473 45.094 240.337 46.6647 246.023C48.2314 251.711 50.6687 257.217 53.858 262.323C57.0447 267.435 60.9767 272.145 65.4394 276.354C69.902 280.569 74.8874 284.286 80.1927 287.541C74.55 284.925 69.1034 281.783 64.046 278.015C58.9914 274.251 54.33 269.853 50.3234 264.834C46.3154 259.823 42.97 254.193 40.5114 248.129C38.0474 242.069 36.4754 235.585 35.8754 228.967C34.7074 215.71 37.506 202.097 43.306 189.958C49.09 177.771 57.7714 167.041 68.01 158.246L78.558 172.013Z" fill="#696CFF"/>
</g>
<path d="M62.4402 186.467L58.7322 187.152L57.9042 191.062L57.0748 187.152L53.3668 186.466L57.0588 185.563L57.9042 181.871L58.7482 185.563L62.4402 186.467Z" fill="white"/>
<path d="M48.7934 259.665L46.7214 260.049L46.2574 262.233L45.7947 260.049L43.7227 259.664L45.7854 259.16L46.2574 257.096L46.7294 259.16L48.7934 259.665Z" fill="white"/>
<path d="M47.6808 240.703L45.6075 241.085L45.1448 243.271L44.6822 241.085L42.6088 240.701L44.6728 240.197L45.1448 238.133L45.6168 240.197L47.6808 240.703Z" fill="white"/>
<path d="M59.6992 174.283L57.6272 174.667L57.1632 176.851L56.7005 174.667L54.6285 174.282L56.6912 173.778L57.1632 171.714L57.6352 173.778L59.6992 174.283Z" fill="white"/>
<path d="M53.6962 264.39C52.9228 264.39 52.9215 265.592 53.6962 265.592C54.4695 265.592 54.4708 264.39 53.6962 264.39Z" fill="white"/>
<path d="M70.845 171.354C70.0716 171.354 70.0703 172.555 70.845 172.555C71.6183 172.555 71.6196 171.354 70.845 171.354Z" fill="white"/>
<path d="M38.4979 224.933C37.7246 224.933 37.7233 226.134 38.4979 226.134C39.2713 226.134 39.2726 224.933 38.4979 224.933Z" fill="white"/>
<path d="M52.6268 261.264C52.0801 261.264 52.0788 262.115 52.6268 262.115C53.1735 262.115 53.1748 261.264 52.6268 261.264Z" fill="white"/>
<path d="M38.2792 203.94C37.7325 203.94 37.7312 204.791 38.2792 204.791C38.8259 204.791 38.8272 203.94 38.2792 203.94Z" fill="white"/>
<path d="M42.6093 247.412C41.1267 247.412 41.124 249.716 42.6093 249.716C44.092 249.716 44.0933 247.412 42.6093 247.412Z" fill="white"/>
<path d="M43.722 200.032C42.2393 200.032 42.2367 202.336 43.722 202.336C45.2047 202.336 45.2073 200.032 43.722 200.032Z" fill="white"/>
<path d="M402.663 425.271C402.663 425.271 409.757 462.491 389.529 480.367C369.301 498.243 347.697 502.947 302.283 493.539C256.87 484.131 226.998 472.135 208.723 488.835C208.723 488.835 205.125 494.793 215.787 506.711C226.45 518.628 238.931 546.047 213.142 565.984C182.717 589.504 136.449 564.416 128.291 519.568C120.134 474.721 153.775 419.704 222.101 422.751C290.427 425.799 310.813 439.457 323.67 439.84C336.529 440.224 338.477 429.028 338.477 429.028L402.663 425.271Z" fill="#2B454E"/>
<path d="M212.18 502.477C188.323 500.097 165.555 505.83 150.198 525.194C145.264 531.17 141.38 537.917 137.935 544.869C140.424 537.481 143.803 530.263 148.554 523.917C163.175 503.425 188.376 496.819 212.18 502.477Z" fill="#1A2E35"/>
<path d="M219.895 482.375C211.819 460.108 192.734 448.156 169.298 449.147C162.017 449.38 154.722 450.491 147.489 452.067C154.426 449.497 161.711 447.661 169.19 447.068C193.105 444.729 214.761 458.375 219.895 482.375Z" fill="#1A2E35"/>
<path d="M208.724 488.835C187.663 474.549 162.961 475.685 141.393 488.092C138.729 489.815 134.592 492.171 132.138 494.148C130.656 495.257 129.15 496.345 127.622 497.42C138.09 486.747 151.573 478.453 166.648 476.345C181.531 474.264 197.659 478.596 208.724 488.835Z" fill="#1A2E35"/>
<path d="M231.656 480.521C233.997 461.627 230.133 440.369 214.334 428.182C212.193 426.425 209.854 424.913 207.476 423.397C210.112 424.379 212.676 425.61 215.096 427.117C232.757 437.906 237.646 461.737 231.656 480.521Z" fill="#1A2E35"/>
<path d="M246.295 481.532C256.458 465.756 259.41 448.095 250.151 431.15C249.1 428.855 247.51 426.626 246.295 424.415C247.967 426.292 249.907 428.335 251.274 430.475C262.788 446.552 259.75 467.65 246.295 481.532Z" fill="#1A2E35"/>
<path d="M264.742 485.048C272.685 478.45 278.315 468.964 280.881 459.047C283.519 448.895 281.455 438.344 276.709 429.028C283.493 437.42 286.185 449.131 283.47 459.679C280.726 470.003 274.266 479.938 264.742 485.048Z" fill="#1A2E35"/>
<path d="M287.92 490.396C301.64 480.114 310.012 464.768 308.661 447.448C308.303 443.42 307.604 439.864 306.804 435.916C307.761 438.31 308.905 440.822 309.483 443.352C314.849 461.976 305.271 482.116 287.92 490.396Z" fill="#1A2E35"/>
<path d="M317.963 496.365C321.731 493.072 323.28 487.998 324.867 483.406C329.021 469.258 329.984 453.533 323.671 439.841C332.936 452.398 332.164 470.053 326.821 484.097C324.847 488.668 322.516 493.876 317.963 496.365Z" fill="#1A2E35"/>
<path d="M350.341 497.838C353.472 479.875 350.031 457.885 337.913 443.767C336.129 441.698 334.133 439.803 332.024 437.981C334.469 439.315 336.745 440.978 338.851 442.854C352.849 455.593 357.031 480.531 350.341 497.838Z" fill="#1A2E35"/>
<path d="M337.075 432.743C361.316 438.916 381.384 461.656 380.631 487.267C377.015 461.814 360.096 443.056 337.075 432.743Z" fill="#1A2E35"/>
<path d="M338.477 429.029C363.281 425.245 390.926 437.993 400.977 461.625C387.089 439.962 363.737 429.486 338.477 429.029Z" fill="#1A2E35"/>
<g opacity="0.100006">
<path d="M402.674 454.54C378.597 462.703 339.426 475.533 332.693 474.996C325.45 474.416 232.65 460.723 228.095 458.063C224.361 455.869 198.19 438.103 183.35 428.001C194.654 424.069 207.597 422.103 222.097 422.753C290.423 425.795 310.809 439.46 323.667 439.843C336.526 440.224 338.478 429.035 338.478 429.035L402.659 425.272C402.659 425.272 405.375 439.475 402.674 454.54Z" fill="black"/>
</g>
<path d="M205.359 252.918C205.359 252.918 195.715 252.448 192.658 252.918C189.601 253.389 184.661 255.976 184.661 255.976C184.661 255.976 171.959 247.273 160.434 249.861C148.909 252.448 131.503 275.498 129.622 294.316C127.739 313.132 128.915 358.998 139.501 378.285C150.085 397.573 222.53 450.025 233.114 454.729C243.699 459.433 308.398 468.136 333.322 467.665C358.246 467.196 427.392 424.025 445.039 406.746C456.328 395.692 461.974 341.122 462.208 330.068C462.444 319.013 445.979 283.261 445.979 283.261L205.359 252.918Z" fill="#C8C8C8"/>
<g opacity="0.100006">
<path d="M462.216 330.067C461.975 341.13 456.331 395.691 445.043 406.74C427.388 424.027 358.241 467.2 333.315 467.668C308.404 468.135 243.699 459.435 233.117 454.724C222.536 450.027 150.079 397.574 139.497 378.292C133.287 366.988 130.331 346.562 129.312 327.79C130.967 339.375 144.844 368.234 149.372 374.402C153.927 380.598 225.436 433.335 239.865 436.603C254.28 439.87 324.573 445.727 338.04 445.628C351.508 445.515 431.009 403.84 437.984 397.078C444.957 390.316 459.697 352.616 462.216 330.067Z" fill="black"/>
</g>
<path d="M208.574 249.233C208.574 249.233 188.188 216.931 189.13 202.191C190.071 187.451 232.722 138.841 249.343 125.983C265.966 113.125 304.854 106.225 318.026 106.225C331.196 106.225 368.742 120.675 368.742 120.675C368.742 120.675 373.07 110.585 376.984 88.6627C378.816 78.4 447.234 115.007 444.098 175.533C444.098 175.533 460.092 234.399 461.034 242.287C461.974 250.175 440.02 278.4 440.02 278.4C440.02 278.4 420.464 286.721 393.195 292.177C365.043 297.808 332.843 301.607 291.682 292.512C231.303 279.172 208.574 249.233 208.574 249.233Z" fill="#696CFF"/>
<path d="M226.188 148.583C226.449 134.451 214.689 99.7963 211.709 95.2483C208.731 90.7017 251.437 81.2657 293.199 109.426L226.188 148.583Z" fill="#696CFF"/>
<g opacity="0.100006">
<path d="M234.217 143.891C234.217 143.891 231.351 115.202 221.001 101.678C219.272 99.4194 250.637 100.434 277.569 119.294C277.569 119.294 267.015 124.903 259.659 129.025C259.659 129.025 254.129 126.317 249.872 126.122C245.615 125.927 238.812 128.19 238.812 128.19C238.812 128.19 246.871 129.811 248.936 131.17C251.003 132.529 252.328 134.678 252.328 134.678C252.328 134.678 248.836 132.862 247.147 132.638C245.457 132.413 242.739 133.334 242.739 133.334C242.739 133.334 246.592 133.518 248.525 136.255C248.525 136.255 237.349 142.061 234.217 143.891Z" fill="black"/>
</g>
<g opacity="0.100006">
<path d="M374.24 124.435C374.24 124.435 379.483 106.953 380.944 95.2679C381.296 92.4453 418.93 114.32 417.402 153.836C417.402 153.836 403.111 142.076 395.819 137.841C395.819 137.841 396.172 129.963 394.174 126.199C392.174 122.435 386.764 117.731 386.764 117.731C386.764 117.731 389.468 125.493 389.351 127.963C389.234 130.432 388.058 132.667 388.058 132.667C388.058 132.667 387.843 128.737 387.176 127.169C386.511 125.601 384.334 123.729 384.334 123.729C384.334 123.729 386.136 127.14 384.764 130.197C384.764 130.197 380.532 126.257 374.24 124.435" fill="black"/>
</g>
<g opacity="0.100006">
<path d="M440.02 278.405C440.02 278.405 420.47 286.722 393.196 292.184C365.046 297.813 332.848 301.605 291.683 292.509C233.188 279.58 210.031 251.089 208.644 249.32C213.708 254.61 250.856 276.41 260.038 279.452C269.26 282.508 320.966 290.274 342.864 287.445C364.762 284.629 423.314 270.285 427.318 267.229C431.32 264.16 440.94 239.998 442.595 233.392C444.264 226.772 436.356 173.553 436.356 173.553C436.356 173.553 445.35 124.43 392.135 91.0663C412.619 101.761 446.315 132.642 444.095 175.533C444.095 175.533 460.094 234.396 461.027 242.289C461.975 250.169 440.02 278.405 440.02 278.405Z" fill="black"/>
</g>
<path d="M247.029 171.007C235.935 168.275 227.627 177.979 224.44 190.921C221.86 201.403 225.811 213.727 236.459 216.349C247.107 218.97 256.789 208.013 259.212 198.171C261.635 188.329 259.077 173.973 247.029 171.007Z" fill="#1A2E35"/>
<path d="M247.429 173.983C237 171.415 229.19 180.536 226.196 192.702C223.77 202.554 227.484 214.139 237.493 216.603C247.502 219.067 256.604 208.767 258.881 199.516C261.158 190.266 258.753 176.771 247.429 173.983Z" fill="white"/>
<path d="M249.227 179.06C241.063 177.051 234.95 184.191 232.606 193.714C230.707 201.426 233.614 210.495 241.45 212.423C249.285 214.352 256.409 206.29 258.191 199.048C259.975 191.806 258.093 181.243 249.227 179.06Z" fill="#1A2E35"/>
<path d="M331.461 188.222C346.307 187.485 354.341 198.509 355.002 211.82C355.537 222.601 347.271 234.048 333.023 234.756C318.774 235.464 309.319 222.962 308.817 212.84C308.314 202.716 315.339 189.022 331.461 188.222Z" fill="#1A2E35"/>
<path d="M330.171 191.084C344.125 190.391 351.677 200.753 352.299 213.265C352.801 223.4 345.033 234.159 331.639 234.824C318.245 235.489 309.359 223.739 308.885 214.224C308.413 204.708 315.017 191.836 330.171 191.084Z" fill="white"/>
<path d="M330.805 193.629C342.199 193.064 348.363 201.522 348.871 211.738C349.281 220.012 342.939 228.796 332.004 229.338C321.069 229.882 313.815 220.289 313.428 212.52C313.043 204.752 318.435 194.244 330.805 193.629Z" fill="#1A2E35"/>
<path d="M284.003 207.556C283.646 208.936 274.512 213.002 273.538 212.871C272.578 212.742 264.692 206.383 264.656 204.95C264.619 203.532 272.551 204.071 274.559 204.342C276.58 204.615 284.372 206.194 284.003 207.556Z" fill="#1A2E35"/>
<path d="M257.033 214.087C258.141 216.263 259.278 218.418 260.587 220.42C261.251 221.404 261.937 222.398 262.742 223.132C263.129 223.492 263.595 223.762 263.854 223.776C264.118 223.786 264.626 223.655 265.011 223.404C265.853 222.908 266.59 222.024 267.277 221.13C267.954 220.21 268.566 219.212 269.126 218.176C270.247 216.118 271.273 213.924 272.103 211.739L273.645 207.684L274.515 211.94C275.089 214.744 275.918 217.59 276.961 220.254C277.486 221.587 278.091 222.883 278.834 224.046C279.589 225.172 280.465 226.255 281.531 226.686L281.93 226.816L282.339 226.884C282.647 226.9 282.963 226.892 283.283 226.858C283.923 226.78 284.579 226.603 285.219 226.346C286.509 225.836 287.727 225.047 288.894 224.183C291.221 222.428 293.322 220.312 295.283 218.07C293.727 220.619 291.861 222.994 289.637 225.075C288.522 226.112 287.283 227.05 285.861 227.771C284.433 228.452 282.79 229.028 280.897 228.466C279.129 227.851 277.967 226.543 277.038 225.266C276.121 223.956 275.407 222.571 274.782 221.163C273.558 218.327 272.718 215.436 272.046 212.427L274.458 212.628C273.506 214.967 272.469 217.196 271.17 219.356C270.517 220.43 269.802 221.478 268.983 222.476C268.154 223.466 267.21 224.422 265.895 225.084C265.214 225.398 264.502 225.631 263.554 225.496C262.607 225.27 262.09 224.714 261.625 224.228C260.739 223.206 260.13 222.114 259.577 220.996C258.499 218.759 257.667 216.451 257.033 214.087Z" fill="#1A2E35"/>
<path d="M219.336 197.518C213.186 196.374 207.012 195.437 200.82 194.642C194.629 193.855 188.429 193.137 182.204 192.706C179.098 192.409 175.982 192.242 172.87 192.038C169.753 191.894 166.637 191.75 163.518 191.663C157.28 191.421 151.037 191.507 144.778 191.534C147.894 191.285 151.016 191.014 154.142 190.886C157.27 190.774 160.401 190.678 163.533 190.695C169.797 190.666 176.058 191.002 182.305 191.453C188.546 191.99 194.774 192.693 200.958 193.687C204.049 194.187 207.13 194.747 210.201 195.35C213.26 196.018 216.322 196.67 219.336 197.518Z" fill="#1A2E35"/>
<path d="M216.419 200.853C213.603 200.687 210.793 200.512 207.978 200.405C205.166 200.264 202.353 200.151 199.539 200.071C193.914 199.897 188.289 199.765 182.663 199.823C179.851 199.788 177.039 199.841 174.226 199.871L165.791 200.135L161.574 200.296L157.361 200.552C154.543 200.645 151.745 200.961 148.925 201.099C154.494 200.217 160.105 199.535 165.739 199.168C171.37 198.755 177.018 198.604 182.662 198.565C188.307 198.613 193.954 198.727 199.586 199.108C205.217 199.481 210.842 199.993 216.419 200.853Z" fill="#1A2E35"/>
<path d="M217.635 204.539C215.287 204.683 212.945 204.815 210.605 205.008C208.263 205.171 205.925 205.34 203.589 205.557C198.918 205.983 194.247 206.393 189.589 206.923C184.929 207.428 180.273 207.985 175.622 208.589C170.966 209.169 166.327 209.879 161.663 210.491C163.946 209.932 166.241 209.416 168.542 208.924C170.85 208.479 173.158 208.02 175.477 207.631C180.109 206.799 184.779 206.207 189.454 205.672C194.133 205.172 198.825 204.792 203.526 204.596C208.226 204.395 212.935 204.296 217.635 204.539Z" fill="#1A2E35"/>
<path d="M360.067 229.544C363.948 229.586 367.823 229.858 371.697 230.122C375.565 230.455 379.429 230.843 383.285 231.306C390.997 232.235 398.668 233.502 406.295 234.984C413.904 236.548 421.487 238.267 428.959 240.398C432.705 241.422 436.412 242.583 440.112 243.762C441.965 244.338 443.792 244.999 445.619 245.654L451.093 247.631C443.652 245.423 436.236 243.178 428.709 241.334C424.96 240.362 421.188 239.483 417.42 238.592C413.635 237.778 409.859 236.918 406.051 236.218C398.468 234.636 390.821 233.394 383.159 232.262C375.493 231.139 367.799 230.198 360.067 229.544Z" fill="#1A2E35"/>
<path d="M362.419 234.513C369.357 235.435 376.238 236.757 383.078 238.238C389.923 239.714 396.699 241.485 403.449 243.35C410.175 245.295 416.863 247.386 423.451 249.761C430.058 252.082 436.533 254.767 442.907 257.646C439.599 256.497 436.371 255.158 433.049 254.07L428.111 252.318L423.137 250.677C419.823 249.573 416.487 248.543 413.161 247.486C409.813 246.494 406.475 245.474 403.105 244.559C396.403 242.599 389.642 240.851 382.861 239.178C379.471 238.334 376.071 237.53 372.663 236.761C369.261 235.961 365.843 235.233 362.419 234.513Z" fill="#1A2E35"/>
<path d="M359.72 238.5C365.395 239.86 370.972 241.599 376.504 243.452C382.036 245.314 387.495 247.382 392.922 249.53C398.306 251.78 403.688 254.043 408.951 256.564C411.594 257.802 414.199 259.116 416.81 260.416C419.399 261.759 421.97 263.138 424.523 264.547C419.19 262.182 413.904 259.738 408.551 257.447C403.219 255.114 397.856 252.848 392.451 250.696C387.079 248.456 381.63 246.412 376.182 244.36C373.463 243.323 370.722 242.34 367.978 241.37C365.24 240.371 362.484 239.434 359.72 238.5Z" fill="#1A2E35"/>
<path d="M237.349 156.196C241.771 150.456 250.625 148.723 257.072 151.835C250.133 152.576 243.98 153.646 237.349 156.196Z" fill="#1A2E35"/>
<path d="M358.934 177.237C353.497 172.668 348.025 169.651 341.706 166.692C348.815 165.848 356.622 170.371 358.934 177.237Z" fill="#1A2E35"/>
<path d="M280.648 271.995C277.857 268.128 275.356 263.93 274.008 259.515C273.901 259.163 273.352 259.17 273.229 259.532C272.897 260.516 271.961 263.282 271.829 263.704C271.727 263.439 271.623 263.174 271.533 262.911C271.221 262.002 270.955 261.08 270.731 260.151C270.28 258.28 269.975 256.378 269.835 254.463C269.696 252.552 269.715 250.63 269.907 248.71C270.099 246.776 270.515 244.882 270.863 242.962C270.877 242.879 270.727 242.844 270.688 242.927C269.813 244.782 269.316 246.792 268.972 248.738C268.632 250.663 268.473 252.6 268.492 254.532C268.512 256.495 268.715 258.446 269.12 260.366C269.331 261.358 269.589 262.342 269.893 263.315C270.184 264.246 270.464 265.236 271.088 266.047C271.496 266.579 272.327 266.1 272.391 265.574C272.428 265.256 273.469 261.418 273.637 260.854C274.272 262.736 275.001 264.576 276.016 266.348C277.203 268.422 278.624 270.396 280.332 272.2C280.489 272.366 280.771 272.164 280.648 271.995Z" fill="#1A2E35"/>
<path d="M451.086 287.962C411.971 305.49 337.082 317.598 280.681 302.306C224.279 287.029 197.133 255.27 196.185 251.521C195.251 247.773 198.533 243.514 202.621 242.284H202.635C204.531 244.674 206.526 246.994 208.577 249.23C226.925 269.148 263.167 291.909 321.279 297.27C378.402 302.548 433.517 281.257 447.394 275.5C452.798 275.033 458.442 284.666 451.086 287.962Z" fill="#1A2E35"/>
<path d="M313.92 431.702C329.283 437.806 346.025 439.465 362.156 435.677C347.056 443.202 327.685 441.302 313.92 431.702Z" fill="#1A2E35"/>
<path d="M350.32 350.444C354.087 341.157 360.525 331.672 370.107 327.388C382.924 323.368 400.304 329.281 412.352 334.063C419.899 337.203 427.189 341.051 433.749 345.888C419.564 338.26 404.205 332.552 388.372 329.599C382.177 328.64 375.495 327.644 369.615 330.099C361.1 334.371 354.945 342.24 350.32 350.444Z" fill="#1A2E35"/>
<path d="M411.84 334.914C417.626 333.44 424.002 334.739 429.184 337.566C423.373 336.502 417.773 335.299 411.84 334.914Z" fill="#1A2E35"/>
<path d="M362.842 343.977C376.992 353.541 382.963 358.433 381.982 374.413C381.127 388.31 343.17 432.598 318.776 440.262C313.919 441.787 309.286 441.183 305.935 439.343L362.842 343.977Z" fill="#C8C8C8"/>
<path d="M341.685 340.278C324.965 344.75 290.461 407.413 292.594 422.569C294.294 434.649 302.765 441.264 313.354 439.582C325.986 437.576 376.685 380.641 376.72 367.117C376.76 352.065 359.648 335.474 341.685 340.278Z" fill="#375A64"/>
<path d="M376.72 367.064L338.797 341.525C339.807 340.945 340.769 340.524 341.688 340.275C342.077 340.163 342.469 340.079 342.86 339.995C343.195 339.915 343.516 339.851 343.84 339.813L375.959 361.416C376.053 361.764 376.133 362.099 376.2 362.449C376.548 363.984 376.727 365.532 376.72 367.064Z" fill="#1A2E35"/>
<path d="M376.201 362.449L342.861 339.996C343.195 339.916 343.517 339.85 343.841 339.813C344.19 339.746 344.541 339.694 344.878 339.657L375.643 360.361C375.767 360.706 375.862 361.054 375.958 361.417C376.054 361.765 376.134 362.1 376.201 362.449Z" fill="#2B454E"/>
<path d="M372.953 376.926C372.855 377.131 372.727 377.339 372.6 377.546C372.044 378.521 371.432 379.527 370.753 380.567L327.729 351.611C328.529 350.677 329.317 349.786 330.096 348.951C330.255 348.77 330.427 348.602 330.584 348.422L372.953 376.926Z" fill="#1A2E35"/>
<path d="M373.308 376.32C373.195 376.527 373.08 376.719 372.954 376.926C372.854 377.132 372.727 377.339 372.599 377.547L330.096 348.952C330.254 348.771 330.427 348.603 330.584 348.422C330.758 348.254 330.915 348.072 331.087 347.904L373.308 376.32Z" fill="#2B454E"/>
<path d="M364.906 389.057C364.762 389.237 364.62 389.432 364.478 389.625C363.79 390.553 363.077 391.496 362.348 392.44L318.953 363.241C319.621 362.259 320.305 361.275 320.977 360.335C321.12 360.141 321.249 359.961 321.39 359.768L364.906 389.057Z" fill="#1A2E35"/>
<path d="M365.32 388.476C365.177 388.67 365.034 388.864 364.906 389.057C364.762 389.238 364.62 389.432 364.478 389.626L320.977 360.336C321.12 360.141 321.249 359.962 321.39 359.768C321.52 359.574 321.662 359.38 321.79 359.186L365.32 388.476Z" fill="#2B454E"/>
<path d="M355.876 400.505C355.733 400.7 355.59 400.88 355.418 401.061C354.673 401.979 353.9 402.884 353.126 403.788L311.158 375.539C311.753 374.519 312.364 373.512 312.974 372.505C313.104 372.312 313.217 372.105 313.344 371.899L355.876 400.505Z" fill="#1A2E35"/>
<path d="M356.334 399.963C356.191 400.143 356.033 400.324 355.875 400.506C355.733 400.7 355.59 400.88 355.418 401.062L312.974 372.506C313.103 372.312 313.217 372.106 313.343 371.899C313.471 371.706 313.599 371.498 313.726 371.291L356.334 399.963Z" fill="#2B454E"/>
<path d="M346.266 411.582C346.094 411.75 345.935 411.931 345.778 412.113C344.974 412.991 344.157 413.87 343.351 414.734L304.135 388.335C304.673 387.291 305.21 386.247 305.774 385.187C305.887 384.981 305.986 384.775 306.114 384.569L346.266 411.582Z" fill="#1A2E35"/>
<path d="M346.74 411.053C346.582 411.234 346.424 411.401 346.266 411.582C346.093 411.75 345.936 411.932 345.778 412.113L305.774 385.188C305.888 384.981 305.986 384.776 306.114 384.568C306.213 384.362 306.325 384.142 306.453 383.934L346.74 411.053Z" fill="#2B454E"/>
<path d="M336.061 422.247C335.887 422.415 335.715 422.583 335.543 422.751C334.667 423.62 333.803 424.46 332.953 425.271L297.933 401.7C298.367 400.607 298.843 399.509 299.346 398.383C299.445 398.163 299.543 397.944 299.627 397.725L336.061 422.247Z" fill="#1A2E35"/>
<path d="M336.579 421.743C336.407 421.911 336.233 422.079 336.061 422.247C335.888 422.415 335.716 422.583 335.543 422.751L299.347 398.383C299.445 398.163 299.543 397.944 299.627 397.725C299.727 397.52 299.824 397.3 299.923 397.08L336.579 421.743Z" fill="#2B454E"/>
<path d="M325.051 432.357C324.85 432.527 324.662 432.683 324.475 432.837C323.454 433.66 322.472 434.437 321.543 435.125L293.127 416.001C293.375 414.864 293.687 413.652 294.066 412.377C294.135 412.145 294.204 411.913 294.287 411.667L325.051 432.357Z" fill="#1A2E35"/>
<path d="M325.614 431.893C325.426 432.048 325.238 432.202 325.052 432.357C324.85 432.528 324.662 432.682 324.474 432.837L294.066 412.377C294.136 412.145 294.205 411.914 294.286 411.668C294.341 411.437 294.425 411.204 294.506 410.957L325.614 431.893Z" fill="#2B454E"/>
<path d="M310.086 439.837C309.633 439.839 309.192 439.827 308.75 439.787C302.849 439.347 297.956 436.071 295.078 430.586C294.866 430.189 294.666 429.763 294.481 429.337L310.086 439.837Z" fill="#1A2E35"/>
<path d="M311.304 439.809C310.895 439.837 310.484 439.838 310.087 439.837C309.633 439.839 309.192 439.827 308.751 439.787L295.077 430.586C294.865 430.189 294.667 429.763 294.48 429.337C294.297 428.953 294.143 428.553 293.987 428.151L311.304 439.809Z" fill="#2B454E"/>
<path d="M365.32 345.664C390.725 358.968 384.761 379.661 369.43 398.552C365.122 403.984 360.376 409.013 355.356 413.747C359.553 408.269 363.829 402.891 367.766 397.304C381.642 377.637 387.757 361.753 365.32 345.664Z" fill="#1A2E35"/>
<path d="M362.717 404.29C362.652 407.898 361.01 411.506 358.154 413.747C359.521 410.376 360.861 407.42 362.717 404.29Z" fill="#1A2E35"/>
<path d="M305.935 439.343C316.134 442.806 326.399 436.99 334.763 431.553C336.031 430.759 337.222 429.859 338.478 429.029C334.191 433.278 329.207 436.859 323.611 439.198C318.092 441.479 311.336 442.438 305.935 439.343Z" fill="#1A2E35"/>
<path d="M337.924 432.743C336.888 434.047 335.42 434.866 333.894 435.444C332.366 435.986 330.699 436.252 329.063 435.916C329.815 435.536 330.55 435.278 331.275 434.992C333.447 434.2 335.626 433.347 337.924 432.743Z" fill="#1A2E35"/>
<path d="M137.936 363.458C154.396 361.92 170.065 355.796 182.716 345.095C172.681 358.658 154.56 365.759 137.936 363.458Z" fill="#1A2E35"/>
<path d="M141.382 265.973C153.058 244.33 168.843 243.897 187.801 257.131C192.778 260.663 197.349 264.798 201.047 269.606C196.515 265.597 191.686 262.046 186.625 258.914C167.226 247.143 155.658 247.038 141.382 265.973Z" fill="#1A2E35"/>
<path d="M108.015 260.699C124.238 255.357 131.762 253.629 143.801 264.184C154.27 273.363 166.073 330.484 157.209 354.468C155.443 359.243 152.13 362.539 148.625 364.063L108.015 260.699Z" fill="#C8C8C8"/>
<path d="M92.1448 275.17C85.4501 291.13 113.902 356.763 127.195 364.35C137.79 370.396 148.203 367.744 153.354 358.339C159.497 347.122 145.485 272.183 134.81 263.88C122.93 254.64 99.3368 258.023 92.1448 275.17Z" fill="#375A64"/>
<path d="M134.768 263.849L91.364 278.217C91.5227 277.063 91.7787 276.043 92.144 275.165C92.2933 274.789 92.4667 274.427 92.64 274.067C92.7813 273.754 92.9267 273.459 93.096 273.181L129.835 260.995C130.168 261.133 130.483 261.274 130.8 261.435C132.227 262.101 133.56 262.906 134.768 263.849Z" fill="#1A2E35"/>
<path d="M130.8 261.435L92.6399 274.066C92.7812 273.753 92.9266 273.459 93.0959 273.181C93.2572 272.863 93.4292 272.553 93.6066 272.263L128.808 260.598C129.157 260.711 129.491 260.85 129.835 260.995C130.168 261.133 130.483 261.274 130.8 261.435Z" fill="#2B454E"/>
<path d="M140.264 272.862C140.365 273.066 140.452 273.294 140.537 273.522C140.968 274.558 141.391 275.657 141.799 276.83L92.5705 293.144C92.3199 291.938 92.0972 290.769 91.9145 289.642C91.8665 289.408 91.8399 289.168 91.7932 288.933L140.264 272.862Z" fill="#1A2E35"/>
<path d="M140.002 272.211C140.095 272.427 140.178 272.635 140.264 272.863C140.366 273.067 140.452 273.293 140.538 273.521L91.9136 289.643C91.8669 289.407 91.8403 289.168 91.7936 288.932C91.7656 288.693 91.7189 288.457 91.6923 288.217L140.002 272.211Z" fill="#2B454E"/>
<path d="M144.935 286.65C144.99 286.874 145.056 287.104 145.123 287.336C145.435 288.447 145.744 289.59 146.046 290.743L96.3976 307.2C96.0296 306.07 95.6696 304.928 95.3376 303.822C95.2709 303.59 95.2083 303.378 95.1416 303.146L144.935 286.65Z" fill="#1A2E35"/>
<path d="M144.728 285.967C144.794 286.199 144.861 286.43 144.934 286.65C144.99 286.874 145.056 287.106 145.122 287.336L95.3371 303.822C95.2704 303.59 95.2077 303.378 95.1424 303.146C95.0677 302.927 95.0011 302.695 94.9264 302.475L144.728 285.967Z" fill="#2B454E"/>
<path d="M148.464 300.798C148.531 301.03 148.585 301.252 148.624 301.5C148.893 302.65 149.136 303.815 149.377 304.98L101.355 320.891C100.912 319.795 100.491 318.696 100.067 317.598C99.9932 317.378 99.8986 317.162 99.8132 316.934L148.464 300.798Z" fill="#1A2E35"/>
<path d="M148.315 300.103C148.37 300.327 148.417 300.561 148.463 300.797C148.53 301.029 148.585 301.252 148.623 301.5L100.067 317.597C99.9928 317.377 99.8995 317.161 99.8128 316.933C99.7382 316.715 99.6528 316.487 99.5662 316.259L148.315 300.103Z" fill="#2B454E"/>
<path d="M151.345 315.176C151.372 315.416 151.419 315.65 151.467 315.886C151.669 317.06 151.864 318.244 152.055 319.41L107.18 334.274C106.683 333.212 106.185 332.148 105.692 331.053C105.597 330.836 105.496 330.632 105.411 330.405L151.345 315.176Z" fill="#1A2E35"/>
<path d="M151.217 314.477C151.263 314.713 151.298 314.94 151.346 315.176C151.373 315.415 151.419 315.651 151.466 315.887L105.693 331.052C105.598 330.836 105.497 330.632 105.41 330.405C105.309 330.2 105.203 329.977 105.117 329.749L151.217 314.477Z" fill="#2B454E"/>
<path d="M153.536 329.773C153.563 330.012 153.591 330.252 153.617 330.491C153.769 331.716 153.905 332.912 154.027 334.081L113.955 347.359C113.355 346.345 112.78 345.297 112.196 344.211C112.083 343.999 111.969 343.787 111.848 343.587L153.536 329.773Z" fill="#1A2E35"/>
<path d="M153.454 329.055C153.481 329.295 153.509 329.534 153.536 329.774C153.564 330.013 153.59 330.253 153.618 330.491L112.196 344.21C112.082 343.998 111.969 343.786 111.848 343.586C111.745 343.382 111.632 343.17 111.518 342.958L153.454 329.055Z" fill="#2B454E"/>
<path d="M154.797 344.668C154.809 344.931 154.815 345.175 154.823 345.417C154.85 346.728 154.863 347.98 154.839 349.137L122.327 359.911C121.578 359.019 120.81 358.029 120.034 356.949C119.893 356.753 119.753 356.557 119.607 356.341L154.797 344.668Z" fill="#1A2E35"/>
<path d="M154.774 343.938C154.782 344.181 154.788 344.425 154.796 344.668C154.808 344.93 154.815 345.174 154.823 345.417L120.034 356.95C119.894 356.753 119.752 356.557 119.607 356.341C119.458 356.157 119.326 355.949 119.18 355.733L154.774 343.938Z" fill="#2B454E"/>
<path d="M151.555 361.081C151.281 361.441 151.002 361.782 150.699 362.107C146.739 366.506 141.155 368.371 135.055 367.291C134.611 367.217 134.153 367.114 133.702 366.999L151.555 361.081Z" fill="#1A2E35"/>
<path d="M152.278 360.1C152.05 360.442 151.798 360.767 151.556 361.08C151.28 361.442 151.001 361.782 150.7 362.107L135.056 367.291C134.612 367.216 134.153 367.114 133.702 366.999C133.286 366.908 132.874 366.787 132.462 366.664L152.278 360.1Z" fill="#2B454E"/>
<path d="M191.425 260.995C194.875 260.59 198.534 261.779 201.047 264.208C197.619 263.406 194.639 262.43 191.425 260.995Z" fill="#1A2E35"/>
<path d="M142.993 263.489C155.251 271.53 159.101 300.598 159.279 314.477C158.676 312.266 158.193 310.046 157.704 307.83C156.284 301.416 154.795 294.334 153.199 288.021C152.117 283.669 150.921 279.348 149.407 275.132C147.844 270.969 146.245 266.67 142.993 263.489Z" fill="#1A2E35"/>
<path d="M157.323 301.224C160.019 303.622 161.689 307.216 161.532 310.844C159.863 307.612 158.491 304.671 157.323 301.224Z" fill="#1A2E35"/>
<path d="M152.278 362.043C158.513 354.691 159.163 344.875 160.326 335.729C161.102 344.853 159.982 355.966 152.278 362.043Z" fill="#1A2E35"/>
<path d="M162.786 338.566C163.101 340.201 162.767 341.849 162.214 343.385C161.629 344.897 160.747 346.335 159.427 347.358C159.629 346.541 159.91 345.814 160.166 345.078C160.978 342.914 161.749 340.703 162.786 338.566Z" fill="#1A2E35"/>
<path d="M198.227 278.624C196.575 289.901 198.392 336.809 215.369 340.117C232.347 343.425 232.913 318.444 251.379 300.504C251.379 300.504 239.541 286.696 224.137 280.703C208.735 274.708 198.227 278.624 198.227 278.624Z" fill="#C8C8C8"/>
<path d="M242.031 312.035C241.249 313.24 240.511 314.453 239.799 315.649C227.597 307.848 216.638 304.599 209.155 303.271C204.774 302.484 201.114 302.267 198.449 302.257C198.318 300.805 198.205 299.38 198.109 297.981C206.225 297.937 222.775 299.691 242.031 312.035Z" fill="#696CFF"/>
<path d="M246.431 305.938C245.527 307.073 244.666 308.215 243.85 309.367C223.473 296.702 205.998 295.086 197.927 295.154C197.849 293.667 197.806 292.233 197.771 290.87C206.461 290.742 224.869 292.417 246.431 305.938Z" fill="#696CFF"/>
<path d="M197.797 284.245C199.025 298.071 200.996 353.065 225.444 335.781C229.012 332.813 231.528 328.541 233.974 324.333C238.692 315.823 243.409 306.539 251.378 300.503C247.81 303.917 244.968 307.966 242.526 312.197C236.392 322.027 232.78 338.045 220.026 341.35C197.092 346.018 197.229 298.793 197.797 284.245Z" fill="#1A2E35"/>
<path d="M243.849 309.366C246.123 307.586 248.327 306.193 250.819 304.736C249.309 307.192 246.669 308.861 243.849 309.366Z" fill="#1A2E35"/>
<path d="M208.724 322.311C210.436 328.22 211.471 337.746 217.559 340.663C210.361 339.426 208.495 328.379 208.724 322.311Z" fill="#1A2E35"/>
<path d="M217.457 320.884C218.28 326.981 217.899 336.554 223.492 340.337C216.555 338.053 216.336 326.852 217.457 320.884Z" fill="#1A2E35"/>
<path d="M283.299 307.929C272.648 311.99 232.592 336.466 237.989 352.899C243.387 369.331 269.683 357.514 294.727 363.529C294.727 363.529 296.413 347.93 294.128 331.559C291.844 315.19 283.299 307.929 283.299 307.929Z" fill="#C8C8C8"/>
<path d="M275.552 361.641C274.117 361.647 272.7 361.677 271.297 361.723C272.045 347.532 269.569 336.58 267.124 329.489C265.672 325.305 264.073 322 262.779 319.663L262.777 319.648C263.379 319.237 263.981 318.841 264.569 318.445C264.703 318.348 264.823 318.267 264.944 318.197C265.412 317.885 265.881 317.572 266.351 317.272C270.292 324.253 276.723 339.272 275.552 361.641Z" fill="#696CFF"/>
<path d="M283.043 361.844C281.614 361.749 280.189 361.696 278.766 361.671C279.618 338.308 272.674 322.669 268.723 315.747L268.722 315.732C269.085 315.5 269.434 315.283 269.785 315.08C270.415 314.68 271.034 314.311 271.641 313.956C271.897 313.805 272.139 313.655 272.381 313.504L272.382 313.519C276.658 320.895 283.954 337.268 283.043 361.844Z" fill="#696CFF"/>
<path d="M278.183 310.296C267.826 317.499 226.616 342.052 241.835 356.578C247.255 361.639 255.158 361.392 262.311 361.502C272.295 361.338 282.511 361.195 292.388 363.019C282.351 362.199 272.412 362.896 262.363 363.519C254.94 363.8 245.954 364.066 240.036 358.45C222.396 340.682 264.991 317.006 278.183 310.296Z" fill="#1A2E35"/>
<path d="M282.429 362.319C285.243 362.967 287.711 363.804 290.411 364.823C287.554 365.195 284.595 364.194 282.429 362.319Z" fill="#1A2E35"/>
<path d="M250.288 338.409C245.965 342.788 238.156 348.337 238.581 355.076C236.148 348.191 244.88 341.169 250.288 338.409Z" fill="#1A2E35"/>
<path d="M255.796 345.336C250.876 349.029 242.333 353.368 241.761 360.096C240.369 352.926 250.04 347.269 255.796 345.336Z" fill="#1A2E35"/>
<g opacity="0.199997">
<path d="M208.574 249.233C187.542 226.404 173.606 194.351 173.135 164.715C172.664 135.077 181.132 104.5 199.95 80.98C218.766 57.4587 276.507 14.6507 362.419 31.5854C448.331 48.52 491.611 114.041 493.492 177.237C494.988 227.479 447.391 275.499 447.391 275.499C433.514 281.261 378.396 302.548 321.275 297.273C263.167 291.908 226.92 269.148 208.574 249.233Z" fill="#ECECEC"/>
</g>
<path d="M208.574 249.233C252.12 294.408 327.074 305.141 386.472 293.211C407.072 289.389 428.242 282.913 447.134 275.244C452.039 270.112 456.59 264.611 460.895 258.951C477.735 236.447 492.07 210.051 492.978 181.401C493.518 124.007 457.114 69.5948 405.123 46.0215C347.135 19.1121 274.684 21.8308 222.483 60.3921C186.591 85.2815 170.343 130.091 173.738 172.707C176.524 201.099 189.52 228.147 208.574 249.233ZM208.574 249.233C189.443 228.183 176.37 201.152 173.496 172.729C171.216 144.357 177.471 114.924 192.712 90.7335C208.06 66.4308 233.302 49.8948 259.568 39.3041C311.66 18.5281 377.142 25.3348 424.411 55.3081C467.046 81.9695 494.479 131.049 494.006 181.425C493.4 203.019 484.708 223.552 473.648 241.772C466.134 253.927 457.51 265.393 447.648 275.753C428 283.844 407.454 289.82 386.572 293.744C327.078 305.523 252.04 294.58 208.574 249.233Z" fill="#1A2E35"/>
<g opacity="0.600006">
<path d="M214.129 111.113C202.74 122.861 209.936 156.599 224.632 155.569C236.663 154.726 243.911 141.445 245.38 132.538C246.851 123.631 243.932 111.469 235.249 107.689C227.911 104.491 218.307 106.803 214.129 111.113Z" fill="white"/>
<path d="M242.047 89.3537C237.948 92.4311 240.793 101.824 245.828 103.591C250.863 105.358 256.145 99.3097 255.277 95.3551C254.408 91.4004 245.743 86.5791 242.047 89.3537Z" fill="white"/>
<path d="M436.177 262.498C440.106 263.281 444.094 256.728 442.498 252.874C440.902 249.021 436.113 250.121 434.262 252.689C432.412 255.256 432.634 261.793 436.177 262.498Z" fill="white"/>
</g>
</svg>
