<svg width="385" height="369" viewBox="0 0 385 369" fill="none" xmlns="http://www.w3.org/2000/svg">
<path d="M324.197 350.802C324.197 360.329 277.696 368.052 220.334 368.052C162.972 368.052 116.47 360.329 116.47 350.802C116.47 341.276 162.972 333.553 220.334 333.553C277.696 333.553 324.197 341.276 324.197 350.802Z" fill="#ECECEC"/>
<path d="M119.027 188.047C119.027 188.047 126.972 141.389 130.335 132.179C132.659 125.815 142.151 109.779 148.927 97.8792C150.294 95.4792 159.042 89.6606 163.242 87.4406C168.895 84.4526 179.542 89.2699 180.318 101.559C180.64 106.673 171.95 112.494 169.52 117.866C166.107 125.409 165.878 135.223 165.598 136.798C165.116 139.497 183.959 160.35 183.135 168.293C182.311 176.237 160.471 203.511 155.739 205.078C151.006 206.646 119.146 195.75 119.027 188.047Z" fill="#FFC800"/>
<path d="M157.819 107.627C162.068 110.755 168.868 112.624 172.532 113.475C175.96 109.42 180.551 105.307 180.311 101.557C179.537 89.2733 168.889 84.4519 163.236 87.4373C160.347 88.9666 155.311 92.2026 152.005 94.8453C152.005 94.8453 151.767 103.18 157.819 107.627Z" fill="#ECECEC"/>
<path d="M175.465 90.3742C175.553 90.3262 175.639 90.4475 175.567 90.5155C173.677 92.2969 171.847 94.1622 170.135 96.1169C168.575 97.8969 167.131 99.7675 166.921 102.208C166.909 102.356 166.693 102.35 166.69 102.202C166.653 99.8329 167.298 97.3369 168.701 95.4022C170.401 93.0555 172.99 91.7342 175.465 90.3742Z" fill="#1A2E35"/>
<path d="M169.697 86.0738C169.782 86.0245 169.872 86.1471 169.8 86.2165C168.358 87.5911 166.721 89.5431 164.87 91.8658C163.549 93.5271 161.226 95.9885 162.166 98.2845C162.329 98.6805 162.1 98.7258 161.862 98.3671C160.43 96.2125 161.902 93.4551 163.172 91.6111C164.845 89.1778 167.177 87.5325 169.697 86.0738Z" fill="#1A2E35"/>
<g opacity="0.100006">
<path d="M155.744 205.08C160.475 203.507 182.306 176.237 183.134 168.297C183.764 162.225 172.936 148.648 167.99 141.356L127.019 145.375C123.392 162.385 119.024 188.043 119.024 188.043C119.146 195.753 151.006 206.644 155.744 205.08Z" fill="black"/>
</g>
<path d="M42.1166 204.978C42.1166 204.978 2.35263 201.413 0.929967 204.252C0.00196686 206.106 8.77263 229.797 13.7633 237.653C18.754 245.509 50.7806 275.706 59.2566 282.357L42.1166 204.978Z" fill="#FFC800"/>
<g opacity="0.100006">
<path d="M25.9062 237.344C29.2916 242.672 44.9796 257.588 55.8436 266.924L42.9982 208.982C33.0476 207.678 12.6342 205.253 11.7796 207.206C11.0422 208.884 21.1249 229.817 25.9062 237.344Z" fill="black"/>
</g>
<path d="M80.2756 161.587C80.2969 160.606 71.4983 131.822 84.5049 113.914C86.9143 110.597 130.693 151.171 130.693 151.171L80.2756 161.587Z" fill="#FFC800"/>
<g opacity="0.100006">
<path d="M88.5813 159.872L128.969 151.528C124.755 147.644 93.9173 119.349 92.0973 121.844C82.3399 135.274 87.7573 156.262 88.5813 159.872Z" fill="black"/>
</g>
<path d="M201.549 204.724C201.549 204.724 187.379 167.03 162.813 148.828C159.766 146.571 100.759 148.586 89.0327 151.508C85.6901 152.34 47.1554 187.348 36.1554 209.938C34.3354 213.675 43.2607 255.124 57.6527 279.827C61.2181 285.95 125.182 341.047 166.981 350.368C174.874 352.13 274.799 348.97 298.806 332.427C322.813 315.887 364.663 255.751 367.223 238.963C369.785 222.175 310.059 171.411 289.741 171.416C269.422 171.422 201.549 204.724 201.549 204.724Z" fill="#FFC800"/>
<path d="M110.879 159.714C115.691 152.475 125.339 153.638 133.782 159.251C140.62 163.798 144.747 172.735 140.129 179.682C135.511 186.63 124.449 185.47 118.027 181.202C111.606 176.934 105.655 167.574 110.879 159.714Z" fill="#1A2E35"/>
<path d="M112.186 161.588C116.709 154.782 125.777 155.877 133.714 161.153C140.142 165.425 144.021 173.826 139.681 180.357C135.34 186.888 124.941 185.797 118.905 181.785C112.869 177.774 107.274 168.976 112.186 161.588Z" fill="white"/>
<path d="M118.704 164.297C122.244 158.972 129.342 159.827 135.556 163.957C140.588 167.301 143.624 173.879 140.226 178.991C136.828 184.103 128.688 183.249 123.964 180.108C119.238 176.968 114.86 170.081 118.704 164.297Z" fill="#1A2E35"/>
<path d="M113.619 166.202C115.227 163.785 118.451 164.173 121.271 166.047C123.557 167.566 124.935 170.554 123.393 172.874C121.849 175.195 118.153 174.809 116.007 173.383C113.862 171.955 111.873 168.829 113.619 166.202Z" fill="white"/>
<path d="M78.5601 210.263C70.2587 217.942 71.9774 228.175 78.8614 235.618C84.4374 241.645 95.0587 243.242 103.024 235.874C110.991 228.505 109.227 216.714 103.991 211.054C98.7561 205.394 87.5734 201.926 78.5601 210.263Z" fill="#1A2E35"/>
<path d="M80.802 211.085C72.9994 218.302 74.614 227.921 81.0847 234.917C86.3274 240.582 96.31 242.085 103.798 235.158C111.287 228.23 109.629 217.148 104.707 211.828C99.786 206.506 89.274 203.248 80.802 211.085Z" fill="white"/>
<path d="M86.9277 214.104C80.8197 219.754 82.0837 227.283 87.1503 232.759C91.2517 237.195 99.0663 238.371 104.929 232.948C110.79 227.526 109.492 218.851 105.64 214.686C101.788 210.52 93.5597 207.968 86.9277 214.104Z" fill="#1A2E35"/>
<path d="M80.0751 217.862C77.3017 220.428 77.8764 223.846 80.1764 226.334C82.0391 228.348 85.5884 228.882 88.2497 226.42C90.9111 223.957 90.3217 220.017 88.5724 218.126C86.8231 216.234 83.0871 215.076 80.0751 217.862Z" fill="white"/>
<path d="M112.244 198.364C113.066 198.836 119.242 196.389 119.632 195.864C120.018 195.348 120.663 188.648 119.999 187.965C119.343 187.288 115.912 191.305 115.107 192.385C114.298 193.472 111.424 197.905 112.244 198.364Z" fill="#1A2E35"/>
<path d="M127.882 188.592C128.4 190.129 128.895 191.672 129.238 193.225C129.395 193.997 129.548 194.784 129.523 195.508C129.514 195.858 129.426 196.205 129.312 196.336C129.194 196.464 128.895 196.645 128.598 196.712C127.971 196.881 127.208 196.82 126.464 196.73C125.712 196.624 124.955 196.452 124.203 196.234C122.703 195.81 121.186 195.278 119.762 194.657L117.119 193.505L118.736 195.897C119.8 197.472 120.767 199.186 121.547 200.921C121.936 201.79 122.271 202.68 122.476 203.573C122.66 204.454 122.768 205.376 122.476 206.081L122.354 206.332L122.195 206.558C122.059 206.712 121.91 206.857 121.744 206.993C121.41 207.261 121.02 207.49 120.602 207.676C119.76 208.052 118.818 208.262 117.866 208.414C115.951 208.704 113.968 208.718 111.994 208.608C113.927 209.053 115.923 209.27 117.944 209.181C118.955 209.134 119.975 208.982 120.979 208.641C121.967 208.281 123.004 207.769 123.616 206.608C124.147 205.482 124.066 204.324 123.891 203.286C123.696 202.244 123.37 201.261 122.992 200.31C122.214 198.41 121.232 196.668 120.115 194.95L119.09 196.188C120.643 196.824 122.183 197.368 123.812 197.754C124.626 197.944 125.456 198.09 126.31 198.166C127.166 198.232 128.059 198.229 128.984 197.912C129.45 197.734 129.892 197.505 130.268 196.992C130.602 196.437 130.576 195.933 130.563 195.486C130.49 194.59 130.254 193.793 129.98 193.012C129.419 191.46 128.71 189.992 127.882 188.592Z" fill="#1A2E35"/>
<path d="M141.361 161.094C144.011 157.142 146.788 153.288 149.649 149.498C152.517 145.714 155.425 141.961 158.504 138.348C159.995 136.502 161.561 134.72 163.108 132.92C164.688 131.149 166.268 129.378 167.88 127.637C171.068 124.116 174.437 120.768 177.78 117.38C175.988 118.941 174.18 120.494 172.445 122.126C170.721 123.768 169.003 125.417 167.347 127.129C163.997 130.52 160.848 134.101 157.769 137.736C154.74 141.414 151.807 145.176 149.057 149.066C147.685 151.012 146.349 152.985 145.044 154.974C143.779 156.993 142.503 159.005 141.361 161.094Z" fill="#1A2E35"/>
<path d="M144.727 161.283C146.133 159.664 147.535 158.043 148.975 156.456C150.393 154.852 151.829 153.261 153.283 151.691C156.181 148.54 159.104 145.412 162.128 142.384C163.605 140.837 165.131 139.337 166.643 137.823L171.275 133.38L173.608 131.172L175.988 129.019C177.539 127.536 179.199 126.184 180.775 124.724C177.332 127.283 173.976 129.969 170.777 132.836C167.557 135.677 164.469 138.668 161.445 141.715C158.467 144.809 155.524 147.939 152.735 151.203C149.941 154.464 147.227 157.793 144.727 161.283Z" fill="#1A2E35"/>
<path d="M146.083 163.905C147.409 162.707 148.728 161.503 150.079 160.333C151.412 159.148 152.749 157.965 154.111 156.812C156.828 154.499 159.535 152.179 162.303 149.928C165.056 147.663 167.836 145.429 170.64 143.221C173.433 140.999 176.287 138.856 179.101 136.645C177.583 137.589 176.081 138.563 174.589 139.551C173.119 140.569 171.643 141.58 170.196 142.633C167.279 144.709 164.472 146.933 161.693 149.188C158.933 151.467 156.229 153.815 153.621 156.267C151.011 158.713 148.451 161.22 146.083 163.905Z" fill="#1A2E35"/>
<path d="M86.2318 250.599C84.1878 252.731 82.2745 254.982 80.3558 257.229C78.4798 259.509 76.6345 261.815 74.8345 264.158C71.2345 268.846 67.8425 273.689 64.5905 278.623C61.3918 283.591 58.2905 288.627 55.4731 293.825C54.0358 296.405 52.6958 299.038 51.3665 301.677C50.6945 302.991 50.0811 304.335 49.4651 305.678L47.6265 309.705C50.3865 304.485 53.1118 299.259 56.1145 294.186C57.5811 291.63 59.1105 289.114 60.6318 286.591C62.2025 284.101 63.7451 281.589 65.3905 279.146C68.5651 274.183 71.9585 269.365 75.4211 264.598C78.8905 259.834 82.4718 255.149 86.2318 250.599Z" fill="#1A2E35"/>
<path d="M87.6806 254.521C84.4899 258.784 81.5472 263.226 78.7126 267.734C75.8739 272.24 73.2299 276.866 70.6526 281.528C68.1299 286.218 65.7086 290.968 63.4939 295.813C61.2406 300.64 59.2552 305.588 57.4272 310.585C58.5619 308.174 59.5526 305.709 60.7286 303.322L62.4046 299.706L64.1592 296.129C65.3219 293.741 66.5379 291.38 67.7339 289.008C68.9752 286.66 70.1966 284.302 71.4926 281.985C73.9926 277.298 76.6406 272.692 79.3392 268.114C80.6846 265.825 82.0566 263.549 83.4526 261.286C84.8272 259.01 86.2499 256.766 87.6806 254.521Z" fill="#1A2E35"/>
<path d="M91.2846 255.176C89.0046 258.985 86.9819 262.941 85.0446 266.935C83.1139 270.932 81.3326 275.001 79.6139 279.093C77.9712 283.217 76.3379 287.348 74.9072 291.551C74.1739 293.645 73.5032 295.76 72.8206 297.871C72.1712 299.993 71.5539 302.125 70.9619 304.263C72.5139 300.105 73.9966 295.931 75.5992 291.803C77.1699 287.661 78.7912 283.541 80.4979 279.459C82.1392 275.347 83.9272 271.296 85.7099 267.244C86.5939 265.212 87.5179 263.201 88.4512 261.192C89.3632 259.172 90.3206 257.175 91.2846 255.176Z" fill="#1A2E35"/>
<g opacity="0.100006">
<path d="M125.163 229.697C127.458 228.5 129.768 227.464 132.046 226.425C133.167 225.872 134.314 225.393 135.384 224.813C136.44 224.251 137.535 223.656 138.27 223.008C138.948 222.435 139.478 221.396 139.988 220.32C140.514 219.247 140.926 218.084 141.384 216.925C142.256 214.592 143.084 212.201 144.072 209.808C144.175 212.401 143.907 214.967 143.383 217.503C143.148 218.78 142.763 220.027 142.319 221.293C141.835 222.521 141.279 223.869 140.052 224.992C138.863 226 137.668 226.559 136.45 227.093C135.226 227.588 134.011 228.032 132.763 228.371C130.279 229.067 127.755 229.561 125.163 229.697Z" fill="black"/>
</g>
<path d="M365.555 244.65C378.007 219.211 391.873 181.322 379.711 152.275C367.548 123.229 301.773 75.0219 291.616 46.0832C281.457 17.1459 291.876 2.40992 282.739 0.704584C278.057 -0.170083 267.929 24.5739 272.885 48.9112C279.645 82.1126 347.355 142.773 355.545 161.761C363.739 180.749 355.088 196.898 344.18 213.506L365.555 244.65Z" fill="#FFC800"/>
<path d="M225.772 300.597C232.62 300.597 234.551 295.987 234.551 295.987C234.551 295.987 237.849 301.357 243.443 299.655C248.973 297.971 248.377 291.159 248.377 291.159C248.377 291.159 251.712 295.642 257.723 292.698C262.56 290.329 260.011 283.039 260.011 283.039C260.011 283.039 264.572 287.794 271.047 283.967C273.723 282.387 273.401 277.377 273.844 277.037C288.649 265.663 318.653 241.761 304.092 182.73C293.024 137.862 249.724 123.791 212.021 125.673C211.447 125.701 211.152 122.613 207.077 122.613C203.244 122.613 202.131 125.218 202.131 125.218C202.131 125.218 199.631 121.997 195.383 124.023C191.139 126.047 192.192 130.505 192.192 130.505C190.689 129.703 188.293 125.901 182.808 128.029C177.351 130.146 178.365 135.991 178.365 135.991C178.365 135.991 174.845 133.121 170.271 135.767C169.075 136.461 168.759 141.499 168.228 142.346C161.679 134.731 157.985 143.502 159.511 146.221C161.565 149.877 156.447 152.194 155.475 153.162C132.324 176.199 125.581 224.575 142.663 255.215C164.469 294.335 199.367 297.835 218.529 296.866C218.529 296.866 220.337 300.597 225.772 300.597Z" fill="#375A64"/>
<path d="M247.291 275.698C225.217 264.381 211.47 240.439 203.415 217.803C194.847 193.731 192.651 167.842 196.869 142.662C197.185 140.773 194.293 139.961 193.975 141.863C189.53 168.41 191.922 195.734 201.389 220.975C209.838 243.505 223.693 266.966 245.777 278.287C247.493 279.169 249.013 276.579 247.291 275.698Z" fill="#2B454E"/>
<path d="M221.155 283.417C184.32 250.206 165.697 201.834 170.592 152.469C170.781 150.55 167.78 150.562 167.591 152.469C162.627 202.546 181.672 251.854 219.033 285.538C220.464 286.829 222.593 284.713 221.155 283.417Z" fill="#2B454E"/>
<path d="M265.06 217.52C265.049 217.518 265.041 217.524 265.032 217.522C264.163 216.848 263.292 216.177 262.453 215.473C269.367 213.484 274.613 208.054 276.384 200.938C278.608 202.117 280.808 203.356 282.973 204.672C282.936 206.869 282.749 209.048 282.445 211.205C277.885 216.05 271.688 218.288 265.06 217.52ZM261.469 270.101C261.365 270.141 261.301 270.21 261.215 270.264C258.836 268.441 256.497 266.576 254.247 264.622C276.088 257.714 291.585 239.742 295.017 216.982C295.035 216.866 295.007 216.769 295.001 216.66C295.564 216.461 296.105 216.217 296.644 215.97C297.533 239.92 283.883 261.293 261.469 270.101ZM245.304 256.182C256.861 251.701 267.508 246.392 275.24 236.23C279.523 230.604 282.469 224.257 284.172 217.55C284.209 217.558 284.232 217.582 284.273 217.589C286.897 218.005 289.459 217.964 291.876 217.512C288.169 238.87 273.535 255.702 252.647 262.001C252.309 262.104 252.088 262.298 251.917 262.521C249.648 260.465 247.425 258.366 245.304 256.182ZM239.924 250.292C242.344 251.309 244.892 251.906 247.517 252.088C246.052 252.686 244.572 253.269 243.075 253.838C241.995 252.677 240.955 251.49 239.924 250.292ZM252.616 248.94C246.649 249.9 240.945 248.312 236.169 244.676C236.479 242.902 236.965 241.217 237.623 239.644C245.421 244.51 254.437 245.91 263.127 243.836C260.213 245.929 257.103 247.694 253.857 249.274C253.537 249.012 253.12 248.86 252.616 248.94M231.456 239.509C231.875 239.282 232.212 238.894 232.26 238.298C233.035 228.881 242.104 224.392 249.804 221.006C250.755 221.965 251.739 222.892 252.737 223.802C243.144 225.768 235.799 232.917 233.579 242.405C232.863 241.445 232.147 240.485 231.456 239.509M226.763 232.51C226.977 232.333 227.156 232.098 227.225 231.734C228.913 222.857 235.637 216.362 244.583 215.224C245.556 216.42 246.572 217.581 247.613 218.718C239.451 222.398 231.092 227.328 229.484 236.657C228.56 235.284 227.636 233.912 226.763 232.51M217.855 215.588C217.984 215.47 218.105 215.332 218.199 215.141C221.725 207.897 228.999 203.658 236.981 204.09C238.645 207.034 240.485 209.866 242.497 212.564C233.845 214.354 227.06 220.521 224.744 229.162C222.177 224.765 219.893 220.224 217.855 215.588M212.739 201.898C213.225 201.814 213.661 201.506 213.815 200.873C215.32 194.681 219.483 189.825 225.316 187.292C225.792 187.085 226.015 186.745 226.072 186.376C227.376 186.476 228.681 186.574 229.979 186.714C229.897 186.964 229.863 187.24 229.959 187.562C231.353 192.26 233.171 196.769 235.356 201.057C227.561 201.188 220.339 205.393 216.399 212.149C215.033 208.782 213.815 205.362 212.739 201.898M208.96 186.188C213.04 185.954 217.101 185.941 221.141 186.097C216.673 188.8 213.309 192.976 211.579 197.921C210.517 194.057 209.633 190.145 208.96 186.188M256.676 210.16C262.527 208.074 266.979 203.08 268.255 196.973C270.077 197.782 271.88 198.652 273.672 199.548C273.656 199.597 273.625 199.625 273.612 199.678C272.017 206.765 266.745 211.722 259.683 213.044C258.659 212.104 257.651 211.149 256.676 210.16ZM253.067 191.368C257.248 192.626 261.367 194.096 265.415 195.777C264.339 201.498 260.284 206.106 254.601 207.67C254.525 207.692 254.477 207.74 254.411 207.769C251.972 205.092 249.723 202.238 247.637 199.252C250.816 197.893 253.029 194.828 253.067 191.368M246.444 196.542C246.272 196.605 246.144 196.706 246.019 196.805C244.268 194.104 242.624 191.32 241.167 188.398C244.156 188.986 247.111 189.722 250.045 190.528C250.257 193.086 248.936 195.616 246.444 196.542M244.84 230.468C247.605 228.464 250.896 227.085 254.563 226.488C254.92 226.43 255.152 226.264 255.328 226.061C258.14 228.409 261.137 230.548 264.272 232.504C257.732 235.769 250.504 235.046 244.84 230.468M268.124 239.008C258.464 243.401 247.844 242.526 238.98 236.954C239.965 235.281 241.145 233.757 242.52 232.424C249.477 238.269 258.581 239.138 266.609 234.674C266.833 234.55 266.993 234.394 267.112 234.224C268.468 234.992 269.848 235.724 271.256 236.413C270.513 237.284 269.74 238.102 268.951 238.893C268.688 238.864 268.413 238.877 268.124 239.008M269.225 220.588C273.707 220.301 277.956 218.717 281.54 216.017C280.724 219.424 279.572 222.736 278.065 225.897C274.983 224.298 272.044 222.514 269.225 220.588M276.699 228.568C275.652 230.453 274.477 232.276 273.173 234.025C262.771 229.01 253.809 221.854 246.747 213.132C246.653 212.709 246.411 212.341 245.981 212.192C240.191 204.802 235.744 196.326 232.951 187.069C234.48 187.269 236.007 187.485 237.525 187.737C237.533 187.761 237.531 187.781 237.541 187.805C245.773 205.47 259.385 219.624 276.699 228.568ZM207.824 177.684C209.239 177.637 210.653 177.589 212.068 177.542C213.995 177.477 214.003 174.476 212.068 174.541C210.577 174.59 209.085 174.641 207.593 174.692C207.553 174.117 207.495 173.548 207.461 172.973C207.913 172.966 208.369 172.786 208.705 172.349C210.749 169.684 212.911 167.137 215.125 164.645C247.02 162.212 278.385 174.898 299.595 198.877C298.559 200.021 297.397 201.041 296.125 201.904C296.048 201.786 295.98 201.668 295.852 201.56C273.848 183.201 246.147 173.601 217.491 174.554C215.564 174.62 215.556 177.621 217.491 177.556C245.204 176.633 272.064 185.742 293.421 203.436C291.829 204.176 290.131 204.701 288.364 204.986C288.288 204.638 288.087 204.308 287.708 204.062C264.127 188.77 236.527 181.502 208.473 183.208C208.208 181.374 208 179.532 207.824 177.684M217.991 161.462C219.799 159.55 221.676 157.712 223.585 155.909C223.785 156.01 224.012 156.08 224.293 156.072C255.493 155.134 284.421 169.862 301.855 195.758C301.716 195.99 301.593 196.233 301.448 196.458C280.411 172.857 249.488 159.934 217.991 161.462M234.092 146.986C260.437 144.924 284.047 164.284 298.008 185.76C280.275 164.873 254.504 152.904 226.721 153.037C229.099 150.928 231.573 148.93 234.092 146.986M246.768 138.27C272.131 145.578 294.332 159.152 301.253 185.25C287.601 163.674 264.352 143.909 238.259 143.84C241.009 141.876 243.865 140.042 246.768 138.27M274.041 277.597C298.085 263.584 306.013 235.674 306.32 209.238C306.328 208.597 305.989 208.189 305.549 207.973C306.348 206.654 307.033 205.228 307.563 203.682C308.189 201.852 305.292 201.065 304.669 202.884C301.803 211.262 293.848 216.088 285.071 214.696C284.98 214.681 284.907 214.706 284.821 214.705C285.247 212.553 285.569 210.377 285.741 208.17C285.86 208.194 285.965 208.234 286.103 208.229C295.173 207.842 302.908 202.2 306.141 193.737C306.505 192.786 305.872 192.148 305.097 191.997C305.067 191.874 305.053 191.752 304.984 191.624C304.967 191.589 304.945 191.553 304.925 191.518C305.26 191.189 305.477 190.732 305.381 190.156C300.355 160.35 277.175 144.496 250.251 136.18C250.42 136.084 250.58 135.976 250.749 135.881C252.429 134.93 250.92 132.337 249.235 133.289C248.088 133.938 246.968 134.621 245.843 135.298C245.788 135.329 245.733 135.356 245.683 135.394C233.693 142.645 222.997 151.529 213.663 161.878C213.352 162.04 213.143 162.304 213.005 162.601C211.06 164.786 209.152 167.016 207.328 169.33C207.256 166.584 207.248 163.828 207.369 161.06C207.816 161.049 208.263 160.854 208.579 160.388C217.281 147.53 229.032 137.626 243.113 131.113C244.864 130.304 243.341 127.716 241.597 128.522C227.899 134.86 216.451 144.414 207.656 156.576C208.284 148.938 209.66 141.253 211.861 133.588C212.395 131.729 209.5 130.936 208.967 132.79C193.303 187.349 217.976 242.889 262.951 275.313C264.52 276.444 266.02 273.842 264.465 272.721C264.279 272.588 264.103 272.442 263.919 272.308C286.844 262.533 300.901 240.258 299.619 215.142C299.604 214.864 299.519 214.638 299.401 214.44C300.823 213.493 302.124 212.361 303.281 211.064C302.644 236.445 294.78 262.938 271.057 275.849C270.855 275.96 270.704 276.097 270.588 276.245L267.971 275.761C266.083 275.413 265.273 278.304 267.172 278.656L272.233 279.59C273.533 279.83 274.297 278.542 274.041 277.597Z" fill="#2B454E"/>
<path d="M151.093 257.151C151.425 256.911 151.676 256.549 151.724 256.045C151.865 254.586 152.073 253.151 152.316 251.727C160.911 255.031 169.869 255.795 178.947 254.106C179.232 254.053 179.437 253.93 179.605 253.782C181.137 256.183 182.756 258.535 184.437 260.847C184.303 260.853 184.173 260.846 184.024 260.894C172.708 264.569 161.16 263.233 151.093 257.151ZM154.799 241.983C160.891 244.75 167.24 245.606 173.873 244.551C173.979 244.534 174.044 244.483 174.133 244.453C175.356 246.749 176.669 249.002 178.024 251.231C169.427 252.809 160.991 251.913 152.884 248.751C153.396 246.449 154.035 244.19 154.799 241.983ZM155.832 239.189C158.093 233.598 161.195 228.362 165.125 223.573C167.216 229.789 169.763 235.841 172.717 241.701C166.905 242.555 161.168 241.701 155.845 239.191C155.841 239.189 155.837 239.19 155.832 239.189M204.209 283.211C204.369 283.129 204.475 283.019 204.58 282.913C205.983 283.631 207.687 281.774 206.352 280.587C173.297 251.179 156.848 208.053 161.736 164.07C161.949 162.154 158.947 162.17 158.735 164.07C158.616 165.146 158.515 166.221 158.424 167.294C151.337 167.801 144.948 170.839 140.183 176.138C138.896 177.57 141.011 179.699 142.305 178.259C146.493 173.601 151.968 170.826 158.207 170.321C158.044 172.967 157.951 175.61 157.932 178.246C149.473 179.982 141.899 183.834 135.456 189.613C134.016 190.903 136.144 193.019 137.579 191.734C143.456 186.462 150.287 183.019 157.925 181.317C157.951 183.017 157.999 184.715 158.087 186.407C148.847 187.906 140.637 192.314 134.255 199.186C132.941 200.601 135.059 202.727 136.376 201.309C142.304 194.927 149.761 190.927 158.271 189.417C158.339 190.347 158.408 191.281 158.495 192.207C148.916 194.878 140.376 199.718 133.151 206.555C131.745 207.886 133.871 210.005 135.273 208.678C142.023 202.29 149.916 197.809 158.824 195.246C159.051 197.21 159.303 199.171 159.611 201.119C159.347 201.085 159.071 201.094 158.781 201.221C148.219 205.801 139.575 213.389 133.569 223.201C132.56 224.851 135.153 226.362 136.161 224.715C141.871 215.385 150.06 208.318 160.059 203.925C160.381 205.727 160.737 207.521 161.132 209.306C160.843 209.338 160.549 209.434 160.283 209.683C149.033 220.199 142.961 234.423 143.121 249.818C143.14 251.747 146.141 251.753 146.121 249.818C145.973 235.419 151.511 222.293 161.851 212.349C162.499 214.997 163.247 217.615 164.048 220.215C155.237 230.402 150.071 242.458 148.743 255.875C147.46 255.803 146.58 257.805 147.939 258.711C158.98 266.07 172.205 267.885 184.821 263.789C185.411 263.597 185.705 263.161 185.804 262.683C187.117 264.427 188.477 266.139 189.875 267.826C177.768 274.969 163.852 274.411 152.208 266.235C150.624 265.123 149.123 267.725 150.693 268.827C163.288 277.671 178.812 278.111 191.875 270.129C193.476 271.975 195.133 273.778 196.833 275.549C187.249 280.897 176.543 282.15 165.889 279.126C164.028 278.598 163.233 281.493 165.092 282.019C176.732 285.323 188.592 283.823 199.007 277.762C200.055 278.806 201.125 279.833 202.209 280.847C193.967 284.966 185.187 286.621 175.985 285.865C174.061 285.706 174.071 288.709 175.985 288.865C185.884 289.679 195.379 287.737 204.209 283.211" fill="#2B454E"/>
<path d="M187.796 219.037C175.838 193.381 178.062 164.923 180.524 137.519C180.696 135.597 177.695 135.609 177.523 137.519C175.003 165.565 172.986 194.335 185.206 220.551C186.02 222.299 188.608 220.778 187.796 219.037Z" fill="#2B454E"/>
<path d="M203.451 136.937C203.873 133.14 204.297 129.344 204.72 125.548C204.933 123.632 201.932 123.646 201.72 125.548C201.296 129.344 200.873 133.14 200.449 136.937C200.236 138.853 203.239 138.837 203.451 136.937Z" fill="#2B454E"/>
<path d="M248.402 290.87C224.905 280.391 206.478 261.387 196.96 237.452C196.254 235.679 193.352 236.452 194.066 238.248C203.864 262.886 222.649 282.651 246.888 293.46C248.637 294.24 250.165 291.656 248.402 290.87Z" fill="#2B454E"/>
<path d="M262.336 281.376C238.952 263.458 220.501 240.195 208.223 213.428C207.419 211.676 204.832 213.198 205.632 214.943C218.144 242.219 237.012 265.722 260.821 283.966C262.355 285.14 263.851 282.535 262.336 281.376Z" fill="#2B454E"/>
<path d="M206.355 208.375C206.355 206.445 203.355 206.442 203.355 208.375C203.355 210.306 206.355 210.309 206.355 208.375Z" fill="#2B454E"/>
<path d="M194.519 211.233C186.012 185.227 184.944 157.821 191.466 131.244C191.926 129.369 189.032 128.569 188.572 130.447C181.931 157.515 182.959 185.539 191.626 212.031C192.223 213.859 195.123 213.076 194.519 211.233Z" fill="#2B454E"/>
<path d="M190.727 226.378C190.727 224.447 187.727 224.445 187.727 226.378C187.727 228.309 190.727 228.313 190.727 226.378Z" fill="#2B454E"/>
<path d="M216.667 294.371C217.645 294.879 218.652 295.347 219.713 295.734C221.529 296.397 222.313 293.498 220.511 292.841C216.333 291.318 212.772 288.582 210.223 284.939C209.124 283.369 206.521 284.866 207.632 286.454C207.856 286.774 208.097 287.073 208.332 287.379C202.14 290.193 195.589 291.226 188.768 290.523C186.848 290.326 186.861 293.329 188.768 293.523C196.303 294.298 203.567 292.967 210.365 289.733C211.333 290.722 212.399 291.59 213.508 292.399C211.1 293.211 208.608 293.715 206.06 293.906C204.147 294.05 204.131 297.051 206.06 296.906C209.757 296.63 213.249 295.771 216.667 294.371Z" fill="#2B454E"/>
<path d="M162.377 158.622C162.754 156.044 163.131 153.468 163.51 150.891C163.593 150.33 163.379 149.879 163.054 149.551C165.921 148.519 168.185 146.291 169.206 143.268C169.825 141.434 166.929 140.648 166.313 142.471C165.462 144.987 163.151 146.883 160.491 147.144C158.587 147.33 158.567 150.332 160.491 150.144C160.533 150.14 160.571 150.128 160.613 150.124C160.235 152.691 159.859 155.258 159.483 157.824C159.206 159.712 162.097 160.53 162.377 158.622Z" fill="#2B454E"/>
<path d="M143.526 261.615C143.526 261.615 167.591 220.859 174.017 213.455C178.458 208.339 194.877 199.283 205.453 190.581C207.583 188.828 211.098 181.189 215.813 180.612C222.162 179.837 231.683 193.029 228.026 204.788C224.367 216.548 206.723 227.999 205.311 230.347C203.901 232.696 214.067 258.897 210.465 266.025C206.861 273.152 176.73 290.843 171.749 290.62C166.769 290.396 140.89 268.855 143.526 261.615Z" fill="#FFC800"/>
<path d="M214.039 206.902C217.537 209.772 221.774 210.442 225.365 210.299C226.525 208.484 227.453 206.646 228.027 204.78C231.679 193.032 222.166 179.84 215.818 180.614C211.09 181.188 207.579 188.83 205.453 190.59C205.453 190.59 206.286 200.536 214.039 206.902" fill="#ECECEC"/>
<path d="M223.788 184.649C223.864 184.584 223.975 184.686 223.917 184.768C222.419 186.89 220.997 189.082 219.708 191.338C218.536 193.393 217.492 195.513 217.772 197.949C217.789 198.094 217.577 198.133 217.545 197.988C217.037 195.674 217.173 193.098 218.16 190.924C219.36 188.286 221.633 186.474 223.788 184.649" fill="#1A2E35"/>
<path d="M218.256 180.499C218.33 180.434 218.443 180.535 218.386 180.619C217.246 182.251 216.03 184.491 214.68 187.138C213.716 189.027 211.931 191.903 213.31 193.966C213.547 194.32 213.332 194.411 213.027 194.107C211.195 192.28 212.088 189.286 212.964 187.224C214.12 184.507 216.078 182.43 218.256 180.499Z" fill="#1A2E35"/>
<path d="M155.343 241.977C154.701 243.75 153.907 245.422 153.06 247.061C152.223 248.705 151.297 250.292 150.363 251.873C149.395 253.433 148.424 254.989 147.369 256.496C146.325 258.012 145.24 259.492 144.059 260.957C144.496 259.117 145.223 257.389 146.016 255.716C146.804 254.036 147.711 252.424 148.653 250.837C149.628 249.269 150.629 247.72 151.74 246.238C152.84 244.752 154.004 243.306 155.343 241.977Z" fill="#1A2E35"/>
<path d="M209.368 267.624C206.479 271.253 202.929 274.276 199.316 277.143C195.684 280.004 191.824 282.567 187.848 284.932C183.844 287.251 179.689 289.316 175.404 291.063C171.123 292.816 166.675 294.171 162.153 295.08C166.339 293.112 170.488 291.247 174.541 289.168C178.58 287.068 182.595 284.948 186.505 282.632C190.436 280.352 194.284 277.932 198.109 275.457C201.907 272.94 205.728 270.441 209.368 267.624Z" fill="#1A2E35"/>
<path d="M182.379 286.467C181.731 287.667 180.923 288.756 180.056 289.788C179.193 290.828 178.239 291.783 177.244 292.697C175.232 294.485 172.98 296.083 170.415 297.015C171.409 296.079 172.419 295.228 173.407 294.347C174.384 293.456 175.385 292.604 176.353 291.707C178.328 289.952 180.256 288.16 182.379 286.467Z" fill="#1A2E35"/>
<path d="M273.996 290.708C273.996 290.708 229.596 227.142 242.748 200.824C252.436 181.44 299.401 153.993 299.401 153.993C299.401 153.993 277.239 125.276 276.944 119.454C276.651 113.633 291.307 113.368 299.181 115.274C307.053 117.181 339.235 156.261 339.624 161.18C340.013 166.097 329.281 183.846 330.753 191.47C332.227 199.094 343.475 207.913 344.251 209.214C345.025 210.516 352.428 242.544 345.815 253.114C339.201 263.684 283.523 295.685 273.996 290.708Z" fill="#FFC800"/>
<path d="M288.987 139.992C301.327 141.408 308.082 127.824 309.94 123.376C305.458 119.012 301.48 115.83 299.176 115.272C291.314 113.371 276.65 113.63 276.946 119.454C277.127 123.066 283.88 132.968 288.987 139.992Z" fill="#ECECEC"/>
<path d="M286.543 113.9C286.553 113.796 286.711 113.794 286.727 113.898C287.119 116.595 287.62 119.29 288.269 121.938C288.859 124.348 289.597 126.718 291.569 128.368C291.687 128.467 291.555 128.65 291.425 128.562C289.365 127.168 287.609 125.11 286.792 122.742C285.797 119.867 286.221 116.844 286.543 113.9Z" fill="#1A2E35"/>
<path d="M279.335 114.737C279.344 114.633 279.504 114.63 279.52 114.734C279.832 116.801 280.524 119.382 281.408 122.371C282.039 124.509 282.756 127.985 285.296 128.559C285.734 128.659 285.636 128.882 285.184 128.871C282.47 128.803 280.986 125.879 280.166 123.678C279.083 120.774 279.072 117.781 279.335 114.737Z" fill="#1A2E35"/>
<path d="M245.229 237.45C248.2 242.967 251.079 248.499 253.956 254.028C256.856 259.544 259.711 265.076 262.664 270.552C265.596 276.039 268.599 281.482 271.661 286.898C274.772 292.286 277.961 297.619 281.291 302.93C277.076 298.29 273.356 293.21 269.888 287.986C266.437 282.748 263.308 277.312 260.315 271.81C257.388 266.271 254.617 260.654 252.089 254.927C249.553 249.206 247.188 243.406 245.229 237.45Z" fill="#1A2E35"/>
<path d="M331.796 194.511C335.257 198.583 338.748 202.603 342.545 206.201C343.025 206.643 343.509 207.077 344 207.497C344.512 207.94 344.933 208.227 345.593 208.949C346.673 210.261 347.092 211.655 347.493 213.009C348.232 215.743 348.448 218.453 348.648 221.156C348.911 226.563 348.693 231.925 348.196 237.255C347.7 242.581 346.965 247.881 345.816 253.113C345.861 247.761 346.015 242.445 346.117 237.14C346.191 231.837 346.288 226.537 345.987 221.304C345.849 218.701 345.635 216.072 345.055 213.637C344.781 212.439 344.399 211.205 343.795 210.431C343.589 210.14 342.963 209.593 342.492 209.137C342.008 208.652 341.539 208.159 341.075 207.663C337.419 203.647 334.356 199.215 331.796 194.511Z" fill="#1A2E35"/>
<path d="M267.465 281.908C268.753 284.371 269.7 286.921 270.612 289.483C271.493 292.059 272.317 294.627 272.97 297.325C271.349 295.055 270.274 292.496 269.353 289.921C268.476 287.324 267.746 284.676 267.465 281.908Z" fill="#1A2E35"/>
<path d="M347.339 233.328C348.682 235.01 349.603 236.908 350.358 238.871C350.715 239.86 351.03 240.872 351.23 241.918C351.432 242.955 351.568 244.044 351.382 245.118C351.015 244.11 350.614 243.172 350.231 242.212C349.838 241.26 349.48 240.298 349.108 239.335C348.41 237.391 347.722 235.44 347.339 233.328Z" fill="#1A2E35"/>
</svg>
