<svg width="584" height="587" viewBox="0 0 584 587" fill="none" xmlns="http://www.w3.org/2000/svg">
<path d="M526.422 62.7533L526.544 53.7226L532.532 60.4213L538.999 58.408L535.836 64.156L538.878 67.3506L534.176 67.8226L534.092 73.9253L528.919 69.6293L524.714 73.1266L525.186 67.968L519.054 65.1346L526.422 62.7533Z" fill="#FFC800"/>
<path d="M520.745 521.727L529.026 525.333L520.533 528.265L519.89 535.007L515.812 529.867L511.69 531.438L513.072 526.919L507.476 524.483L513.438 521.373L511.838 516.142L516.413 518.571L521.397 514.011L520.745 521.727Z" fill="#FFC800"/>
<path d="M108.537 539.637L100.381 550.883L98.7877 537.154L88.873 533.957L97.9437 529.533L96.9477 522.822L103.278 526.393L108.79 518.794L111.489 528.779L119.876 528.107L114.712 534.175L119.912 543.17L108.537 539.637Z" fill="#FFC800"/>
<path d="M478.798 437.86L483.632 447.492L488.421 438.285L497.56 439.858L492.698 430.173L499.486 423.709L489.882 424.052L487.96 414.646L482.89 424.389L470.106 423.418L477.644 431.201L470.662 436.542L478.798 437.86Z" fill="#FFC800"/>
<path d="M255.584 62.5201L257.904 58.6214L253.552 59.0108L252.037 55.4121L249.705 59.3334L245.873 58.3921L248.173 61.7201L245.273 64.5361L249.879 64.1241L252.433 68.8774L253.484 64.4401L256.961 65.7041L255.584 62.5201Z" fill="#FFC800"/>
<path d="M509.32 267.983L508.514 265.431L506.977 267.499L504.798 266.754L505.609 269.321L503.689 270.637L506.058 270.933L506.158 273.314L507.785 271.125L510.881 271.867L509.341 269.662L511.262 268.627L509.32 267.983Z" fill="#FFC800"/>
<path d="M543.941 417.372L545.935 415.587L543.417 415.038L543.199 412.746L541.194 414.54L539.203 413.334L539.91 415.614L537.781 416.686L540.446 417.267L541.045 420.395L542.419 418.082L544.154 419.408L543.941 417.372Z" fill="#FFC800"/>
<path d="M486.879 106.87L488.874 105.085L486.355 104.535L486.138 102.243L484.133 104.038L482.142 102.831L482.849 105.111L480.719 106.185L483.385 106.766L483.983 109.893L485.359 107.579L487.093 108.906L486.879 106.87Z" fill="#FFC800"/>
<path d="M133.581 474.267L133.684 471.592L131.539 473.022L129.739 471.584L129.637 474.275L127.385 474.867L129.516 475.943L128.808 478.22L131.077 476.707L133.743 478.45L133.035 475.854L135.193 475.528L133.581 474.267Z" fill="#FFC800"/>
<path d="M184.066 38.0868L182.702 35.7841L181.674 38.1481L179.384 37.9161L180.756 40.2308L179.185 41.9494L181.56 41.6988L182.198 43.9961L183.285 41.4948L186.469 41.5148L184.468 39.7161L186.105 38.2721L184.066 38.0868Z" fill="#FFC800"/>
<path d="M57.6133 399.314L61.4839 391.837L53.4639 393.035L50.2639 386.535L46.3733 394.055L39.1693 392.731L43.7946 398.647L38.7319 404.179L47.2186 402.911L52.4733 411.439L53.9333 403.101L60.5159 405.062L57.6133 399.314Z" fill="#FFC800"/>
<path d="M96.3505 252.785L101.966 253.935L99.6958 248.903L103.362 245.602L97.7145 244.445L97.2478 239.479L94.2278 243.606L89.6651 241.314L92.0678 246.639L87.4531 251.663L93.1878 251.075L93.1211 255.751L96.3505 252.785Z" fill="#FFC800"/>
<path d="M111.627 89.5795C111.182 89.0555 85.5844 77.1795 62.403 94.8715C41.0897 111.138 33.6897 141.708 36.5204 142.438C39.9844 143.333 49.4804 128.745 67.707 120.73C74.171 117.889 84.4604 120.728 84.4604 120.728L111.627 89.5795Z" fill="#FFC800"/>
<g opacity="0.100006">
<path d="M84.4631 120.727C84.4631 120.727 80.0004 119.494 75.1084 119.468C79.1244 111.056 86.6311 95.3604 91.5031 85.1977C102.972 85.3017 111.372 89.2804 111.626 89.5777L84.4631 120.727Z" fill="black"/>
</g>
<path d="M153.795 139.316C154.24 139.84 161.768 167.036 140.523 187.01C120.988 205.376 89.6217 207.676 89.3631 204.764C89.0457 201.2 104.992 194.218 115.88 177.548C119.74 171.637 118.622 161.021 118.622 161.021L153.795 139.316Z" fill="#FFC800"/>
<g opacity="0.100006">
<path d="M154.806 160.025C143.894 163.204 127.156 168.073 118.308 170.644C119.121 165.745 118.626 161.021 118.626 161.021L153.797 139.316C154.049 139.613 156.622 148.629 154.806 160.025Z" fill="black"/>
</g>
<path d="M94.1968 172.563L69.1968 143.075C69.1968 143.075 82.2341 108.114 113.225 84.6275C128.701 72.9141 146.855 64.1448 163.109 58.3435C185.537 50.3035 204.307 47.9728 207.214 51.4008C210.133 54.8448 204.751 72.9648 193.163 93.7915C184.767 108.862 173.147 125.337 159.059 138.689C130.821 165.421 94.1968 172.563 94.1968 172.563Z" fill="#C8C8C8"/>
<path d="M154.931 126.062C145.541 134.025 131.473 132.866 123.51 123.474C115.547 114.084 116.706 100.016 126.097 92.053C135.489 84.0904 149.557 85.249 157.519 94.6397C165.481 104.032 164.323 118.1 154.931 126.062Z" fill="#A8A8A8"/>
<path d="M156.15 123.989C146.758 131.952 132.69 130.793 124.728 121.403C116.766 112.011 117.924 97.9428 127.316 89.9802C136.708 82.0175 150.776 83.1762 158.738 92.5682C166.7 101.959 165.542 116.027 156.15 123.989Z" fill="#FFC800"/>
<path d="M151.741 118.772C145.232 124.298 135.474 123.502 129.946 116.993C124.42 110.484 125.216 100.726 131.725 95.1982C138.234 89.6716 147.993 90.4676 153.52 96.9769C159.046 103.486 158.25 113.245 151.741 118.772Z" fill="white"/>
<path d="M151.744 118.773C150.24 120.05 148.557 120.995 146.796 121.601L134.376 120.587C132.737 119.703 131.231 118.499 129.953 116.994C129.024 115.901 128.279 114.715 127.708 113.473L154.529 115.662C153.765 116.795 152.839 117.843 151.744 118.773Z" fill="#ECECEC"/>
<path d="M154.86 98.8179L130.104 96.7979C130.595 96.2352 131.138 95.6979 131.723 95.2005C138.236 89.6699 147.991 90.4659 153.522 96.9792C154.019 97.5645 154.467 98.1832 154.86 98.8179Z" fill="#ECECEC"/>
<path d="M156.199 112.453L126.582 110.036C126.485 109.582 126.415 109.13 126.369 108.661L156.633 111.13C156.511 111.573 156.362 112.014 156.199 112.453Z" fill="#ECECEC"/>
<path d="M193.163 93.792L163.108 58.344C185.538 50.304 204.307 47.9733 207.214 51.4013C210.132 54.844 204.751 72.9653 193.163 93.792Z" fill="#FFC800"/>
<path d="M171.944 61.3403C171.396 61.8057 170.575 61.7377 170.109 61.1897C169.645 60.6417 169.712 59.8203 170.261 59.355C170.809 58.8897 171.629 58.9577 172.095 59.5057C172.56 60.055 172.492 60.875 171.944 61.3403Z" fill="white"/>
<path d="M177.29 67.6465C176.742 68.1118 175.921 68.0438 175.455 67.4958C174.991 66.9478 175.058 66.1265 175.607 65.6612C176.155 65.1972 176.977 65.2638 177.441 65.8118C177.906 66.3598 177.838 67.1825 177.29 67.6465Z" fill="white"/>
<path d="M182.637 73.9527C182.089 74.4167 181.267 74.35 180.802 73.802C180.338 73.254 180.405 72.4327 180.954 71.9674C181.502 71.5034 182.322 71.57 182.787 72.118C183.253 72.666 183.185 73.4874 182.637 73.9527Z" fill="white"/>
<path d="M187.983 80.2588C187.435 80.7241 186.614 80.6561 186.149 80.1081C185.685 79.5588 185.753 78.7388 186.301 78.2735C186.849 77.8095 187.67 77.8761 188.134 78.4241C188.599 78.9735 188.531 79.7935 187.983 80.2588Z" fill="white"/>
<path d="M193.33 86.5649C192.782 87.0303 191.961 86.9623 191.495 86.4143C191.031 85.8663 191.099 85.0449 191.647 84.5796C192.195 84.1143 193.017 84.1823 193.481 84.7303C193.946 85.2783 193.878 86.0996 193.33 86.5649Z" fill="white"/>
<path d="M76.4092 142.386C75.8612 142.852 75.0399 142.784 74.5745 142.236C74.1105 141.688 74.1772 140.866 74.7265 140.401C75.2745 139.937 76.0959 140.004 76.5599 140.552C77.0252 141.1 76.9572 141.921 76.4092 142.386Z" fill="#A8A8A8"/>
<path d="M81.7557 148.692C81.2077 149.158 80.3864 149.09 79.9224 148.542C79.457 147.994 79.525 147.172 80.073 146.707C80.621 146.242 81.4424 146.31 81.9064 146.858C82.3717 147.406 82.3037 148.227 81.7557 148.692Z" fill="#A8A8A8"/>
<path d="M87.1026 154.998C86.5546 155.463 85.7332 155.395 85.2679 154.847C84.8039 154.299 84.8706 153.478 85.4199 153.013C85.9679 152.549 86.7879 152.615 87.2532 153.163C87.7186 153.713 87.6506 154.533 87.1026 154.998Z" fill="#A8A8A8"/>
<path d="M92.4488 161.304C91.9008 161.77 91.0795 161.702 90.6141 161.154C90.1501 160.606 90.2181 159.784 90.7661 159.319C91.3141 158.855 92.1355 158.922 92.5995 159.47C93.0648 160.018 92.9968 160.839 92.4488 161.304Z" fill="#A8A8A8"/>
<path d="M97.7952 167.61C97.2472 168.076 96.4259 168.008 95.9619 167.46C95.4966 166.912 95.5646 166.09 96.1126 165.625C96.6606 165.16 97.4819 165.228 97.9459 165.776C98.4112 166.324 98.3432 167.145 97.7952 167.61Z" fill="#A8A8A8"/>
<g opacity="0.199997">
<path d="M205.806 50.5242C188.495 51.7562 158.529 62.2469 126.975 86.9869C103.667 105.262 86.6606 137.244 78.734 154.324L69.1953 143.075C69.1953 143.075 82.2313 108.112 113.225 84.6282C128.699 72.9122 146.855 64.1455 163.109 58.3455C183.213 51.1335 200.367 48.5202 205.806 50.5242Z" fill="white"/>
</g>
<path d="M83.029 177.366L62.6997 153.384L70.6064 144.744L92.8477 170.978L83.029 177.366Z" fill="#FFC800"/>
<g opacity="0.100006">
<path d="M92.8455 170.977L88.0615 174.085L67.5815 148.049L70.6055 144.748L92.8455 170.977Z" fill="black"/>
</g>
<g opacity="0.600006">
<path d="M78.558 172.013C69.1354 178.367 60.814 186.478 54.738 196.161C48.6607 205.807 44.8887 217.047 44.5407 228.673C44.3914 234.473 45.094 240.337 46.6647 246.023C48.2314 251.711 50.6687 257.217 53.858 262.323C57.0447 267.435 60.9767 272.145 65.4394 276.354C69.902 280.569 74.8874 284.286 80.1927 287.541C74.55 284.925 69.1034 281.783 64.046 278.015C58.9914 274.251 54.33 269.853 50.3234 264.834C46.3154 259.823 42.97 254.193 40.5114 248.129C38.0474 242.069 36.4754 235.585 35.8754 228.967C34.7074 215.71 37.506 202.097 43.306 189.958C49.09 177.771 57.7714 167.041 68.01 158.246L78.558 172.013Z" fill="#FFC800"/>
</g>
<path d="M62.44 186.467L58.732 187.152L57.904 191.062L57.0747 187.152L53.3667 186.466L57.0587 185.563L57.904 181.871L58.748 185.563L62.44 186.467Z" fill="white"/>
<path d="M48.7933 259.665L46.7213 260.049L46.2573 262.233L45.7947 260.049L43.7227 259.664L45.7853 259.16L46.2573 257.096L46.7293 259.16L48.7933 259.665Z" fill="white"/>
<path d="M47.6809 240.703L45.6076 241.085L45.1449 243.271L44.6822 241.085L42.6089 240.701L44.6729 240.197L45.1449 238.133L45.6169 240.197L47.6809 240.703Z" fill="white"/>
<path d="M59.6991 174.283L57.6271 174.667L57.1631 176.851L56.7004 174.667L54.6284 174.282L56.6911 173.778L57.1631 171.714L57.6351 173.778L59.6991 174.283Z" fill="white"/>
<path d="M53.6962 264.39C52.9229 264.39 52.9216 265.592 53.6962 265.592C54.4696 265.592 54.4709 264.39 53.6962 264.39Z" fill="white"/>
<path d="M70.8451 171.354C70.0718 171.354 70.0705 172.555 70.8451 172.555C71.6185 172.555 71.6198 171.354 70.8451 171.354Z" fill="white"/>
<path d="M38.498 224.933C37.7246 224.933 37.7233 226.134 38.498 226.134C39.2713 226.134 39.2726 224.933 38.498 224.933Z" fill="white"/>
<path d="M52.6268 261.265C52.0801 261.265 52.0788 262.115 52.6268 262.115C53.1735 262.115 53.1748 261.265 52.6268 261.265Z" fill="white"/>
<path d="M38.2792 203.94C37.7325 203.94 37.7312 204.791 38.2792 204.791C38.8258 204.791 38.8272 203.94 38.2792 203.94Z" fill="white"/>
<path d="M42.6096 247.412C41.1269 247.412 41.1242 249.716 42.6096 249.716C44.0922 249.716 44.0936 247.412 42.6096 247.412Z" fill="white"/>
<path d="M43.7219 200.032C42.2392 200.032 42.2366 202.336 43.7219 202.336C45.2046 202.336 45.2072 200.032 43.7219 200.032Z" fill="white"/>
<path d="M402.663 425.271C402.663 425.271 409.756 462.491 389.528 480.367C369.3 498.243 347.696 502.947 302.283 493.539C256.87 484.131 226.998 472.135 208.723 488.835C208.723 488.835 205.124 494.793 215.787 506.711C226.45 518.628 238.931 546.047 213.142 565.984C182.716 589.504 136.448 564.416 128.291 519.568C120.134 474.721 153.775 419.704 222.1 422.751C290.427 425.799 310.812 439.457 323.67 439.84C336.528 440.224 338.476 429.028 338.476 429.028L402.663 425.271Z" fill="#2B454E"/>
<path d="M212.18 502.477C188.323 500.097 165.555 505.83 150.198 525.194C145.264 531.17 141.38 537.917 137.935 544.869C140.424 537.481 143.803 530.263 148.554 523.917C163.175 503.425 188.376 496.819 212.18 502.477Z" fill="#1A2E35"/>
<path d="M219.895 482.374C211.819 460.107 192.734 448.155 169.298 449.146C162.016 449.379 154.722 450.49 147.488 452.066C154.426 449.497 161.711 447.661 169.19 447.067C193.104 444.729 214.76 458.374 219.895 482.374Z" fill="#1A2E35"/>
<path d="M208.724 488.834C187.663 474.549 162.961 475.685 141.393 488.091C138.729 489.814 134.592 492.17 132.139 494.147C130.656 495.257 129.151 496.345 127.623 497.419C138.091 486.746 151.573 478.453 166.648 476.345C181.531 474.263 197.659 478.595 208.724 488.834Z" fill="#1A2E35"/>
<path d="M231.656 480.52C233.997 461.627 230.133 440.368 214.334 428.181C212.193 426.424 209.854 424.912 207.476 423.396C210.112 424.379 212.676 425.609 215.096 427.116C232.757 437.905 237.646 461.736 231.656 480.52Z" fill="#1A2E35"/>
<path d="M246.295 481.532C256.458 465.756 259.41 448.094 250.151 431.149C249.1 428.854 247.51 426.625 246.295 424.414C247.967 426.292 249.907 428.334 251.274 430.474C262.788 446.552 259.75 467.649 246.295 481.532Z" fill="#1A2E35"/>
<path d="M264.742 485.048C272.684 478.449 278.315 468.964 280.88 459.047C283.519 448.895 281.455 438.344 276.708 429.028C283.492 437.42 286.184 449.131 283.47 459.679C280.726 470.003 274.266 479.937 264.742 485.048Z" fill="#1A2E35"/>
<path d="M287.92 490.396C301.64 480.113 310.012 464.768 308.661 447.448C308.303 443.42 307.604 439.864 306.804 435.916C307.761 438.309 308.905 440.821 309.483 443.352C314.849 461.976 305.271 482.116 287.92 490.396Z" fill="#1A2E35"/>
<path d="M317.962 496.365C321.73 493.071 323.28 487.998 324.866 483.406C329.021 469.258 329.984 453.533 323.67 439.841C332.936 452.398 332.164 470.053 326.821 484.097C324.846 488.667 322.516 493.875 317.962 496.365Z" fill="#1A2E35"/>
<path d="M350.341 497.837C353.472 479.875 350.031 457.884 337.913 443.767C336.129 441.697 334.133 439.803 332.024 437.98C334.469 439.315 336.745 440.977 338.851 442.853C352.849 455.592 357.031 480.531 350.341 497.837Z" fill="#1A2E35"/>
<path d="M337.074 432.743C361.316 438.916 381.384 461.656 380.63 487.267C377.014 461.813 360.096 443.056 337.074 432.743Z" fill="#1A2E35"/>
<path d="M338.477 429.029C363.281 425.245 390.926 437.993 400.977 461.625C387.089 439.962 363.737 429.486 338.477 429.029Z" fill="#1A2E35"/>
<g opacity="0.100006">
<path d="M402.674 454.539C378.597 462.702 339.426 475.533 332.693 474.995C325.45 474.415 232.65 460.722 228.095 458.062C224.361 455.869 198.19 438.102 183.35 428.001C194.654 424.069 207.597 422.102 222.097 422.753C290.423 425.794 310.809 439.459 323.667 439.842C336.526 440.223 338.478 429.034 338.478 429.034L402.659 425.271C402.659 425.271 405.375 439.474 402.674 454.539Z" fill="black"/>
</g>
<path d="M205.359 252.918C205.359 252.918 195.715 252.447 192.658 252.918C189.601 253.389 184.661 255.975 184.661 255.975C184.661 255.975 171.959 247.273 160.434 249.861C148.909 252.447 131.503 275.498 129.622 294.315C127.739 313.131 128.915 358.998 139.501 378.285C150.085 397.573 222.53 450.025 233.114 454.729C243.699 459.433 308.398 468.135 333.322 467.665C358.246 467.195 427.393 424.025 445.039 406.746C456.329 395.691 461.974 341.122 462.209 330.067C462.445 319.013 445.979 283.261 445.979 283.261L205.359 252.918Z" fill="#C8C8C8"/>
<g opacity="0.100006">
<path d="M462.216 330.067C461.974 341.129 456.33 395.691 445.042 406.74C427.388 424.027 358.241 467.2 333.314 467.668C308.404 468.135 243.698 459.435 233.117 454.724C222.536 450.027 150.078 397.573 139.497 378.292C133.286 366.988 130.33 346.561 129.312 327.789C130.966 339.375 144.844 368.233 149.372 374.401C153.926 380.597 225.436 433.335 239.865 436.603C254.28 439.869 324.573 445.727 338.04 445.628C351.508 445.515 431.009 403.84 437.984 397.077C444.957 390.316 459.697 352.616 462.216 330.067Z" fill="black"/>
</g>
<path d="M208.574 249.233C208.574 249.233 188.188 216.93 189.13 202.19C190.071 187.45 232.722 138.841 249.343 125.982C265.966 113.125 304.854 106.225 318.026 106.225C331.196 106.225 368.742 120.674 368.742 120.674C368.742 120.674 373.07 110.585 376.984 88.6625C378.816 78.3998 447.234 115.006 444.098 175.533C444.098 175.533 460.092 234.398 461.034 242.286C461.974 250.174 440.02 278.4 440.02 278.4C440.02 278.4 420.464 286.721 393.195 292.177C365.043 297.808 332.843 301.606 291.682 292.512C231.303 279.172 208.574 249.233 208.574 249.233Z" fill="#FFC800"/>
<path d="M226.188 148.583C226.449 134.451 214.689 99.7963 211.709 95.2483C208.731 90.7017 251.437 81.2657 293.199 109.426L226.188 148.583Z" fill="#FFC800"/>
<g opacity="0.100006">
<path d="M234.217 143.891C234.217 143.891 231.35 115.202 221.001 101.678C219.272 99.4191 250.637 100.434 277.569 119.294C277.569 119.294 267.014 124.903 259.658 129.024C259.658 129.024 254.129 126.316 249.872 126.122C245.614 125.927 238.812 128.19 238.812 128.19C238.812 128.19 246.87 129.811 248.936 131.17C251.002 132.528 252.328 134.678 252.328 134.678C252.328 134.678 248.836 132.862 247.146 132.638C245.457 132.412 242.738 133.334 242.738 133.334C242.738 133.334 246.592 133.518 248.525 136.255C248.525 136.255 237.349 142.06 234.217 143.891Z" fill="black"/>
</g>
<g opacity="0.100006">
<path d="M374.24 124.434C374.24 124.434 379.483 106.953 380.944 95.2674C381.296 92.4448 418.93 114.319 417.402 153.835C417.402 153.835 403.111 142.075 395.819 137.841C395.819 137.841 396.172 129.962 394.174 126.198C392.174 122.434 386.764 117.73 386.764 117.73C386.764 117.73 389.468 125.493 389.351 127.962C389.234 130.431 388.058 132.666 388.058 132.666C388.058 132.666 387.843 128.737 387.176 127.169C386.511 125.601 384.334 123.729 384.334 123.729C384.334 123.729 386.136 127.139 384.764 130.197C384.764 130.197 380.532 126.257 374.24 124.434" fill="black"/>
</g>
<g opacity="0.100006">
<path d="M440.02 278.404C440.02 278.404 420.469 286.722 393.196 292.183C365.045 297.812 332.848 301.604 291.683 292.508C233.188 279.579 210.031 251.088 208.644 249.319C213.708 254.61 250.856 276.41 260.037 279.451C269.26 282.507 320.965 290.274 342.864 287.444C364.761 284.628 423.313 270.284 427.317 267.228C431.32 264.159 440.94 239.998 442.595 233.391C444.264 226.771 436.356 173.552 436.356 173.552C436.356 173.552 445.349 124.43 392.135 91.0658C412.619 101.76 446.315 132.642 444.095 175.532C444.095 175.532 460.093 234.395 461.027 242.288C461.975 250.168 440.02 278.404 440.02 278.404Z" fill="black"/>
</g>
<path d="M247.029 171.007C235.935 168.275 227.627 177.979 224.44 190.92C221.86 201.403 225.811 213.727 236.459 216.348C247.107 218.97 256.789 208.012 259.212 198.171C261.635 188.328 259.077 173.972 247.029 171.007Z" fill="#1A2E35"/>
<path d="M247.429 173.983C236.999 171.415 229.19 180.536 226.195 192.702C223.77 202.554 227.483 214.139 237.493 216.603C247.502 219.067 256.603 208.767 258.881 199.516C261.158 190.266 258.753 176.771 247.429 173.983Z" fill="white"/>
<path d="M249.227 179.06C241.063 177.051 234.95 184.191 232.606 193.714C230.707 201.426 233.614 210.495 241.45 212.423C249.284 214.352 256.408 206.29 258.191 199.048C259.975 191.806 258.092 181.243 249.227 179.06Z" fill="#1A2E35"/>
<path d="M331.461 188.222C346.307 187.485 354.341 198.509 355.002 211.819C355.537 222.601 347.271 234.047 333.023 234.755C318.774 235.463 309.319 222.962 308.817 212.839C308.314 202.715 315.339 189.022 331.461 188.222Z" fill="#1A2E35"/>
<path d="M330.171 191.084C344.125 190.39 351.677 200.753 352.299 213.265C352.801 223.4 345.033 234.158 331.639 234.824C318.245 235.489 309.359 223.738 308.885 214.224C308.413 204.708 315.017 191.836 330.171 191.084Z" fill="white"/>
<path d="M330.805 193.629C342.199 193.064 348.363 201.522 348.871 211.738C349.281 220.012 342.939 228.796 332.004 229.338C321.069 229.882 313.815 220.289 313.428 212.52C313.043 204.752 318.435 194.244 330.805 193.629Z" fill="#1A2E35"/>
<path d="M284.003 207.556C283.646 208.936 274.512 213.002 273.538 212.871C272.578 212.742 264.692 206.383 264.656 204.95C264.619 203.532 272.551 204.071 274.559 204.342C276.58 204.615 284.372 206.194 284.003 207.556Z" fill="#1A2E35"/>
<path d="M257.033 214.087C258.141 216.263 259.278 218.418 260.587 220.42C261.251 221.404 261.937 222.398 262.742 223.132C263.129 223.492 263.595 223.762 263.854 223.776C264.118 223.786 264.626 223.655 265.011 223.404C265.853 222.908 266.59 222.024 267.277 221.13C267.954 220.21 268.566 219.212 269.126 218.176C270.247 216.118 271.273 213.924 272.103 211.739L273.645 207.684L274.515 211.94C275.089 214.744 275.918 217.59 276.961 220.254C277.486 221.587 278.091 222.883 278.834 224.046C279.589 225.172 280.465 226.255 281.531 226.686L281.93 226.816L282.339 226.884C282.647 226.9 282.963 226.892 283.283 226.858C283.923 226.78 284.579 226.603 285.219 226.346C286.509 225.836 287.727 225.047 288.894 224.183C291.221 222.428 293.322 220.312 295.283 218.07C293.727 220.619 291.861 222.994 289.637 225.075C288.522 226.112 287.283 227.05 285.861 227.771C284.433 228.452 282.79 229.028 280.897 228.466C279.129 227.851 277.967 226.543 277.038 225.266C276.121 223.956 275.407 222.571 274.782 221.163C273.558 218.327 272.718 215.436 272.046 212.427L274.458 212.628C273.506 214.967 272.469 217.196 271.17 219.356C270.517 220.43 269.802 221.478 268.983 222.476C268.154 223.466 267.21 224.422 265.895 225.084C265.214 225.398 264.502 225.631 263.554 225.496C262.607 225.27 262.09 224.714 261.625 224.228C260.739 223.206 260.13 222.114 259.577 220.996C258.499 218.759 257.667 216.451 257.033 214.087Z" fill="#1A2E35"/>
<path d="M219.336 197.518C213.186 196.374 207.012 195.437 200.82 194.642C194.629 193.855 188.429 193.137 182.204 192.706C179.098 192.409 175.982 192.242 172.87 192.038C169.753 191.894 166.637 191.75 163.518 191.663C157.28 191.421 151.037 191.507 144.778 191.534C147.894 191.285 151.016 191.014 154.142 190.886C157.27 190.774 160.401 190.678 163.533 190.695C169.797 190.666 176.058 191.002 182.305 191.453C188.546 191.99 194.774 192.693 200.958 193.687C204.049 194.187 207.13 194.747 210.201 195.35C213.26 196.018 216.322 196.67 219.336 197.518Z" fill="#1A2E35"/>
<path d="M216.419 200.853C213.603 200.687 210.792 200.512 207.978 200.405C205.166 200.264 202.352 200.151 199.539 200.071C193.914 199.897 188.288 199.765 182.663 199.823C179.851 199.788 177.039 199.841 174.226 199.871L165.791 200.135L161.574 200.296L157.36 200.552C154.543 200.645 151.744 200.961 148.924 201.099C154.494 200.217 160.104 199.535 165.739 199.168C171.37 198.755 177.018 198.604 182.662 198.565C188.307 198.613 193.954 198.727 199.586 199.108C205.216 199.481 210.842 199.993 216.419 200.853Z" fill="#1A2E35"/>
<path d="M217.635 204.538C215.287 204.682 212.944 204.814 210.604 205.008C208.263 205.17 205.924 205.34 203.588 205.557C198.918 205.982 194.247 206.393 189.588 206.922C184.928 207.428 180.272 207.985 175.622 208.589C170.966 209.169 166.327 209.878 161.663 210.49C163.946 209.932 166.24 209.416 168.542 208.924C170.85 208.478 173.158 208.02 175.476 207.63C180.108 206.798 184.779 206.206 189.454 205.672C194.132 205.172 198.824 204.792 203.526 204.596C208.226 204.394 212.935 204.296 217.635 204.538Z" fill="#1A2E35"/>
<path d="M360.066 229.544C363.948 229.586 367.822 229.858 371.697 230.122C375.565 230.455 379.429 230.843 383.285 231.306C390.997 232.235 398.668 233.502 406.294 234.984C413.904 236.548 421.486 238.267 428.958 240.398C432.705 241.422 436.412 242.583 440.112 243.762C441.965 244.338 443.792 244.999 445.618 245.654L451.093 247.631C443.652 245.423 436.236 243.178 428.709 241.334C424.96 240.362 421.188 239.483 417.42 238.592C413.634 237.778 409.858 236.918 406.05 236.218C398.468 234.636 390.821 233.394 383.158 232.262C375.493 231.139 367.798 230.198 360.066 229.544Z" fill="#1A2E35"/>
<path d="M362.419 234.513C369.356 235.435 376.238 236.757 383.078 238.238C389.923 239.714 396.699 241.485 403.448 243.35C410.175 245.295 416.863 247.386 423.451 249.761C430.058 252.082 436.532 254.767 442.907 257.646C439.599 256.497 436.371 255.158 433.048 254.07L428.111 252.318L423.136 250.677C419.823 249.573 416.487 248.543 413.16 247.486C409.812 246.494 406.475 245.474 403.104 244.559C396.403 242.599 389.642 240.851 382.86 239.178C379.471 238.334 376.071 237.53 372.663 236.761C369.26 235.961 365.843 235.233 362.419 234.513Z" fill="#1A2E35"/>
<path d="M359.72 238.5C365.395 239.86 370.972 241.599 376.504 243.452C382.036 245.314 387.495 247.382 392.922 249.53C398.306 251.78 403.688 254.043 408.951 256.564C411.594 257.802 414.199 259.116 416.81 260.416C419.399 261.759 421.97 263.138 424.523 264.547C419.19 262.182 413.904 259.738 408.551 257.447C403.219 255.114 397.856 252.848 392.451 250.696C387.079 248.456 381.63 246.412 376.182 244.36C373.463 243.323 370.722 242.34 367.978 241.37C365.24 240.371 362.484 239.434 359.72 238.5Z" fill="#1A2E35"/>
<path d="M237.349 156.196C241.77 150.456 250.625 148.723 257.072 151.835C250.133 152.576 243.98 153.646 237.349 156.196Z" fill="#1A2E35"/>
<path d="M358.934 177.237C353.496 172.668 348.024 169.651 341.706 166.692C348.815 165.848 356.622 170.371 358.934 177.237Z" fill="#1A2E35"/>
<path d="M280.648 271.995C277.858 268.128 275.356 263.929 274.008 259.515C273.902 259.163 273.352 259.169 273.23 259.532C272.898 260.516 271.962 263.281 271.83 263.704C271.727 263.439 271.623 263.173 271.534 262.911C271.222 262.001 270.955 261.08 270.731 260.151C270.28 258.28 269.975 256.377 269.835 254.463C269.696 252.552 269.715 250.629 269.907 248.709C270.099 246.776 270.515 244.881 270.863 242.961C270.878 242.879 270.727 242.844 270.688 242.927C269.814 244.781 269.316 246.792 268.972 248.737C268.632 250.663 268.474 252.6 268.492 254.532C268.512 256.495 268.715 258.445 269.12 260.365C269.331 261.357 269.59 262.341 269.894 263.315C270.184 264.245 270.464 265.236 271.088 266.047C271.496 266.579 272.327 266.1 272.391 265.573C272.428 265.256 273.47 261.417 273.638 260.853C274.272 262.736 275.002 264.576 276.016 266.348C277.203 268.421 278.624 270.396 280.332 272.2C280.49 272.365 280.771 272.164 280.648 271.995Z" fill="#1A2E35"/>
<path d="M451.086 287.962C411.972 305.49 337.082 317.598 280.681 302.306C224.28 287.028 197.133 255.27 196.185 251.52C195.252 247.772 198.533 243.514 202.621 242.283H202.636C204.532 244.674 206.526 246.994 208.577 249.23C226.925 269.147 263.168 291.908 321.28 297.27C378.402 302.547 433.517 281.256 447.394 275.499C452.798 275.032 458.442 284.666 451.086 287.962Z" fill="#1A2E35"/>
<path d="M313.92 431.702C329.283 437.806 346.025 439.465 362.156 435.677C347.056 443.202 327.685 441.302 313.92 431.702Z" fill="#1A2E35"/>
<path d="M350.32 350.444C354.086 341.157 360.525 331.672 370.106 327.388C382.924 323.368 400.304 329.281 412.352 334.063C419.898 337.203 427.189 341.051 433.749 345.888C419.564 338.26 404.205 332.552 388.372 329.599C382.177 328.64 375.494 327.644 369.614 330.099C361.1 334.371 354.945 342.24 350.32 350.444Z" fill="#1A2E35"/>
<path d="M411.84 334.913C417.627 333.44 424.003 334.739 429.184 337.565C423.373 336.501 417.773 335.299 411.84 334.913Z" fill="#1A2E35"/>
<path d="M362.842 343.977C376.992 353.541 382.963 358.433 381.982 374.413C381.127 388.31 343.17 432.598 318.776 440.262C313.919 441.787 309.286 441.183 305.935 439.343L362.842 343.977Z" fill="#C8C8C8"/>
<path d="M341.685 340.278C324.965 344.75 290.461 407.413 292.594 422.569C294.294 434.649 302.765 441.264 313.354 439.582C325.986 437.576 376.685 380.641 376.719 367.117C376.759 352.065 359.647 335.474 341.685 340.278Z" fill="#375A64"/>
<path d="M376.72 367.064L338.797 341.525C339.807 340.945 340.769 340.524 341.688 340.275C342.077 340.163 342.469 340.079 342.86 339.995C343.195 339.915 343.516 339.851 343.84 339.813L375.959 361.416C376.053 361.764 376.133 362.099 376.2 362.449C376.548 363.984 376.727 365.532 376.72 367.064Z" fill="#1A2E35"/>
<path d="M376.2 362.449L342.86 339.995C343.195 339.915 343.516 339.85 343.84 339.813C344.19 339.746 344.54 339.694 344.878 339.657L375.643 360.361C375.767 360.706 375.862 361.054 375.958 361.417C376.054 361.765 376.134 362.099 376.2 362.449Z" fill="#2B454E"/>
<path d="M372.953 376.926C372.855 377.131 372.727 377.339 372.6 377.546C372.044 378.521 371.432 379.527 370.753 380.567L327.729 351.611C328.529 350.677 329.317 349.786 330.096 348.951C330.255 348.77 330.427 348.602 330.584 348.422L372.953 376.926Z" fill="#1A2E35"/>
<path d="M373.308 376.32C373.195 376.526 373.08 376.718 372.954 376.925C372.854 377.132 372.727 377.338 372.599 377.546L330.096 348.952C330.254 348.77 330.427 348.602 330.584 348.421C330.758 348.253 330.915 348.072 331.087 347.904L373.308 376.32Z" fill="#2B454E"/>
<path d="M364.906 389.057C364.762 389.237 364.619 389.431 364.478 389.625C363.79 390.553 363.077 391.495 362.347 392.439L318.953 363.241C319.621 362.258 320.305 361.274 320.977 360.334C321.119 360.141 321.249 359.961 321.39 359.767L364.906 389.057Z" fill="#1A2E35"/>
<path d="M365.319 388.475C365.177 388.67 365.034 388.863 364.906 389.057C364.762 389.238 364.619 389.431 364.478 389.626L320.977 360.335C321.119 360.141 321.249 359.962 321.39 359.767C321.519 359.574 321.662 359.379 321.79 359.186L365.319 388.475Z" fill="#2B454E"/>
<path d="M355.876 400.505C355.733 400.7 355.59 400.88 355.418 401.061C354.673 401.978 353.9 402.884 353.126 403.788L311.158 375.538C311.753 374.518 312.364 373.512 312.974 372.505C313.104 372.312 313.217 372.105 313.344 371.898L355.876 400.505Z" fill="#1A2E35"/>
<path d="M356.334 399.962C356.191 400.142 356.033 400.324 355.875 400.505C355.733 400.7 355.59 400.88 355.418 401.061L312.974 372.505C313.103 372.312 313.217 372.105 313.343 371.898C313.471 371.705 313.599 371.497 313.726 371.29L356.334 399.962Z" fill="#2B454E"/>
<path d="M346.266 411.582C346.094 411.75 345.935 411.931 345.778 412.113C344.974 412.991 344.157 413.87 343.351 414.734L304.135 388.335C304.673 387.291 305.21 386.247 305.774 385.187C305.887 384.981 305.986 384.775 306.114 384.569L346.266 411.582Z" fill="#1A2E35"/>
<path d="M346.74 411.053C346.582 411.234 346.424 411.401 346.266 411.582C346.093 411.75 345.936 411.931 345.778 412.113L305.774 385.187C305.888 384.981 305.986 384.775 306.114 384.567C306.213 384.362 306.325 384.142 306.453 383.934L346.74 411.053Z" fill="#2B454E"/>
<path d="M336.061 422.247C335.887 422.415 335.715 422.583 335.543 422.751C334.667 423.62 333.803 424.46 332.953 425.271L297.933 401.7C298.367 400.607 298.843 399.509 299.346 398.383C299.445 398.163 299.543 397.944 299.627 397.725L336.061 422.247Z" fill="#1A2E35"/>
<path d="M336.579 421.742C336.407 421.91 336.233 422.078 336.061 422.246C335.888 422.414 335.716 422.582 335.543 422.75L299.347 398.382C299.445 398.162 299.543 397.944 299.627 397.725C299.727 397.52 299.824 397.3 299.923 397.08L336.579 421.742Z" fill="#2B454E"/>
<path d="M325.051 432.357C324.85 432.527 324.662 432.683 324.475 432.837C323.454 433.66 322.472 434.437 321.543 435.125L293.127 416.001C293.375 414.864 293.687 413.652 294.066 412.377C294.135 412.145 294.204 411.913 294.287 411.667L325.051 432.357Z" fill="#1A2E35"/>
<path d="M325.614 431.893C325.426 432.048 325.238 432.202 325.052 432.357C324.85 432.528 324.662 432.682 324.474 432.837L294.066 412.377C294.136 412.145 294.205 411.914 294.286 411.668C294.341 411.437 294.425 411.204 294.506 410.957L325.614 431.893Z" fill="#2B454E"/>
<path d="M310.086 439.837C309.633 439.839 309.192 439.827 308.75 439.787C302.849 439.347 297.956 436.071 295.078 430.586C294.866 430.189 294.666 429.763 294.481 429.337L310.086 439.837Z" fill="#1A2E35"/>
<path d="M311.304 439.809C310.894 439.837 310.484 439.838 310.086 439.837C309.633 439.839 309.192 439.827 308.75 439.787L295.077 430.586C294.865 430.189 294.666 429.763 294.48 429.337C294.297 428.953 294.142 428.553 293.986 428.151L311.304 439.809Z" fill="#2B454E"/>
<path d="M365.319 345.664C390.725 358.968 384.761 379.661 369.43 398.552C365.122 403.984 360.375 409.013 355.355 413.747C359.553 408.269 363.829 402.891 367.766 397.304C381.642 377.637 387.757 361.753 365.319 345.664Z" fill="#1A2E35"/>
<path d="M362.717 404.289C362.652 407.897 361.01 411.505 358.154 413.747C359.521 410.376 360.861 407.42 362.717 404.289Z" fill="#1A2E35"/>
<path d="M305.935 439.343C316.133 442.806 326.399 436.99 334.763 431.552C336.031 430.759 337.221 429.859 338.477 429.028C334.191 433.278 329.207 436.859 323.611 439.198C318.092 441.479 311.336 442.438 305.935 439.343Z" fill="#1A2E35"/>
<path d="M337.924 432.743C336.888 434.047 335.42 434.866 333.894 435.444C332.366 435.986 330.699 436.252 329.063 435.916C329.815 435.536 330.55 435.278 331.275 434.992C333.447 434.2 335.626 433.347 337.924 432.743Z" fill="#1A2E35"/>
<path d="M137.936 363.457C154.396 361.92 170.065 355.796 182.716 345.095C172.681 358.657 154.56 365.759 137.936 363.457Z" fill="#1A2E35"/>
<path d="M141.382 265.972C153.058 244.329 168.843 243.896 187.8 257.131C192.778 260.663 197.349 264.797 201.047 269.605C196.515 265.596 191.686 262.045 186.624 258.913C167.226 247.143 155.658 247.037 141.382 265.972Z" fill="#1A2E35"/>
<path d="M108.015 260.698C124.238 255.357 131.762 253.629 143.8 264.184C154.27 273.362 166.072 330.484 157.208 354.468C155.443 359.243 152.13 362.538 148.624 364.062L108.015 260.698Z" fill="#C8C8C8"/>
<path d="M92.1447 275.17C85.45 291.13 113.902 356.763 127.195 364.35C137.79 370.396 148.203 367.744 153.354 358.339C159.497 347.122 145.485 272.183 134.81 263.88C122.93 254.64 99.3367 258.023 92.1447 275.17Z" fill="#375A64"/>
<path d="M134.768 263.848L91.3638 278.216C91.5224 277.063 91.7784 276.043 92.1438 275.164C92.2931 274.788 92.4664 274.427 92.6398 274.067C92.7811 273.754 92.9264 273.459 93.0958 273.18L129.834 260.995C130.168 261.132 130.482 261.274 130.8 261.435C132.226 262.1 133.56 262.906 134.768 263.848Z" fill="#1A2E35"/>
<path d="M130.8 261.435L92.6396 274.066C92.781 273.753 92.9263 273.459 93.0956 273.181C93.257 272.863 93.429 272.553 93.6063 272.263L128.808 260.598C129.157 260.711 129.49 260.85 129.834 260.995C130.168 261.133 130.482 261.274 130.8 261.435Z" fill="#2B454E"/>
<path d="M140.264 272.862C140.365 273.066 140.452 273.294 140.537 273.522C140.968 274.558 141.39 275.656 141.798 276.83L92.5703 293.143C92.3196 291.938 92.097 290.768 91.9143 289.642C91.8663 289.407 91.8396 289.167 91.793 288.932L140.264 272.862Z" fill="#1A2E35"/>
<path d="M140.002 272.211C140.095 272.427 140.178 272.635 140.264 272.863C140.366 273.067 140.452 273.293 140.538 273.521L91.9137 289.643C91.867 289.407 91.8404 289.168 91.7937 288.932C91.7657 288.693 91.719 288.457 91.6924 288.217L140.002 272.211Z" fill="#2B454E"/>
<path d="M144.935 286.65C144.99 286.874 145.056 287.104 145.123 287.336C145.435 288.447 145.744 289.59 146.046 290.743L96.3976 307.2C96.0296 306.07 95.6696 304.928 95.3376 303.822C95.2709 303.59 95.2083 303.378 95.1416 303.146L144.935 286.65Z" fill="#1A2E35"/>
<path d="M144.728 285.967C144.794 286.199 144.861 286.429 144.934 286.649C144.99 286.873 145.056 287.105 145.122 287.336L95.3369 303.821C95.2703 303.589 95.2076 303.377 95.1423 303.145C95.0676 302.927 95.0009 302.695 94.9263 302.475L144.728 285.967Z" fill="#2B454E"/>
<path d="M148.464 300.797C148.53 301.029 148.585 301.252 148.624 301.5C148.893 302.649 149.136 303.815 149.377 304.98L101.354 320.891C100.912 319.795 100.49 318.696 100.066 317.597C99.993 317.377 99.8983 317.161 99.813 316.933L148.464 300.797Z" fill="#1A2E35"/>
<path d="M148.315 300.103C148.37 300.327 148.417 300.561 148.463 300.797C148.53 301.029 148.585 301.252 148.623 301.5L100.067 317.597C99.9926 317.377 99.8993 317.161 99.8126 316.933C99.7379 316.715 99.6526 316.487 99.5659 316.259L148.315 300.103Z" fill="#2B454E"/>
<path d="M151.345 315.176C151.372 315.416 151.419 315.65 151.467 315.886C151.669 317.06 151.864 318.244 152.055 319.41L107.18 334.274C106.683 333.212 106.185 332.148 105.692 331.053C105.597 330.836 105.496 330.632 105.411 330.405L151.345 315.176Z" fill="#1A2E35"/>
<path d="M151.216 314.477C151.263 314.713 151.298 314.94 151.346 315.176C151.372 315.414 151.419 315.65 151.466 315.886L105.692 331.052C105.598 330.836 105.496 330.632 105.41 330.405C105.308 330.2 105.203 329.977 105.116 329.749L151.216 314.477Z" fill="#2B454E"/>
<path d="M153.536 329.773C153.562 330.012 153.59 330.252 153.617 330.49C153.769 331.716 153.905 332.912 154.026 334.081L113.954 347.358C113.354 346.345 112.78 345.297 112.196 344.21C112.082 343.998 111.969 343.786 111.848 343.586L153.536 329.773Z" fill="#1A2E35"/>
<path d="M153.454 329.055C153.481 329.295 153.509 329.533 153.535 329.773C153.563 330.012 153.59 330.252 153.618 330.491L112.195 344.209C112.082 343.997 111.969 343.785 111.847 343.585C111.745 343.381 111.631 343.169 111.518 342.957L153.454 329.055Z" fill="#2B454E"/>
<path d="M154.796 344.667C154.808 344.93 154.815 345.174 154.823 345.417C154.85 346.727 154.863 347.979 154.839 349.137L122.327 359.91C121.578 359.018 120.81 358.029 120.034 356.949C119.892 356.753 119.752 356.557 119.607 356.341L154.796 344.667Z" fill="#1A2E35"/>
<path d="M154.774 343.938C154.782 344.181 154.788 344.425 154.796 344.668C154.808 344.93 154.815 345.174 154.823 345.417L120.034 356.95C119.894 356.753 119.752 356.557 119.607 356.341C119.458 356.157 119.326 355.949 119.18 355.733L154.774 343.938Z" fill="#2B454E"/>
<path d="M151.555 361.081C151.28 361.441 151.002 361.782 150.699 362.107C146.739 366.506 141.155 368.371 135.055 367.291C134.611 367.217 134.152 367.114 133.702 366.999L151.555 361.081Z" fill="#1A2E35"/>
<path d="M152.278 360.1C152.05 360.442 151.798 360.767 151.555 361.08C151.279 361.442 151.001 361.782 150.699 362.107L135.055 367.291C134.611 367.216 134.153 367.114 133.702 366.999C133.286 366.908 132.874 366.787 132.462 366.664L152.278 360.1Z" fill="#2B454E"/>
<path d="M191.424 260.995C194.875 260.589 198.534 261.779 201.047 264.208C197.619 263.405 194.639 262.429 191.424 260.995Z" fill="#1A2E35"/>
<path d="M142.993 263.489C155.25 271.53 159.101 300.598 159.278 314.477C158.676 312.266 158.193 310.046 157.704 307.83C156.284 301.416 154.794 294.334 153.198 288.021C152.117 283.669 150.921 279.348 149.406 275.132C147.844 270.969 146.245 266.67 142.993 263.489Z" fill="#1A2E35"/>
<path d="M157.322 301.224C160.018 303.621 161.689 307.216 161.532 310.844C159.862 307.612 158.49 304.67 157.322 301.224Z" fill="#1A2E35"/>
<path d="M152.278 362.043C158.512 354.691 159.163 344.875 160.326 335.728C161.102 344.852 159.982 355.966 152.278 362.043Z" fill="#1A2E35"/>
<path d="M162.786 338.566C163.101 340.201 162.767 341.849 162.214 343.385C161.629 344.897 160.747 346.335 159.427 347.358C159.629 346.541 159.91 345.814 160.166 345.078C160.978 342.914 161.749 340.703 162.786 338.566Z" fill="#1A2E35"/>
<path d="M198.227 278.624C196.575 289.901 198.392 336.809 215.369 340.117C232.347 343.425 232.913 318.444 251.379 300.504C251.379 300.504 239.541 286.696 224.137 280.702C208.735 274.708 198.227 278.624 198.227 278.624Z" fill="#C8C8C8"/>
<path d="M242.031 312.034C241.248 313.24 240.511 314.453 239.799 315.649C227.596 307.848 216.638 304.598 209.155 303.27C204.774 302.484 201.114 302.266 198.448 302.257C198.318 300.805 198.204 299.38 198.108 297.981C206.224 297.937 222.775 299.69 242.031 312.034Z" fill="#FFC800"/>
<path d="M246.431 305.937C245.527 307.072 244.666 308.215 243.85 309.367C223.472 296.701 205.998 295.085 197.927 295.153C197.848 293.667 197.806 292.232 197.771 290.869C206.46 290.741 224.868 292.416 246.431 305.937Z" fill="#FFC800"/>
<path d="M197.797 284.244C199.025 298.071 200.995 353.064 225.443 335.78C229.011 332.812 231.527 328.54 233.974 324.332C238.691 315.823 243.409 306.539 251.378 300.503C247.81 303.916 244.967 307.966 242.526 312.196C236.391 322.027 232.779 338.044 220.026 341.35C197.091 346.018 197.229 298.792 197.797 284.244Z" fill="#1A2E35"/>
<path d="M243.849 309.366C246.122 307.586 248.326 306.193 250.818 304.736C249.309 307.192 246.669 308.861 243.849 309.366Z" fill="#1A2E35"/>
<path d="M208.724 322.311C210.436 328.22 211.471 337.746 217.559 340.663C210.361 339.426 208.495 328.379 208.724 322.311Z" fill="#1A2E35"/>
<path d="M217.457 320.884C218.28 326.981 217.898 336.554 223.492 340.337C216.554 338.053 216.336 326.852 217.457 320.884Z" fill="#1A2E35"/>
<path d="M283.299 307.928C272.648 311.99 232.592 336.466 237.989 352.899C243.387 369.331 269.683 357.514 294.727 363.528C294.727 363.528 296.413 347.93 294.128 331.559C291.844 315.19 283.299 307.928 283.299 307.928Z" fill="#C8C8C8"/>
<path d="M275.552 361.641C274.117 361.647 272.7 361.677 271.297 361.723C272.045 347.532 269.569 336.58 267.124 329.489C265.672 325.305 264.073 322 262.779 319.663L262.777 319.648C263.379 319.237 263.981 318.841 264.569 318.445C264.703 318.348 264.823 318.267 264.944 318.197C265.412 317.885 265.881 317.572 266.351 317.272C270.292 324.253 276.723 339.272 275.552 361.641Z" fill="#FFC800"/>
<path d="M283.044 361.844C281.614 361.749 280.189 361.696 278.766 361.67C279.618 338.308 272.674 322.669 268.724 315.746L268.722 315.732C269.085 315.5 269.434 315.282 269.785 315.08C270.416 314.68 271.034 314.31 271.641 313.956C271.897 313.805 272.14 313.654 272.381 313.504L272.382 313.518C276.658 320.894 283.954 337.268 283.044 361.844Z" fill="#FFC800"/>
<path d="M278.183 310.296C267.826 317.499 226.616 342.052 241.835 356.577C247.255 361.639 255.158 361.392 262.311 361.501C272.295 361.337 282.511 361.195 292.388 363.019C282.351 362.199 272.412 362.896 262.363 363.519C254.94 363.8 245.954 364.065 240.036 358.449C222.396 340.681 264.991 317.005 278.183 310.296Z" fill="#1A2E35"/>
<path d="M282.429 362.319C285.243 362.967 287.711 363.804 290.411 364.823C287.554 365.195 284.595 364.193 282.429 362.319Z" fill="#1A2E35"/>
<path d="M250.288 338.409C245.965 342.788 238.156 348.337 238.581 355.076C236.148 348.19 244.88 341.169 250.288 338.409Z" fill="#1A2E35"/>
<path d="M255.796 345.335C250.876 349.029 242.333 353.367 241.761 360.095C240.369 352.926 250.04 347.269 255.796 345.335Z" fill="#1A2E35"/>
<g opacity="0.199997">
<path d="M208.573 249.233C187.541 226.404 173.605 194.35 173.135 164.714C172.664 135.077 181.132 104.5 199.949 80.9795C218.765 57.4582 276.507 14.6502 362.419 31.5849C448.331 48.5196 491.611 114.041 493.492 177.237C494.988 227.478 447.391 275.498 447.391 275.498C433.513 281.261 378.396 302.548 321.275 297.273C263.167 291.908 226.92 269.148 208.573 249.233Z" fill="#ECECEC"/>
</g>
<path d="M208.574 249.233C252.12 294.408 327.074 305.141 386.472 293.21C407.072 289.389 428.242 282.913 447.134 275.244C452.039 270.112 456.59 264.61 460.895 258.95C477.735 236.446 492.07 210.05 492.978 181.401C493.518 124.006 457.114 69.5943 405.123 46.021C347.135 19.1117 274.684 21.8303 222.483 60.3917C186.591 85.281 170.343 130.09 173.738 172.706C176.524 201.098 189.52 228.146 208.574 249.233ZM208.574 249.233C189.443 228.182 176.37 201.152 173.496 172.729C171.216 144.357 177.471 114.924 192.712 90.733C208.06 66.4303 233.302 49.8943 259.568 39.3036C311.66 18.5276 377.142 25.3343 424.411 55.3077C467.046 81.969 494.479 131.049 494.006 181.425C493.4 203.018 484.708 223.552 473.648 241.772C466.134 253.926 457.51 265.393 447.648 275.753C428 283.844 407.454 289.82 386.572 293.744C327.078 305.522 252.04 294.58 208.574 249.233Z" fill="#1A2E35"/>
<g opacity="0.600006">
<path d="M214.129 111.113C202.74 122.861 209.936 156.599 224.632 155.569C236.662 154.726 243.91 141.445 245.38 132.538C246.85 123.631 243.932 111.469 235.249 107.689C227.91 104.491 218.306 106.803 214.129 111.113Z" fill="white"/>
<path d="M242.046 89.3537C237.947 92.4311 240.793 101.824 245.827 103.591C250.862 105.358 256.145 99.3097 255.277 95.3551C254.407 91.4004 245.742 86.5791 242.046 89.3537Z" fill="white"/>
<path d="M436.177 262.498C440.106 263.281 444.094 256.728 442.498 252.874C440.902 249.021 436.113 250.121 434.262 252.689C432.411 255.256 432.634 261.793 436.177 262.498Z" fill="white"/>
</g>
</svg>
