<svg width="488" height="583" viewBox="0 0 488 583" fill="none" xmlns="http://www.w3.org/2000/svg">
<path d="M474.072 527.02C474.072 557.513 368.081 582.233 237.333 582.233C106.586 582.233 0.595703 557.513 0.595703 527.02C0.595703 496.526 106.586 471.806 237.333 471.806C368.081 471.806 474.072 496.526 474.072 527.02Z" fill="#ECECEC"/>
<path d="M430.098 397.565C429.406 411.474 409.18 491.888 398.53 500.746C387.88 509.604 368.67 513.681 368.67 513.681C368.67 513.681 346.594 536.645 335.987 539.254C325.364 541.864 298.41 543.57 298.41 543.57C298.41 543.57 266.743 562.161 229.292 561.964C191.83 561.766 162.518 544.162 162.518 544.162C162.518 544.162 131.783 539.818 126.084 536.645C120.371 533.457 101.963 519.126 101.963 519.126C101.963 519.126 88.4362 518.773 82.3282 514.57C76.2215 510.366 56.6148 492.974 53.9068 480.294C51.1842 467.598 41.4935 385.224 45.5415 362.472C49.6042 339.733 108.354 273.226 118.03 266.258C124.236 261.788 134.632 257.993 146.875 254.876L156.086 275.356L151.628 253.718C153.59 253.268 155.578 252.83 157.61 252.406L169.755 282.396L172.83 249.572C200.25 245.03 228.912 243.084 239.914 243.478C250.438 243.86 274.6 246.864 297.479 250.729L301.559 265.882L308.184 252.618C311.428 253.225 314.603 253.832 317.635 254.466V280.364L330.458 257.301C337.143 258.938 342.46 260.574 345.607 262.084C361.248 269.616 430.775 383.657 430.098 397.565Z" fill="#FFC800"/>
<g opacity="0.199997">
<path d="M399.24 416.107C399.213 422.067 398.428 428.547 396.814 435.88C395.413 442.294 393.573 448.692 391.654 455.227C389.773 461.627 387.733 468.147 385.601 474.614C383.333 481.4 381.094 487.574 378.746 493.44L377.52 496.547C375.466 501.692 373.36 507.026 370.946 512.12C370.786 512.44 370.481 512.627 370.133 512.627C370.026 512.627 369.906 512.6 369.786 512.56C369.333 512.374 369.106 511.907 369.254 511.454C369.56 510.467 369.906 509.494 370.254 508.534C370.466 507.92 370.68 507.32 370.893 506.707C375.601 492.894 379.666 480.56 383.321 468.974C385.453 462.227 387.321 455.987 389.066 449.92C390.708 444.187 392.56 437.507 393.786 430.827C395.08 423.84 395.506 417.534 395.133 411.56C394.761 405.814 393.641 399.814 391.708 393.214C388.573 382.587 384.066 372.187 379.693 362.134C378.96 360.467 378.24 358.8 377.52 357.12L375.988 353.574C371.213 342.48 366.268 331 360.988 319.92C360.773 319.48 360.946 318.974 361.386 318.76C361.8 318.56 362.293 318.734 362.493 319.147L363.148 320.48C363.68 321.56 364.213 322.64 364.746 323.72C370.333 334.8 376.773 347.707 382.761 360.574C388.12 372.094 393.666 384.014 396.8 396.88C398.453 403.614 399.268 410.079 399.24 416.107Z" fill="black"/>
<path d="M128.253 306.254C127.333 307.786 126.413 309.334 125.52 310.893C117.707 324.346 110.773 336.786 104.307 348.947L103.093 351.214C100.253 356.519 97.3066 362.013 95.2666 367.693C92.96 374.133 92.28 380.679 91.9866 388.534C91.44 402.839 91.5466 417.374 92.2933 431.721C93 445.307 94.32 459.307 96.3466 474.534C97.2 480.974 98.2266 487.761 99.5733 495.893C100.213 499.761 100.96 503.679 101.693 507.466C102.32 510.733 102.973 514.094 103.547 517.427C103.64 517.959 103.307 518.453 102.773 518.573C102.693 518.601 102.613 518.601 102.533 518.601C102.107 518.601 101.747 518.334 101.613 517.906C101.147 516.346 100.693 514.693 100.173 512.721C98.2 505.239 96.68 497.721 95.44 491.346C93.9866 483.814 92.8133 476.786 91.8533 469.867C89.9466 456.054 88.6666 441.387 88.0533 426.281C87.3466 408.667 87.4266 395.186 88.32 382.559C88.6266 378.267 89.12 374.839 89.88 371.761C90.64 368.721 91.7733 365.601 93.44 361.934C96.36 355.506 99.9066 349.267 103.587 342.906C110.693 330.614 118.267 318.321 126.72 305.321C126.893 305.054 127.187 304.906 127.48 304.906C127.653 304.906 127.813 304.959 127.973 305.054C128.387 305.321 128.507 305.827 128.253 306.254Z" fill="black"/>
<path d="M330.641 402.201C333.239 417.839 333.441 433.839 331.254 449.746C329.267 464.161 325.506 479.227 319.761 495.814C317.334 502.799 314.519 510.161 311.161 518.334C308.254 525.387 305.107 532.881 301.346 540.079C301.186 540.387 300.881 540.547 300.559 540.547C300.427 540.547 300.307 540.534 300.186 540.481C299.761 540.293 299.547 539.827 299.679 539.399C300.334 537.346 300.959 535.547 301.601 533.894C302.321 531.987 303.026 530.066 303.733 528.147C304.399 526.346 305.054 524.534 305.746 522.746C307.161 519.013 308.559 515.281 309.946 511.547C313.133 503.013 315.626 495.906 317.786 489.186C323.254 472.267 326.613 457.281 328.041 443.374C328.853 435.466 329.079 427.693 328.707 420.239C328.346 413.293 327.359 405.693 325.573 396.346C322.786 381.786 319.559 366.453 315.399 348.079C312.094 333.453 308.186 317.786 303.441 300.186L303.279 299.561L303.959 299.293C304.334 299.173 304.733 299.387 304.853 299.774C305.466 301.707 306.079 303.641 306.679 305.573C311.466 321.001 315.974 337.161 320.066 353.587C324.559 371.587 328.079 386.733 330.641 402.201Z" fill="black"/>
<path d="M159.973 528.72C160.907 533.427 161.88 538.307 162.4 543.16C162.453 543.587 162.187 543.947 161.773 544.054C161.707 544.067 161.653 544.067 161.587 544.067C161.227 544.067 160.907 543.854 160.787 543.507C160.187 541.774 159.693 540.2 159.293 538.692C157.84 533.187 156.64 527.52 155.48 522.026L154.92 519.387C153.72 513.774 152.56 507.587 151.24 499.934C149.067 487.359 147.227 474.107 145.733 460.547C144.12 445.76 142.96 433.334 142.573 420.787C142.347 413.347 142.6 406.84 143.373 400.88C144.147 394.92 145.413 388.747 147.267 382C150.693 369.534 155.467 357.387 160.107 346.12C160.32 345.6 160.893 345.359 161.453 345.574C162.013 345.787 162.293 346.359 162.107 346.894L161.613 348.307C161.253 349.347 160.893 350.4 160.52 351.44C156.4 363.054 152.16 375.067 149.453 387.507C146.88 399.334 146.013 411.974 146.773 426.147C147.427 438.026 148.533 450.534 150.28 465.48C151.8 478.52 153.627 491.654 155.733 504.534L156.133 507.04C157.053 512.627 157.987 518.414 159.067 524.067C159.36 525.614 159.667 527.16 159.973 528.72Z" fill="black"/>
<path d="M339.28 277.745C332.347 280.205 325.32 282.453 318.284 284.604C311.223 286.763 304.19 288.931 297.015 290.693C282.744 294.199 268.207 296.575 253.567 297.825C238.92 299.076 224.183 299.204 209.516 298.225C194.791 297.244 180.146 295.112 165.752 291.855C158.562 290.228 151.384 288.5 144.299 286.463C137.219 284.427 130.268 282.031 123.291 279.688C121.594 279.117 119.916 278.519 118.25 277.863C118.076 277.795 117.96 278.091 118.13 278.168C124.842 281.243 131.547 284.215 138.492 286.736C145.484 289.276 152.612 291.531 159.82 293.373C174.228 297.056 189.019 299.385 203.828 300.681C218.663 301.979 233.598 302.121 248.455 301.12C263.242 300.124 277.96 297.995 292.42 294.743C299.68 293.111 306.875 291.192 313.98 288.987C321.088 286.779 327.958 283.963 334.735 280.904C336.387 280.159 337.99 279.293 339.615 278.487C340.03 278.28 339.716 277.591 339.28 277.745Z" fill="black"/>
</g>
<g opacity="0.300003">
<path d="M160.577 335.548C147.052 334.367 140.146 344.899 139.28 352.516C138.482 359.534 141.098 373.727 156.334 375.112C170.366 376.387 176.938 366.758 177.632 356.152C178.252 346.643 170.485 336.414 160.577 335.548Z" fill="black"/>
</g>
<g opacity="0.300003">
<path d="M269.609 349.832C264.741 362.505 272.008 372.403 278.963 375.631C286.235 379.007 300.339 378.824 305.908 364.575C310.519 352.776 304.319 342.203 294.329 338.579C284.547 335.028 273.175 340.547 269.609 349.832Z" fill="black"/>
</g>
<g opacity="0.300003">
<path d="M204.728 391.992C204.245 391.597 223.773 344.032 224.64 343.687C224.804 343.62 229.172 343.687 229.172 343.687C232.256 355.188 236.001 390.285 235.72 391.128C235.373 392.165 206.632 393.551 204.728 391.992Z" fill="black"/>
</g>
<g opacity="0.300003">
<path d="M318.723 445.887C309.232 454.196 299.952 461.592 288.189 466.396C287.349 466.739 284.405 466.304 283.656 466.396L280.048 443.933L246.808 452.931L255.463 474.533C243.481 476.939 232.204 477.955 223.051 477.955C197.34 477.955 164.007 469.941 132.205 444.589C96.2012 415.88 79.5505 372.253 89.9692 363.352C97.7159 356.728 108.291 364.132 130.175 381.469C136.423 386.407 143.701 391.061 151.761 395.169L139.156 414.851L166.46 429.048L176.565 405.259C177.505 405.556 180.149 404.98 181.099 405.259C182.644 405.713 182.501 407.008 184.079 407.415L179.456 428.345L201.605 432.156L202.557 411.085C203.723 411.247 205.917 410.952 207.091 411.085C212.68 411.724 217.332 412.507 223.051 412.507C244.419 412.507 279.985 408.32 298.104 399.84C324.065 387.671 348.745 361.024 357.399 375.629C366.051 390.233 346.197 421.816 318.723 445.887Z" fill="black"/>
</g>
<path d="M165.109 335.548C151.585 334.367 144.679 344.899 143.813 352.516C143.016 359.534 145.631 373.727 160.868 375.112C174.9 376.387 181.471 366.758 182.164 356.152C182.785 346.643 175.017 336.414 165.109 335.548Z" fill="#1A2E35"/>
<path d="M274.142 349.832C269.275 362.505 276.542 372.403 283.496 375.631C290.768 379.007 304.871 378.824 310.44 364.575C315.051 352.776 308.852 342.203 298.862 338.579C289.079 335.028 277.708 340.547 274.142 349.832Z" fill="#1A2E35"/>
<path d="M209.261 391.992C208.778 391.597 228.306 344.032 229.173 343.687C230.038 343.34 240.598 390.088 240.254 391.128C239.907 392.165 211.165 393.551 209.261 391.992Z" fill="#1A2E35"/>
<path d="M323.257 445.887C313.087 454.791 300.857 461.491 288.189 466.396L284.581 443.933L251.341 452.931L259.995 474.533C248.014 476.939 236.737 477.955 227.585 477.955C201.874 477.955 168.541 469.941 136.738 444.589C100.734 415.88 84.0833 372.253 94.5019 363.352C102.25 356.728 112.825 364.132 134.707 381.469C140.955 386.407 148.234 391.061 156.294 395.169L143.69 414.851L170.993 429.048L181.099 405.259C183.567 406.04 186.066 406.759 188.613 407.415L183.989 428.345L206.138 432.156L207.09 411.085C213.807 412.007 220.665 412.507 227.585 412.507C248.951 412.507 284.518 408.32 302.638 399.84C328.598 387.671 353.278 361.024 361.931 375.629C370.585 390.233 350.731 421.816 323.257 445.887Z" fill="#1A2E35"/>
<path d="M125.307 122.585C119.435 122.906 119.052 26.1625 141.279 0.257138C144.468 -3.45886 197.275 61.6865 198.032 63.9198C198.788 66.1545 137.427 121.921 125.307 122.585Z" fill="#1A2E35"/>
<path d="M127.092 122.142C122.082 122.417 121.755 39.8632 140.722 17.7566C143.443 14.5859 188.504 70.1752 189.15 72.0832C189.796 73.9886 137.434 121.577 127.092 122.142Z" fill="#2B454E"/>
<path d="M144.794 115.793C144.513 113.144 144.086 110.52 143.506 107.933C142.968 105.34 142.282 102.78 141.454 100.273C139.82 95.2588 137.646 90.4095 134.674 86.0895C131.772 81.7388 128.04 77.9175 123.592 75.1441C122.514 74.3921 121.325 73.8308 120.176 73.1935C118.968 72.6828 117.79 72.0775 116.53 71.6841C114.074 70.6908 111.466 70.1748 108.858 69.6255C114.156 70.0268 119.501 71.4348 124.156 74.2175C126.525 75.5268 128.664 77.2321 130.606 79.1108C132.548 80.9935 134.33 83.0548 135.84 85.2988C138.806 89.8188 141.046 94.7881 142.488 99.9588C143.924 105.125 144.793 110.456 144.794 115.793Z" fill="#375A64"/>
<path d="M148.487 114.062C148.702 110.236 148.643 106.405 148.334 102.599C148.059 98.7918 147.574 95.0025 146.84 91.2638C145.376 83.7985 143.122 76.4625 139.655 69.7012C137.955 66.3132 136.03 63.0318 133.8 59.9585C131.547 56.9078 129.07 54.0238 126.363 51.3545C123.628 48.7225 120.734 46.2265 117.568 44.0985C114.49 41.8345 111.123 40.0132 107.75 38.1892C114.807 41.1732 121.439 45.3158 127.111 50.5692C129.986 53.1598 132.487 56.1318 134.836 59.1998C137.143 62.3092 139.148 65.6305 140.915 69.0718C144.342 76.0118 146.651 83.4718 147.903 91.0745C149.114 98.6798 149.468 106.448 148.487 114.062Z" fill="#375A64"/>
<path d="M176.113 220.856C176.251 218.996 123.662 186.663 109.391 144.833C107.221 138.471 155.747 71.6054 179.262 59.3681C191.127 53.1921 271.643 63.0507 275.445 65.3347C279.245 67.62 328.797 141.936 328.474 160.152C328.335 167.948 299.598 201.151 269.587 217.055C266.438 218.724 278.342 235.447 285.329 243.244C292.314 251.043 316.559 267.705 323.23 283.581C323.23 283.581 278.483 299.016 240.27 300.647C202.055 302.277 176.014 294.675 176.014 294.675C176.014 294.675 173.235 259.325 176.113 220.856" fill="#1A2E35"/>
<path d="M159.636 110.061C146.998 108.03 138.612 119.627 136.244 134.37C134.324 146.31 139.867 159.707 151.998 161.657C164.128 163.606 173.932 150.482 175.734 139.271C177.535 128.061 173.36 112.266 159.636 110.061Z" fill="#1A2E35"/>
<path d="M160.356 113.347C148.476 111.438 140.595 122.339 138.368 136.196C136.564 147.42 141.773 160.014 153.176 161.847C164.579 163.679 173.795 151.343 175.488 140.804C177.181 130.266 173.256 115.42 160.356 113.347Z" fill="#FFC800"/>
<path d="M159.641 118.624C150.341 117.13 144.172 125.663 142.428 136.511C141.017 145.296 145.095 155.155 154.021 156.59C162.947 158.024 170.161 148.367 171.487 140.118C172.812 131.868 169.74 120.247 159.641 118.624Z" fill="#1A2E35"/>
<path d="M163.916 119.51C159.693 118.831 156.891 122.706 156.1 127.632C155.459 131.622 157.311 136.099 161.364 136.75C165.417 137.402 168.693 133.016 169.295 129.27C169.897 125.524 168.501 120.247 163.916 119.51Z" fill="white"/>
<path d="M251.716 121.819C268.226 119.632 278.207 131.204 280.168 146.005C281.755 157.993 273.578 171.533 257.735 173.632C241.89 175.731 230.186 162.641 228.694 151.384C227.203 140.127 233.791 124.193 251.716 121.819Z" fill="#1A2E35"/>
<path d="M250.539 125.132C266.056 123.076 275.439 133.953 277.283 147.867C278.775 159.135 271.088 171.863 256.195 173.835C241.3 175.808 230.299 163.504 228.899 152.923C227.496 142.341 233.688 127.364 250.539 125.132Z" fill="#FFC800"/>
<path d="M251.068 130.433C263.216 128.823 270.56 137.338 272.002 148.229C273.17 157.05 267.154 167.013 255.496 168.557C243.837 170.101 235.225 160.47 234.128 152.187C233.03 143.905 237.877 132.179 251.068 130.433Z" fill="#1A2E35"/>
<path d="M258.904 130.682C264.42 129.951 267.756 133.818 268.41 138.763C268.94 142.769 266.209 147.293 260.914 147.994C255.62 148.695 251.709 144.322 251.21 140.561C250.712 136.799 252.914 131.475 258.904 130.682Z" fill="white"/>
<path d="M204.275 147.474C204.003 149.049 194.179 154.426 193.079 154.369C191.995 154.313 182.606 147.938 182.435 146.341C182.263 144.761 191.168 144.635 193.435 144.753C195.718 144.871 204.563 145.918 204.275 147.474Z" fill="#375A64"/>
<path d="M174.762 157.243C176.199 159.57 177.667 161.872 179.312 163.988C180.143 165.024 181 166.071 181.967 166.818C182.432 167.184 182.978 167.442 183.267 167.435C183.564 167.42 184.119 167.228 184.526 166.912C185.419 166.282 186.162 165.227 186.846 164.166C187.518 163.076 188.111 161.906 188.639 160.698C189.703 158.296 190.646 155.754 191.372 153.236L192.722 148.568L194.084 153.24C194.983 156.319 196.168 159.419 197.579 162.299C198.287 163.739 199.082 165.131 200.018 166.359C200.963 167.548 202.042 168.678 203.272 169.06L203.73 169.168L204.192 169.207C204.539 169.196 204.89 169.16 205.244 169.091C205.952 168.946 206.668 168.687 207.359 168.342C208.752 167.655 210.04 166.66 211.263 165.59C213.699 163.416 215.852 160.86 217.835 158.178C216.332 161.167 214.466 163.99 212.175 166.518C211.026 167.778 209.728 168.938 208.206 169.874C206.674 170.767 204.892 171.56 202.728 171.106C200.696 170.58 199.28 169.228 198.124 167.887C196.98 166.51 196.056 165.027 195.23 163.515C193.603 160.46 192.399 157.31 191.372 154.011L194.083 154.015C193.235 156.714 192.283 159.296 191.03 161.828C190.4 163.086 189.698 164.322 188.875 165.512C188.039 166.692 187.074 167.848 185.667 168.707C184.935 169.12 184.162 169.447 183.091 169.383C182.012 169.216 181.384 168.643 180.82 168.144C179.738 167.084 178.956 165.92 178.236 164.724C176.827 162.326 175.687 159.824 174.762 157.243Z" fill="#375A64"/>
<path d="M308.281 284.056C310.939 277.687 254.996 255.333 236.399 267.564C217.803 279.795 231.64 330.541 242.256 331.193C246.584 331.457 256.623 324.141 261.109 312.064C264.133 303.925 260.544 296.664 260.544 296.664C260.544 296.664 305.684 290.281 308.281 284.056Z" fill="#1A2E35"/>
<path d="M246.972 309.264C246.984 309.147 247.162 309.143 247.179 309.259C247.656 312.28 248.256 315.298 249.019 318.259C249.716 320.958 250.576 323.604 252.81 325.43C252.944 325.539 252.798 325.744 252.651 325.648C250.323 324.114 248.324 321.827 247.374 319.18C246.22 315.968 246.652 312.572 246.972 309.264Z" fill="#375A64"/>
<path d="M238.81 314.512C238.819 314.396 238.998 314.391 239.017 314.508C239.395 316.821 240.207 319.708 241.239 323.051C241.978 325.439 242.83 329.331 245.687 329.941C246.179 330.045 246.071 330.299 245.565 330.292C242.519 330.253 240.815 326.992 239.863 324.533C238.609 321.291 238.557 317.931 238.81 314.512Z" fill="#375A64"/>
<path d="M294.798 273.497C293.074 272.891 291.39 272.191 289.654 271.604C288.242 271.128 277.454 266.844 263.759 264.289C263.677 263.697 263.613 263.113 263.615 262.511C263.619 261.363 263.729 260.221 263.941 259.095C264.391 256.697 265.482 254.541 267.234 252.837C271.023 249.153 276.354 248.537 281.405 248.589C281.498 248.591 281.509 248.449 281.414 248.444C276.137 248.101 269.978 248.072 265.765 251.812C263.767 253.585 262.638 256.101 262.189 258.701C261.966 259.992 261.977 261.325 262.183 262.616C262.251 263.04 262.339 263.549 262.453 264.061C259.77 263.589 256.998 263.18 254.161 262.891C247.831 262.245 241.01 262.137 235.649 266.111C230.741 269.748 228.546 275.836 227.711 281.672C227.173 285.443 227.031 289.333 227.019 293.14C227.006 297.015 227.291 300.872 228.349 304.612C228.387 304.752 228.599 304.711 228.573 304.565C227.358 297.973 227.821 291.196 228.821 284.611C229.691 278.869 231.298 272.804 235.775 268.775C240.405 264.611 246.949 264.649 252.829 265C256.45 265.217 260.043 265.696 263.443 266.295C263.445 266.296 263.446 266.297 263.446 266.299C263.549 266.399 263.679 266.407 263.787 266.356C272.885 267.984 280.509 270.452 283.17 271.108C285.054 271.572 286.915 272.121 288.785 272.639C290.715 273.172 292.67 273.576 294.603 274.08C294.985 274.18 295.174 273.629 294.798 273.497Z" fill="#375A64"/>
<path d="M257.892 287.168C257.728 286.801 257.538 286.441 257.364 286.08C257.285 284.661 257.149 283.248 256.912 281.847C256.89 281.721 256.697 281.763 256.717 281.888C256.924 283.116 257.045 284.355 257.128 285.596C255.944 283.245 254.538 280.983 253.044 278.835C252.961 278.713 252.785 278.853 252.841 278.975C254.17 281.895 255.392 284.857 256.684 287.793C257.957 290.688 259.07 293.741 260.642 296.485C260.701 296.591 260.85 296.531 260.836 296.417C260.462 293.24 259.196 290.073 257.892 287.168Z" fill="#375A64"/>
<path d="M184.641 278.914C187.246 275.926 196.305 267.071 203.677 270.111C211.049 273.152 224.025 322.986 216.446 327.659C214.449 328.891 201.561 324.143 195.121 314.958C192.013 310.524 192.621 306.484 192.473 298.872C192.473 298.872 179.679 295.222 178.567 294.227C177.454 293.232 180.627 283.519 184.641 278.914Z" fill="#1A2E35"/>
<path d="M215.275 293.475C214.663 290.871 213.923 288.296 213.084 285.756C212.253 283.243 211.416 280.724 210.367 278.291C209.371 275.979 208.365 273.575 207.025 271.435C205.859 269.572 204.287 268.054 202.033 267.722C199.871 267.403 197.641 268.204 195.741 269.168C193.763 270.171 191.877 271.376 190.121 272.746C190.048 272.406 189.948 272.072 189.863 271.818C189.593 271.01 189.284 270.226 188.88 269.475C188.096 268.019 187.112 266.728 185.861 265.64C183.303 263.412 179.413 262.594 176.177 263.696C175.972 263.767 176.109 264.042 176.289 264.03C178.016 263.912 179.667 264.034 181.283 264.718C182.653 265.298 183.907 266.167 184.981 267.191C185.999 268.16 186.907 269.312 187.655 270.5C188.06 271.143 188.453 271.788 188.839 272.444C188.992 272.704 189.172 273.04 189.379 273.348C187.972 274.507 186.652 275.767 185.448 277.123C182.393 280.564 179.595 284.932 178.811 289.542C178.793 289.642 178.952 289.698 179 289.608C179.967 287.836 180.836 286.031 181.895 284.308C182.917 282.646 184.047 281.043 185.305 279.552C187.885 276.494 190.993 273.778 194.493 271.819C196.271 270.824 198.208 269.835 200.267 269.64C202.34 269.444 203.943 270.427 205.064 272.119C206.357 274.071 207.34 276.304 208.325 278.42C209.344 280.606 210.368 282.802 211.253 285.044C212.273 287.627 213.152 290.268 213.937 292.931C214.741 295.659 215.337 298.452 216.192 301.163C216.249 301.343 216.575 301.374 216.563 301.143C216.431 298.563 215.865 295.984 215.275 293.475Z" fill="#375A64"/>
<path d="M194.187 284.607C193.608 286.663 193.035 288.775 192.632 290.911C192.436 289.759 192.376 288.587 192.445 287.416C192.455 287.255 192.213 287.237 192.196 287.396C192.04 288.789 192.173 290.189 192.512 291.543C192.096 293.976 191.936 296.439 192.308 298.887C192.327 299.011 192.493 298.983 192.515 298.875C193.397 294.171 193.353 289.333 194.349 284.64C194.368 284.549 194.212 284.517 194.187 284.607Z" fill="#375A64"/>
<path d="M205.566 307.403C205.515 307.297 205.347 307.354 205.371 307.469C205.954 310.471 206.419 313.511 206.712 316.557C206.98 319.329 207.075 322.111 205.598 324.59C205.508 324.739 205.718 324.882 205.822 324.742C207.487 322.502 208.586 319.673 208.575 316.861C208.563 313.447 206.996 310.403 205.566 307.403Z" fill="#375A64"/>
<path d="M214.061 310.329C214.013 310.223 213.844 310.279 213.866 310.395C214.3 312.699 214.522 315.691 214.693 319.184C214.814 321.681 215.342 325.629 212.865 327.179C212.438 327.445 212.625 327.644 213.1 327.467C215.95 326.389 216.437 322.743 216.493 320.107C216.565 316.631 215.468 313.456 214.061 310.329Z" fill="#375A64"/>
<path d="M131.15 142.204C124.178 141.491 117.198 141.011 110.213 140.694C103.228 140.383 96.2385 140.15 89.2492 140.242C85.7545 140.195 82.2612 140.294 78.7665 140.352C75.2732 140.478 71.7812 140.604 68.2905 140.794C61.3012 141.095 54.3398 141.764 47.3545 142.37C50.8105 141.804 54.2718 141.216 57.7518 140.787C61.2332 140.374 64.7198 139.979 68.2172 139.711C75.2092 139.103 82.2305 138.903 89.2465 138.832C96.2638 138.859 103.284 139.072 110.278 139.615C113.776 139.89 117.268 140.231 120.752 140.623C124.229 141.087 127.708 141.534 131.15 142.204Z" fill="#375A64"/>
<path d="M128.2 146.196C125.04 146.268 121.887 146.332 118.734 146.471C115.582 146.572 112.43 146.703 109.282 146.872C102.984 147.196 96.6912 147.564 90.4165 148.145C87.2725 148.364 84.1378 148.683 80.9992 148.973L71.6072 150.043L66.9125 150.611L62.2298 151.283C59.0938 151.647 55.9991 152.256 52.8618 152.668C59.0005 151.172 65.2018 149.896 71.4592 148.968C77.7085 147.989 84.0005 147.304 90.2992 146.741C96.6072 146.276 102.922 145.885 109.244 145.793C115.566 145.693 121.894 145.749 128.2 146.196Z" fill="#375A64"/>
<path d="M129.897 150.199C127.289 150.575 124.685 150.939 122.09 151.368C119.491 151.764 116.895 152.17 114.307 152.627C109.13 153.531 103.954 154.418 98.8006 155.436C93.6433 156.428 88.4966 157.478 83.3579 158.579C78.2126 159.655 73.0993 160.874 67.9473 161.984C70.4459 161.151 72.9606 160.364 75.4833 159.604C78.0206 158.894 80.5553 158.171 83.1099 157.523C88.2046 156.17 93.3646 155.079 98.5353 154.052C103.713 153.064 108.918 152.21 114.149 151.558C119.378 150.902 124.626 150.359 129.897 150.199Z" fill="#375A64"/>
<path d="M291.223 165.04C295.561 164.729 299.912 164.679 304.261 164.616C308.611 164.633 312.961 164.711 317.309 164.875C326.005 165.204 334.687 165.913 343.337 166.868C351.976 167.916 360.601 169.139 369.14 170.831C373.417 171.631 377.663 172.588 381.901 173.563C384.024 174.036 386.124 174.607 388.224 175.169L394.519 176.876C386.007 175.093 377.52 173.267 368.947 171.899C364.672 171.159 360.38 170.524 356.091 169.876C351.791 169.313 347.495 168.7 343.177 168.268C334.568 167.199 325.915 166.513 317.253 165.953C308.593 165.404 299.916 165.059 291.223 165.04Z" fill="#375A64"/>
<path d="M294.306 170.371C302.136 170.763 309.94 171.607 317.715 172.634C325.492 173.652 333.222 175.008 340.928 176.471C348.616 178.024 356.276 179.744 363.85 181.792C371.44 183.778 378.916 186.18 386.298 188.81C382.499 187.828 378.772 186.631 374.96 185.72L369.287 184.219L363.582 182.843C359.782 181.915 355.963 181.071 352.152 180.196C348.323 179.396 344.5 178.564 340.655 177.852C332.994 176.279 325.282 174.948 317.556 173.703C313.695 173.071 309.826 172.487 305.948 171.94C302.076 171.359 298.194 170.86 294.306 170.371Z" fill="#375A64"/>
<path d="M291.659 175.071C298.12 176.07 304.505 177.499 310.853 179.059C317.2 180.63 323.485 182.438 329.741 184.338C335.961 186.355 342.177 188.387 348.285 190.72C351.349 191.858 354.379 193.088 357.412 194.299C360.428 195.56 363.425 196.864 366.405 198.203C360.232 196.052 354.108 193.808 347.92 191.742C341.751 189.626 335.557 187.59 329.323 185.683C323.12 183.675 316.848 181.894 310.576 180.102C307.445 179.195 304.296 178.348 301.14 177.516C297.993 176.652 294.829 175.859 291.659 175.071Z" fill="#375A64"/>
<path d="M244.981 60.2668C239.285 61.7281 291.535 152.696 315.854 153.027C320.75 153.093 320.037 109.692 319.579 107.377C319.337 106.141 304.806 73.7495 285.165 65.5175C278.447 62.7015 248.753 59.3001 244.981 60.2668Z" fill="#1A2E35"/>
<path d="M319.211 134.524C319.078 137.569 318.728 140.674 317.939 143.625C317.54 145.114 317.188 146.616 316.795 148.108C316.599 148.852 316.388 149.592 316.16 150.328C316.042 150.709 315.81 152.028 315.351 152.204C314.855 152.394 312.05 150.401 311.403 149.993C310.103 149.172 308.803 148.354 307.519 147.509C304.967 145.83 302.479 144.05 300.104 142.126C295.314 138.245 290.934 133.805 286.711 129.322C282.568 124.925 278.588 120.358 274.775 115.672C270.482 110.396 266.267 104.932 262.552 99.2289C262.478 99.1156 262.315 99.2356 262.383 99.3503C265.67 104.909 269.01 110.368 272.794 115.608C276.53 120.781 280.542 125.73 284.846 130.44C289.274 135.286 293.866 140.066 299.004 144.169C301.511 146.17 304.135 148.03 306.839 149.754C308.208 150.629 309.591 151.482 311 152.29C311.707 152.694 314.478 154.212 315.246 154.152C316.995 154.018 317.299 152.116 317.7 150.758C318.223 148.989 318.678 147.196 318.952 145.369C319.484 141.816 319.543 138.118 319.427 134.533C319.423 134.412 319.216 134.4 319.211 134.524Z" fill="#375A64"/>
<path d="M217.314 262.565C214.279 256.962 211.582 250.922 210.201 244.673C210.09 244.175 209.467 244.141 209.317 244.635C208.909 245.978 207.757 249.751 207.594 250.329C207.485 249.95 207.378 249.574 207.285 249.201C206.961 247.91 206.689 246.609 206.466 245.297C206.015 242.659 205.731 239.987 205.638 237.313C205.543 234.643 205.627 231.97 205.906 229.314C206.187 226.639 206.721 224.038 207.179 221.393C207.199 221.279 207.029 221.219 206.982 221.33C205.931 223.842 205.301 226.599 204.846 229.278C204.398 231.929 204.155 234.613 204.114 237.302C204.071 240.034 204.237 242.762 204.634 245.466C204.839 246.865 205.101 248.254 205.413 249.631C205.713 250.95 205.997 252.35 206.677 253.529C207.122 254.299 208.078 253.702 208.167 252.973C208.222 252.534 209.526 247.277 209.735 246.507C210.394 249.177 211.159 251.794 212.251 254.341C213.527 257.319 215.073 260.179 216.95 262.826C217.121 263.067 217.447 262.811 217.314 262.565Z" fill="#375A64"/>
<path d="M203.472 57.4687C203.472 57.4687 214.754 66.2901 219.472 68.8181C224.189 71.3461 239.305 75.9741 239.305 75.9741C239.305 75.9741 258.278 94.9887 269.473 104.129C276.918 110.207 307.086 120.315 307.086 120.315C307.086 120.315 311.51 132.014 314.728 135.517C317.946 139.019 324.521 145.033 324.521 145.033C324.521 145.033 333.085 118.851 331.758 106.289C330.433 93.7261 302.652 58.1927 301.082 56.4021C296.485 51.1621 244.892 40.9701 231.606 43.2634C218.32 45.5567 203.472 57.4687 203.472 57.4687Z" fill="#FFC800"/>
<g opacity="0.199997">
<path d="M292.243 52.9902C288.363 52.0116 284.442 51.5622 280.442 51.6196C276.375 51.6782 272.431 52.5262 268.574 53.7942C261.195 56.2196 254.604 60.3222 248.647 65.2516C247.038 66.5836 245.483 67.9902 243.992 69.4542C242.431 70.9902 240.842 72.6036 239.563 74.3796C239.495 74.4716 239.604 74.6036 239.704 74.5316C241.215 73.4342 242.594 72.1649 244.055 71.0009C245.491 69.8596 246.919 68.7196 248.384 67.6196C251.364 65.3849 254.45 63.3356 257.7 61.5169C264.376 57.7809 271.482 55.3236 278.994 53.9382C283.31 53.1436 287.803 52.8996 292.162 53.4409C292.456 53.4782 292.528 53.0622 292.243 52.9902Z" fill="black"/>
<path d="M309.78 69.5759C307.377 65.3132 304.647 61.2039 301.519 57.4372C301.421 57.3199 301.236 57.4479 301.324 57.5772C303.759 61.1066 306.075 64.6932 308.016 68.5239C309.911 72.2612 311.324 76.2346 312.476 80.2572C314.796 88.3572 314.687 96.8439 312.557 104.976C311.312 109.728 309.537 114.383 307.697 118.931C307.647 119.056 307.82 119.136 307.887 119.02C312.22 111.277 316.205 103.063 316.517 94.0252C316.815 85.3679 313.984 77.0346 309.78 69.5759Z" fill="black"/>
<path d="M319.312 91.1819C319.296 91.0739 319.144 91.0899 319.146 91.1965C319.172 93.2445 319.179 95.2832 318.816 97.3059C318.47 99.2419 318.144 101.182 317.754 103.11C317.372 104.995 316.896 106.841 316.395 108.697C316.127 109.693 315.848 110.705 315.503 111.677C315.31 112.215 314.808 113.018 315.179 113.554C315.222 113.614 315.312 113.645 315.382 113.615C315.538 113.545 315.562 113.522 315.582 113.346C315.59 113.278 315.55 113.225 315.486 113.207C315.847 112.69 316.728 111.011 316.823 110.826C317.271 109.958 317.656 109.042 317.976 108.119C318.598 106.334 319.11 104.522 319.446 102.662C319.775 100.83 319.888 98.9112 319.758 97.0539C319.62 95.0939 319.602 93.1299 319.312 91.1819Z" fill="black"/>
<path d="M240.98 45.1316C238.132 45.2503 235.264 45.945 232.508 46.6316C229.648 47.3436 226.919 48.3063 224.263 49.5863C221.658 50.841 219.188 52.413 216.878 54.1463C214.575 55.8743 212.523 57.7903 210.499 59.825C210.416 59.9076 210.55 60.0516 210.64 59.9756C214.992 56.333 220.034 53.5316 225.142 51.1143C227.691 49.909 230.308 48.785 232.958 47.8223C235.62 46.8543 238.351 46.2956 241.084 45.5836C241.351 45.5143 241.23 45.121 240.98 45.1316Z" fill="black"/>
<path d="M277.377 59.275C270.551 60.0883 264.065 63.0323 259.361 68.107C259.213 68.267 259.44 68.471 259.608 68.371C262.481 66.6563 265.399 65.0763 268.384 63.563C269.815 62.8376 271.249 62.0923 272.713 61.4376C274.268 60.7403 275.853 60.191 277.457 59.6163C277.643 59.551 277.577 59.251 277.377 59.275Z" fill="black"/>
</g>
<path d="M285.375 46.1206C285.375 46.1206 270.357 47.4552 267.26 48.2859C264.164 49.1152 263.835 54.4792 265.729 55.1979C267.624 55.9179 282.087 55.9472 282.087 55.9472C282.087 55.9472 277.013 68.9672 277.335 70.7966C277.655 72.6272 280.248 76.3246 281.624 76.5152C282.997 76.7059 289.463 75.7632 290.468 74.8792C291.473 73.9952 297.263 65.2046 297.263 65.2046C297.263 65.2046 304.572 73.5339 306.36 74.5672C308.147 75.6006 311.001 76.5979 311.965 75.7792C312.931 74.9592 313.448 72.1192 313.531 71.0592C313.613 69.9992 305.424 56.2419 305.424 56.2419C305.424 56.2419 319.699 42.3046 320.951 41.5739C322.2 40.8446 348.433 38.7032 349.212 38.6406C349.989 38.5792 343.007 21.2099 342.437 19.4886C341.869 17.7672 320.06 3.93656 318.117 4.53389C316.175 5.13122 295.753 18.7712 293.967 21.3699C292.18 23.9699 285.375 46.1206 285.375 46.1206Z" fill="#2B454E"/>
<path d="M349.21 38.645C349.21 38.645 323.972 24.757 322.931 22.281C321.904 19.7864 318.112 4.53435 318.112 4.53435C320.066 3.94235 341.874 17.769 342.436 19.4904C343.014 21.2104 349.988 38.5717 349.21 38.645Z" fill="#375A64"/>
<path d="M468.443 51.4243C468.443 51.4243 468.956 65.8363 462.056 73.531C461.257 74.4216 456.284 68.895 456.284 68.895V71.6576C456.284 71.6576 453.408 71.1976 452.081 74.0523L449.468 71.8416C449.468 71.8416 451.863 78.935 451.219 80.4083C450.573 81.883 433.948 79.1656 428.651 73.8683C428.097 73.3163 425.243 83.8163 416.768 88.975C416.768 88.975 425.151 87.1323 429.664 92.751C429.664 92.751 438.875 85.0136 446.428 94.8696C446.428 94.8696 453.797 85.659 464.851 93.4883C464.851 93.4883 462.087 82.711 474.983 78.1976C474.983 78.1976 471.205 66.7763 482.167 61.1576C482.167 61.1576 480.417 51.3016 487.877 45.2216C487.877 45.2216 478.852 50.6256 468.443 51.4243Z" fill="#1A2E35"/>
<path d="M409.223 127.665C409.223 127.665 403.718 133.996 397.73 134.527C397.035 134.588 397.116 130.264 397.116 130.264L396.019 131.439C396.019 131.439 394.978 130.1 393.282 130.788L393.048 128.809C393.048 128.809 391.25 132.776 390.39 133.147C389.53 133.517 383.542 125.759 383.394 121.404C383.378 120.949 377.994 124.279 372.344 123.107C372.344 123.107 376.639 125.652 376.326 129.833C376.326 129.833 383.314 130.203 382.611 137.392C382.611 137.392 389.402 136.403 390.991 144.12C390.991 144.12 394.096 138.441 401.37 141.644C401.37 141.644 404.302 135.289 411.192 137.253C411.192 137.253 414.362 132.368 419.948 132.747C419.948 132.747 413.966 131.46 409.223 127.665" fill="#1A2E35"/>
<path d="M38.4951 98.4521C38.4951 98.4521 37.6591 106.8 33.0791 110.693C32.5484 111.144 30.1151 107.568 30.1151 107.568L29.8991 109.161C29.8991 109.161 28.2764 108.671 27.2884 110.212L25.9551 108.732C25.9551 108.732 26.7791 113.008 26.2911 113.808C25.8044 114.607 16.4337 111.735 13.7964 108.267C13.5217 107.904 11.0511 113.733 5.76172 116.041C5.76172 116.041 10.7377 115.637 12.8977 119.231C12.8977 119.231 18.8151 115.493 22.3951 121.767C22.3951 121.767 27.3657 117.036 33.1231 122.417C33.1231 122.417 32.3764 115.988 40.1631 114.399C40.1631 114.399 38.8831 107.519 45.6417 105.14C45.6417 105.14 45.4071 99.3215 50.1844 96.4028C50.1844 96.4028 44.5577 98.8095 38.4951 98.4521" fill="#1A2E35"/>
<path d="M109.015 170.469C109.015 170.469 104.618 173.401 100.891 172.729C100.459 172.652 101.227 170.037 101.227 170.037L100.364 170.568C100.364 170.568 99.9551 169.582 98.8098 169.718L98.9951 168.477C98.9951 168.477 97.2445 170.589 96.6605 170.672C96.0765 170.753 93.7258 165.045 94.3591 162.373C94.4258 162.094 90.6005 163.224 87.3618 161.573C87.3618 161.573 89.5485 163.833 88.6631 166.322C88.6631 166.322 92.8485 167.706 91.2285 171.96C91.2285 171.96 95.5178 172.485 95.2031 177.44C95.2031 177.44 98.0325 174.505 101.922 177.66C101.922 177.66 104.758 174.284 108.619 176.622C108.619 176.622 111.356 174.181 114.688 175.338C114.688 175.338 111.266 173.562 109.015 170.469" fill="#1A2E35"/>
</svg>
